<svg width="20" height="19" fill="none" xmlns="http://www.w3.org/2000/svg"><path d="M5.874 0C2.646 0 0 2.732 0 6.065c0 1.89 1.067 3.539 2.728 5.392 1.66 1.853 3.977 3.976 6.767 6.859a.704.704 0 0 0 1.01 0c2.8-2.883 5.114-5.006 6.773-6.86C18.937 9.604 20 7.955 20 6.066 20 2.733 17.354 0 14.126 0a4.26 4.26 0 0 0-2.183.595c-1.157.675-2.73.675-3.887 0A4.259 4.259 0 0 0 5.873 0Zm0 1.473c1.571 0 2.687.99 3.515 2.411a.71.71 0 0 0 1.225 0c.828-1.42 1.941-2.41 3.512-2.41 2.446 0 4.445 2.06 4.445 4.59 0 1.311-.766 2.63-2.342 4.391-1.177 1.315-2.852 2.927-4.792 4.861-.793.79-2.08.79-2.872-.001-1.934-1.934-3.607-3.545-4.785-4.86-1.58-1.762-2.35-3.082-2.35-4.39 0-2.531 1.998-4.592 4.444-4.592Z" fill="#D4DCE2"/></svg>