<svg width="23" height="20" fill="none" xmlns="http://www.w3.org/2000/svg"><path d="M11.68 9.406c.215.213.501.331.787.331.31 0 .596-.118.787-.33l3.695-3.853c.405-.426.405-1.135-.048-1.536a1.08 1.08 0 0 0-1.549.047L13.665 5.82c-.652.68-1.74.676-2.39-.006a1.123 1.123 0 0 0-1.549-.047 1.1 1.1 0 0 0-.048 1.536l2.003 2.103Z" fill="#D4DCE2"/><path d="M21.813 3.332c-.596-.141-1.192.213-1.311.804l-1.55 6.523c-.19.827-.93 1.394-1.788 1.394H9.44c-.858 0-1.62-.614-1.788-1.441L5.555.85A1.095 1.095 0 0 0 4.482 0H1.097C.5 0 0 .496 0 1.087s.5 1.088 1.097 1.088h.862a2 2 0 0 1 1.955 1.58l1.569 7.33c.405 1.82 2.05 3.166 3.933 3.166h7.7c1.884 0 3.481-1.252 3.91-3.072l1.55-6.523c.19-.591-.191-1.182-.763-1.324ZM11.109 17.49c0 .991-.811 1.795-1.812 1.795-1 0-1.812-.804-1.812-1.796s.812-1.796 1.812-1.796 1.812.804 1.812 1.796ZM18.928 17.49c0 .991-.81 1.795-1.812 1.795-1 0-1.811-.804-1.811-1.796s.81-1.796 1.811-1.796 1.812.804 1.812 1.796Z" fill="#D4DCE2"/></svg>