<svg width="21" height="19" fill="none" xmlns="http://www.w3.org/2000/svg"><path d="M18.035.141a2 2 0 0 1 2.12 2.122l-.21 3.333a.616.616 0 1 1-1.23-.077l.03-.46c.063-.99-1.13-1.532-1.834-.834l-4.42 4.383a1.248 1.248 0 0 1-1.75.007l-1.112-1.09a2 2 0 0 0-2.808.007l-5.775 5.725a.614.614 0 1 1-.864-.873l6.634-6.572a2 2 0 0 1 2.807-.008l.58.568a2 2 0 0 0 2.808-.008l3.005-2.979c.707-.701.168-1.905-.826-1.843l-.469.029a.61.61 0 0 1-.075-1.218l3.39-.212ZM1.52 16.276a1.609 1.609 0 1 1 3.217 0v.708a1.609 1.609 0 0 1-3.217 0v-.709ZM5.976 13.332a1.609 1.609 0 0 1 3.218 0v3.653a1.609 1.609 0 1 1-3.218 0v-3.653ZM10.432 14.803a1.609 1.609 0 0 1 3.218 0v2.18a1.609 1.609 0 0 1-3.218 0v-2.18ZM14.887 11.123a1.609 1.609 0 0 1 3.218 0v5.862a1.609 1.609 0 1 1-3.218 0v-5.862Z" fill="#D4DCE2"/></svg>