<svg width="19" height="19" fill="none" xmlns="http://www.w3.org/2000/svg"><path d="m18.733 16.653-4.896-4.854c-.582-.577-.648-1.48-.337-2.239.335-.82.511-1.703.511-2.615a6.87 6.87 0 0 0-2.052-4.91A6.99 6.99 0 0 0 7.006 0a6.99 6.99 0 0 0-4.954 2.034A6.87 6.87 0 0 0 0 6.945c0 1.855.729 3.6 2.052 4.912a6.99 6.99 0 0 0 4.954 2.034c.858 0 1.693-.153 2.473-.444.894-.334 1.945-.266 2.622.406l4.728 4.687c.2.197.565.155.817-.096l.99-.982c.253-.25.296-.612.097-.81ZM7.006 12.01c-2.817 0-5.108-2.272-5.108-5.064 0-2.792 2.292-5.064 5.108-5.064s5.108 2.272 5.108 5.064c0 2.792-2.291 5.064-5.108 5.064Z" fill="#D4DCE2"/><path d="M10.504 6.263H9.1a1.405 1.405 0 0 1-1.405-1.405v-1.38a.329.329 0 0 0-.33-.328h-.717a.329.329 0 0 0-.33.328v.785a2 2 0 0 1-2 2h-.81a.329.329 0 0 0-.33.327v.71c0 .182.148.328.33.328h.81a2 2 0 0 1 2 2v.786a.33.33 0 0 0 .33.328h.716a.33.33 0 0 0 .33-.328v-.786a2 2 0 0 1 2-2h.81c.183 0 .33-.146.33-.327v-.71a.329.329 0 0 0-.33-.328Z" fill="#D4DCE2"/></svg>