<svg width="140" height="63" fill="none" xmlns="http://www.w3.org/2000/svg"><path d="m21.693 25.659.671-.406c.098-.493-.098-.736-.573-.736-.688 0-1.032.525-1.032 1.57 0 .41.055.887.17 1.428 1.217.807 1.823 1.846 1.823 3.107 0 1.262-.442 2.241-1.321 2.94-.88.698-2.075 1.044-3.577 1.044-.622 0-1.272-.065-1.943-.19-.705.445-1.054.78-1.054 1.002 0 .222.513.336 1.534.336h2.452c3.63 0 5.448 1.294 5.448 3.881 0 1.397-.546 2.5-1.643 3.318-1.097.817-2.806 1.223-5.127 1.223-3.953 0-5.93-.85-5.93-2.544 0-.92.618-1.553 1.852-1.905l1.441.644c-.13.46-.191.899-.191 1.31 0 1.364 1.027 2.046 3.074 2.046 1.25 0 2.211-.233 2.883-.693.671-.46 1.01-1.034 1.01-1.716 0-.682-.202-1.136-.612-1.37-.41-.232-1.223-.346-2.435-.346h-2.326c-1.294 0-2.222-.216-2.784-.644-.563-.427-.841-.958-.841-1.58 0-.628.202-1.153.6-1.57.4-.422 1.114-.942 2.135-1.559-1.856-.525-2.784-1.727-2.784-3.616 0-1.19.431-2.149 1.294-2.88.863-.73 2.162-1.093 3.887-1.093 1.038 0 1.928.2 2.665.596a5.221 5.221 0 0 1-.142-1.164c0-.888.24-1.532.72-1.927s1.016-.596 1.611-.596 1.07.157 1.43.466c.361.308.541.736.541 1.272 0 .541-.142.942-.431 1.202-.29.26-.639.395-1.043.395-.41 0-.743-.108-1.01-.32-.284-.222-.426-.525-.442-.925Zm-5.089 4.455v1.282c0 1.061.093 1.787.278 2.166.186.379.464.568.841.568.377 0 .65-.184.814-.558.17-.373.251-1.136.251-2.295v-1.163c0-1.24-.082-2.052-.24-2.442-.159-.39-.426-.584-.803-.584-.377 0-.66.2-.852.606-.196.406-.289 1.213-.289 2.42ZM35.015 27.564c-.595 0-1.114.379-1.562 1.142-.448.763-.671 1.667-.671 2.712v6.376h1.703v.428h-7.49v-.428h1.32V27.32h-1.32v-.428h5.787v2.285c.207-.807.606-1.43 1.2-1.868a3.298 3.298 0 0 1 2.016-.655c.753 0 1.364.211 1.834.634.47.422.71 1.017.71 1.786 0 .768-.175 1.358-.53 1.775-.355.412-.89.617-1.621.617-.732 0-1.267-.238-1.611-.714-.344-.476-.388-1.137-.131-1.976h.863c.41-.806.24-1.212-.497-1.212ZM42.828 36.885c-1.032-1.055-1.545-2.522-1.545-4.4 0-1.879.579-3.319 1.742-4.32 1.157-1.002 2.637-1.5 4.428-1.5 3.63 0 5.378 1.808 5.236 5.424h-6.77v.931c0 1.554.202 2.728.6 3.524.399.796 1.098 1.191 2.091 1.191 1.857 0 3.074-.985 3.648-2.95l.431.07c-.306 1.142-.852 2.03-1.644 2.663-.791.634-1.981.953-3.565.953-2.07-.005-3.62-.536-4.652-1.586Zm3.112-5.272h2.474v-1.164c0-1.283-.077-2.16-.23-2.63-.152-.466-.458-.704-.911-.704-.459 0-.792.249-1.01.747-.219.498-.322 1.358-.322 2.582v1.169ZM57.619 36.885c-1.032-1.055-1.55-2.522-1.55-4.4 0-1.879.578-3.319 1.741-4.32 1.158-1.002 2.637-1.5 4.428-1.5 3.63 0 5.378 1.808 5.23 5.424h-6.77v.931c0 1.554.202 2.728.601 3.524.398.796 1.097 1.191 2.086 1.191 1.856 0 3.074-.985 3.647-2.95l.431.07c-.305 1.142-.851 2.03-1.643 2.663-.792.634-1.982.953-3.565.953-2.059-.005-3.604-.536-4.636-1.586Zm3.107-5.272h2.473v-1.164c0-1.283-.076-2.16-.23-2.63-.152-.466-.458-.704-.911-.704-.459 0-.792.249-1.01.747-.219.498-.322 1.358-.322 2.582v1.169ZM70.783 26.898h5.788v2.187c.256-.73.65-1.315 1.174-1.76.53-.443 1.326-.665 2.402-.665 2.479 0 3.724 1.326 3.724 3.973v7.162h1.343v.427h-6.792v-.428h.982V30.06c0-.953-.065-1.565-.19-1.846-.126-.276-.361-.417-.694-.417-.513 0-.966.335-1.354 1.001-.393.666-.59 1.478-.59 2.425v6.572h1.032v.427h-6.825v-.428h1.322V27.322h-1.322v-.423ZM89.593 36.885c-1.032-1.055-1.551-2.522-1.551-4.4 0-1.879.579-3.319 1.742-4.32 1.157-1.002 2.637-1.5 4.428-1.5 3.63 0 5.378 1.808 5.236 5.424h-6.77v.931c0 1.554.201 2.728.6 3.524.399.796 1.097 1.191 2.091 1.191 1.856 0 3.074-.985 3.647-2.95l.432.07c-.306 1.142-.852 2.03-1.644 2.663-.791.634-1.982.953-3.565.953-2.064-.005-3.615-.536-4.646-1.586Zm3.112-5.272h2.473v-1.164c0-1.283-.076-2.16-.23-2.63-.152-.466-.458-.704-.911-.704-.459 0-.792.249-1.01.747-.219.498-.322 1.358-.322 2.582v1.169ZM110.734 27.564c-.59 0-1.114.379-1.562 1.142-.448.763-.672 1.667-.672 2.712v6.376h1.704v.428h-7.491v-.428h1.321V27.32h-1.321v-.428h5.787v2.285c.208-.807.606-1.43 1.202-1.868a3.294 3.294 0 0 1 2.014-.655c.754 0 1.365.211 1.835.634.469.422.71 1.017.71 1.786 0 .768-.175 1.358-.53 1.775-.349.412-.89.617-1.622.617-.726 0-1.266-.238-1.61-.714-.344-.476-.388-1.137-.131-1.976h.862c.404-.806.235-1.212-.496-1.212ZM116.514 27.326v-.428h6.962v.428h-1.294l2.615 7.903 2.785-7.903h-1.611v-.428h3.385v.428h-1.201l-4.488 12.829c-.53 1.488-1.119 2.533-1.775 3.128-.655.596-1.457.893-2.402.893-.945 0-1.687-.216-2.233-.644-.546-.427-.814-.974-.814-1.64 0-.666.175-1.174.53-1.52.349-.353.813-.526 1.392-.526 1.327 0 1.993.547 1.993 1.64 0 .239-.049.525-.142.856h-.841c-.131.362-.142.665-.049.904.098.238.311.357.65.357.655 0 1.239-.32 1.753-.964.513-.644.999-1.624 1.463-2.939l.529-1.478h-2.113l-4.105-10.901h-.989v.005ZM69.8 12.971a.319.319 0 0 1-.19-.06.337.337 0 0 1-.093-.47c1.212-1.765 1.409-3.112 1.594-4.417.071-.47.137-.958.257-1.456.284-1.202.644-2.198 1.103-3.02a50.172 50.172 0 0 1-1.655-.277c-.89-.157-1.812-.319-2.724-.4-1.578-.135-3.795-.033-5.356 1.25-.399.33-.896.86-.983 1.538a.35.35 0 0 1-.382.292.337.337 0 0 1-.295-.38c.12-.892.731-1.563 1.228-1.97 1.742-1.428 4.139-1.553 5.853-1.407.94.081 1.879.25 2.785.406a36.66 36.66 0 0 0 1.927.309 5.83 5.83 0 0 1 1.322-1.38c.791-.59 2.03-1.05 3.117-.58.41.179.846.558.84 1.094-.004.422-.294.812-.818 1.098-.874.477-1.938.65-3.374.563a17.186 17.186 0 0 1-.743-.065c-.486.807-.868 1.825-1.168 3.086-.11.465-.175.915-.246 1.396-.202 1.38-.41 2.81-1.709 4.704a.356.356 0 0 1-.29.146Zm3.844-9.97c.115.01.235.016.35.027 1.294.081 2.244-.07 3.003-.482.136-.076.464-.276.464-.509 0-.19-.213-.368-.431-.46-.825-.352-1.797.027-2.436.498-.349.26-.66.568-.95.926Z" fill="#7D7D7D"/><path d="M73.78 13.085a.938.938 0 0 1-.551-.168c-.263-.184-.415-.508-.432-.92-.022-.617.202-1.17.42-1.705.154-.374.301-.725.356-1.088 0-.01 0-.016.005-.027a.692.692 0 0 0-.191.076c-1.136.67-2.353 1.98-3.249 3.507a.349.349 0 0 1-.47.125.341.341 0 0 1-.125-.466c.956-1.624 2.26-3.026 3.494-3.75.47-.277.929-.234 1.136.113.126.2.087.427.077.525-.071.444-.235.85-.399 1.245-.202.487-.388.953-.371 1.423.005.19.06.336.142.39.114.081.355.043.644-.108.29-.152.573-.33.857-.503l.137-.087c.273-.168.535-.341.802-.525-.103-.704.12-1.537.59-2.063.431-.481 1.01-.66 1.627-.498.197.055.35.152.442.287.142.211.142.488 0 .78-.273.552-.786.942-1.234 1.288l-.158.125c-.153.119-.311.238-.47.351.071.152.18.325.35.423.142.08.333.119.617.124a4.075 4.075 0 0 0 2.539-.86.326.326 0 0 1 .262-.07.341.341 0 0 1 .23.145s.982 1.105 6.393 1.105h7.747a.341.341 0 1 1 0 .682H87.25c-4.488 0-6.132-.747-6.694-1.153-.803.552-1.747.822-2.736.833-.278 0-.638-.032-.955-.216a1.541 1.541 0 0 1-.563-.612c-.218.146-.436.292-.66.428l-.137.086c-.294.184-.595.368-.9.53-.339.168-.607.228-.825.228ZM77.87 9.2a.91.91 0 0 0-.71.33c-.251.281-.41.714-.437 1.131l.17-.13.163-.124c.41-.314.835-.64 1.037-1.05a.353.353 0 0 0 .039-.125.87.87 0 0 0-.263-.032ZM54.67 13.085h-5.896a.341.341 0 1 1 0-.682h5.896c6.301 0 7.863-1.261 7.879-1.272a.375.375 0 0 1 .268-.081c.098.01.185.065.24.14.999 1.44 1.916 1.045 1.949 1.024.956-.293 1.409-1.364 1.627-2.22.197-.758.317-1.548.431-2.317.115-.741.23-1.504.415-2.251.464-1.884 1.338-3.291 2.534-4.076a.345.345 0 0 1 .475.097.338.338 0 0 1-.099.471c-1.326.866-1.954 2.474-2.244 3.67-.174.715-.289 1.467-.398 2.192-.12.785-.24 1.592-.442 2.382-.377 1.467-1.087 2.398-2.048 2.685-.005.005-1.283.606-2.566-1.002-.726.406-2.85 1.24-8.02 1.24ZM34.322 55.911l-.47 1.49-.808-.25 1.272-4.01 1.474.46c.475.15.803.373.972.676.17.303.197.65.071 1.04-.12.383-.344.649-.666.795-.322.151-.715.151-1.174.005l-.671-.206Zm1.687-.855c.065-.2.06-.373-.022-.514-.077-.14-.24-.249-.492-.33l-.578-.179-.393 1.234.578.179c.475.152.776.022.907-.39ZM42.265 55.403l-.584 2.398c-.076.32-.065.579.038.774.104.195.29.325.557.39.268.064.486.032.672-.093.18-.124.311-.346.388-.67l.584-2.399.819.195-.584 2.398c-.093.38-.24.682-.448.91a1.39 1.39 0 0 1-.732.438 1.952 1.952 0 0 1-.9-.01c-.498-.12-.853-.358-1.076-.726-.224-.363-.268-.828-.131-1.397l.584-2.398.813.19ZM50.701 61.416l-.699-1.78-.366-.06-.278 1.613-.835-.14.71-4.147 1.594.27c.486.082.835.26 1.048.542.213.276.29.606.224.99-.055.314-.186.563-.399.742-.213.179-.491.281-.835.292l.759 1.83-.923-.152Zm-.972-2.414.688.114c.475.081.753-.087.825-.509.032-.2 0-.363-.093-.498-.099-.13-.268-.217-.514-.26l-.688-.113-.218 1.266ZM57.51 58.759l-.115 1.082 1.49.157-.065.639-1.49-.157-.12 1.126 1.67.173-.071.671-2.517-.26.442-4.178 2.517.26-.07.665-1.671-.178ZM72.655 62.938l-.846.005-1.917-2.842.022 2.858-.846.006-.033-4.2.846-.006 1.917 2.869-.022-2.88.846-.005.033 4.195ZM80.07 61.687l-1.692.13-.235.866-.89.07 1.228-4.265.967-.076 1.878 4.022-.89.07-.366-.817Zm-.278-.617-.76-1.721-.485 1.818 1.245-.097ZM88.135 57.34l.098.66-1.157.169.513 3.502-.841.119-.513-3.502-1.152.167-.099-.66 3.15-.455ZM93.206 56.41l.524 2.409c.071.324.191.546.371.676.175.13.405.168.672.108.268-.054.453-.178.563-.373.109-.19.125-.45.06-.769l-.525-2.408.825-.174.524 2.41c.082.378.082.714-.005 1.006a1.39 1.39 0 0 1-.465.71 1.838 1.838 0 0 1-.819.373c-.496.108-.928.043-1.288-.19-.36-.233-.606-.633-.726-1.202l-.524-2.408.813-.168ZM103.433 58.201l-1.409-1.304-.36.102.458 1.576-.813.232-1.174-4.038 1.55-.444c.475-.135.869-.124 1.18.033.316.157.524.422.633.796.087.303.077.584-.033.839-.109.254-.316.46-.622.622l1.485 1.326-.895.26Zm-1.928-1.754.672-.19c.464-.134.639-.4.518-.811a.624.624 0 0 0-.3-.406c-.147-.076-.338-.081-.573-.01l-.672.189.355 1.228ZM108.396 52.886l.371 1.023 1.414-.504.219.607-1.414.503.387 1.066 1.584-.563.229.634-2.381.844-1.43-3.957 2.381-.844.229.628-1.589.563ZM77.874 47.257H63.8v1.358h14.075v-1.358ZM41.561 12.002c-1.769-.076-3.762-.217-5.766-.606-.365-.91-.556-1.884-.742-2.912-.06-.33-.12-.66-.186-.986-.273-1.326-.737-3.004-1.927-4.195-.098-.097-.35-.352-.72-.352h-.012c-.398 0-.731.277-.922.753-.426 1.088-.334 2.268-.224 3.064.174 1.293.497 2.278 1.01 3.09.153.244.327.466.513.666a15.912 15.912 0 0 1-2.55-1.196.484.484 0 0 0-.235-.184c-.409-2.35-.851-4.758-1.627-7.07-.262-.784-.644-1.629-1.496-1.97-.327-.13-.65-.124-.906.017-.415.232-.486.692-.513.871-.218 1.45.082 3.232.72 4.882-1.354-1.364-2.784-2.722-4.542-3.67-.53-.286-1.234-.6-1.988-.52a.51.51 0 0 0-.458.499c-.022.953.535 1.835 1.703 2.712 1.819 1.358 4.275 2.1 5.286 2.36.425.514.9 1.001 1.425 1.456-2.496-.455-5.138-.011-7.333 1.304a.502.502 0 0 0-.246.46c.011.184.12.352.29.434.9.427 1.878.563 2.844.563.634 0 1.262-.06 1.851-.136 1.862-.233 3.364-.6 4.701-1.131.78.454 1.616.86 2.517 1.201-1.097.412-2.244.9-3.21 1.657-1.12.877-1.83 2.003-1.993 3.177-.082.574.19.834.36.937a.734.734 0 0 0 .393.108c.246 0 .459-.114.546-.162 2.162-1.148 3.948-2.853 5.673-4.499l.53-.503c.317.081.628.152.944.222.011.005.022.005.039.005 2.167.45 4.313.601 6.213.682h.022a.514.514 0 0 0 .513-.487.525.525 0 0 0-.497-.541Zm-20.25-7.935c-.618-.46-1.01-.899-1.186-1.327.29.076.568.211.825.352 1.234.666 2.315 1.57 3.33 2.533-1.168-.449-2.21-.99-2.97-1.558Zm10.93.005c0-.005 0-.005.006-.01.977 1 1.375 2.467 1.61 3.642.066.32.126.644.186.969.12.655.24 1.326.42 1.981-.59-.249-1.13-.714-1.523-1.342-.431-.682-.71-1.538-.863-2.685-.147-1.099-.098-1.884.164-2.555Zm-5.968-2.94c.006-.037.011-.07.017-.091.458.184.715.785.9 1.342.645 1.938 1.06 3.973 1.42 5.976-.01-.01-.022-.016-.032-.027-1.617-1.873-2.627-5.018-2.305-7.2ZM24.68 10.32c-.96.119-2.025.2-3.014.01a9.855 9.855 0 0 1 5.94-.568c-.867.238-1.834.417-2.926.558Zm3.221 5.759c.197-.807.743-1.586 1.556-2.22.814-.633 1.77-1.06 2.949-1.504.11-.038.213-.081.317-.114-1.491 1.408-3.042 2.836-4.822 3.838ZM123.05 10c-2.195-1.316-4.832-1.76-7.333-1.305.524-.455.999-.942 1.425-1.456 1.01-.26 3.462-1.002 5.286-2.36 1.168-.872 1.725-1.76 1.703-2.712a.514.514 0 0 0-.459-.498c-.764-.076-1.463.238-1.987.52-1.758.947-3.189 2.3-4.543 3.67.639-1.652.939-3.427.721-4.878-.027-.173-.093-.638-.513-.871-.257-.141-.579-.146-.907-.016-.851.34-1.233 1.185-1.49 1.97-.77 2.306-1.212 4.72-1.627 7.07a.473.473 0 0 0-.235.189 15.92 15.92 0 0 1-2.55 1.196c.186-.206.355-.428.508-.666.513-.812.835-1.797 1.01-3.09.109-.796.202-1.976-.224-3.064-.191-.482-.546-.774-.933-.753-.372.006-.623.26-.721.352-1.196 1.196-1.66 2.869-1.933 4.195-.065.33-.125.66-.185.99-.186 1.03-.377 1.998-.743 2.907-2.004.39-3.997.53-5.766.607a.51.51 0 0 0 .022 1.017h.022c1.9-.08 4.046-.232 6.213-.682.011 0 .022-.005.033-.005.317-.065.628-.14.945-.222l.524.498c1.725 1.645 3.511 3.35 5.673 4.498.087.049.3.157.546.157a.735.735 0 0 0 .393-.108c.169-.103.442-.357.36-.931-.164-1.17-.873-2.3-1.993-3.178-.966-.752-2.113-1.24-3.21-1.656a16.978 16.978 0 0 0 2.511-1.196c1.338.53 2.845.887 4.712 1.126.59.075 1.218.135 1.851.135.961 0 1.944-.135 2.839-.563a.504.504 0 0 0 .29-.433.469.469 0 0 0-.235-.455Zm-.874-6.908c.257-.135.535-.276.819-.352-.174.428-.573.867-1.19 1.327-.759.568-1.802 1.11-2.965 1.559 1.021-.97 2.108-1.868 3.336-2.534Zm-6.246-.709c.186-.563.437-1.158.901-1.342.006.021.011.054.017.092.322 2.181-.688 5.326-2.31 7.204-.011.006-.022.017-.033.022.366-2.003.781-4.038 1.425-5.976Zm-6.852 6.29c.06-.325.12-.65.186-.969.24-1.169.639-2.636 1.616-3.643 0 .006 0 .006.005.011.262.666.312 1.456.164 2.56-.153 1.143-.426 1.998-.863 2.685-.387.617-.933 1.088-1.523 1.337.175-.66.295-1.331.415-1.98Zm6.148 7.405c-1.785-1.001-3.336-2.425-4.827-3.849.104.038.213.076.322.12 1.185.443 2.141.871 2.949 1.504.813.639 1.359 1.418 1.556 2.225Zm3.216-5.76a21.337 21.337 0 0 1-2.927-.551 9.812 9.812 0 0 1 5.941.568c-.983.184-2.048.103-3.014-.016ZM2.331 35.029a2.321 2.321 0 0 0 2.332-2.311 2.321 2.321 0 0 0-2.332-2.312A2.321 2.321 0 0 0 0 32.718a2.321 2.321 0 0 0 2.331 2.31ZM137.104 35.029a2.321 2.321 0 0 0 2.331-2.311 2.322 2.322 0 0 0-2.331-2.312 2.322 2.322 0 0 0-2.332 2.312 2.322 2.322 0 0 0 2.332 2.31Z" fill="#7D7D7D"/></svg>