<svg width="101" height="101" fill="none" xmlns="http://www.w3.org/2000/svg"><path d="m19.164 43.169-.72-.027-.994.016c-.497.016-.857.027-1.081.027a.29.29 0 0 1-.164-.06c-.055-.043-.082-.086-.082-.146 0-.157.087-.254.262-.303.36-.07.6-.168.726-.281.126-.114.186-.309.186-.585v-6.225c0-.292-.06-.498-.18-.617s-.366-.222-.732-.303c-.175-.043-.262-.146-.262-.303 0-.054.027-.103.082-.146a.255.255 0 0 1 .164-.06c.338 0 .699.016 1.08.044.498.016.83.026.994.026.148 0 .563-.016 1.245-.054 1.016-.043 1.573-.07 1.677-.07.857 0 1.66.19 2.402.563a4.537 4.537 0 0 1 1.78 1.575c.442.677.666 1.445.666 2.306 0 .823-.191 1.591-.579 2.311-.387.72-.955 1.294-1.709 1.727-.753.433-1.643.65-2.675.65a37.623 37.623 0 0 1-2.086-.065Zm3.85-1.624c.442-.628.666-1.494.666-2.598 0-1.245-.235-2.23-.705-2.956-.47-.725-1.168-1.088-2.085-1.088-.47 0-.792.027-.967.076-.175.049-.262.179-.262.379v5.949c0 .422.11.72.328.904.218.184.562.276 1.043.276.873 0 1.54-.314 1.981-.942ZM30.16 43.141a.22.22 0 0 1-.071-.151c0-.054.027-.108.077-.163a.474.474 0 0 1 .201-.124c.323-.092.541-.19.656-.303.114-.108.174-.298.174-.563v-6.252c0-.293-.054-.498-.163-.623-.11-.124-.333-.222-.666-.292-.192-.043-.29-.14-.29-.287 0-.065.027-.119.077-.157.049-.043.114-.06.202-.06.333 0 .677.017 1.037.044.459.016.78.027.956.027 1.233 0 2.309-.016 3.22-.043.285 0 .53-.017.727-.054.197-.038.311-.055.339-.055.081 0 .163.022.234.07.071.05.115.12.126.223.027.303.07.579.125.839.071.514.11.85.11 1.012a.377.377 0 0 1-.05.2c-.032.049-.076.076-.13.076a.262.262 0 0 1-.159-.06.558.558 0 0 1-.13-.173 9.395 9.395 0 0 0-.307-.698 1.243 1.243 0 0 0-.234-.33 1.721 1.721 0 0 0-.432-.314 1.25 1.25 0 0 0-.579-.125h-.873c-.23 0-.42.06-.568.174a.55.55 0 0 0-.224.46v2.522c0 .222.12.33.36.33h1.174c.213 0 .372-.07.475-.205.104-.136.213-.352.328-.645.071-.162.17-.248.29-.248.043 0 .087.032.125.086.038.06.05.135.044.227a11.88 11.88 0 0 0-.071 1.137c0 .395.016.774.054 1.137v.108c0 .184-.043.276-.136.276-.066 0-.131-.032-.191-.097a.529.529 0 0 1-.137-.233c-.082-.309-.18-.541-.29-.687a.506.506 0 0 0-.414-.222h-1.3c-.202 0-.305.103-.305.314v2.592c0 .25.054.428.158.536.104.109.278.163.519.163h1.228c.426 0 .76-.103 1.01-.314.268-.222.53-.585.786-1.1a.274.274 0 0 1 .262-.161c.093 0 .137.092.137.276 0 .162-.022.34-.07.535-.045.19-.121.444-.225.753l-.153.52c-.038.108-.147.162-.333.162l-.54-.016a302.964 302.964 0 0 0-3.997-.044c-.311 0-.65.017-1.01.044-.48.016-.808.027-.983.027a.244.244 0 0 1-.18-.07ZM42.014 42.774a.702.702 0 0 1-.317-.342c-.163-.427-.25-.985-.25-1.672 0-.19.005-.336.016-.438 0-.12.087-.18.262-.18.093 0 .158.012.19.033.04.022.072.07.11.147.224.714.54 1.282.956 1.715.414.428.895.645 1.435.645.399 0 .7-.13.912-.39.213-.26.317-.552.317-.872 0-.384-.115-.693-.344-.93-.23-.239-.639-.515-1.229-.84a10.66 10.66 0 0 1-1.244-.752 3.05 3.05 0 0 1-.797-.882c-.219-.363-.328-.79-.328-1.294 0-.53.147-.996.442-1.407.295-.407.694-.72 1.201-.942a4.09 4.09 0 0 1 1.66-.33c.333 0 .666.032 1.005.102.338.07.617.146.835.238.12.05.202.098.251.152a.947.947 0 0 1 .137.303c.093.368.136.92.136 1.662 0 .043-.021.087-.07.124a.297.297 0 0 1-.192.055.445.445 0 0 1-.224-.06.29.29 0 0 1-.125-.157c-.148-.558-.377-.985-.694-1.277a1.621 1.621 0 0 0-1.146-.439c-.82 0-1.229.39-1.229 1.164 0 .281.148.552.437.801.29.25.764.568 1.42.953.786.465 1.321.91 1.61 1.337.29.427.437.942.437 1.553 0 .942-.295 1.64-.89 2.1-.595.455-1.42.688-2.468.688-.851-.005-1.594-.195-2.222-.568ZM51.695 43.12c-.054-.043-.082-.087-.082-.146 0-.157.088-.254.262-.303.36-.07.6-.168.727-.282.125-.113.185-.308.185-.584V35.58c0-.292-.06-.498-.18-.617-.12-.12-.366-.222-.732-.303-.174-.044-.262-.146-.262-.303 0-.055.028-.103.082-.147a.255.255 0 0 1 .164-.06c.338 0 .699.017 1.081.044.497.016.83.027.994.027.175 0 .518-.01 1.037-.027.535-.016.907-.027 1.109-.027.147 0 .223.07.223.206 0 .081-.021.146-.06.184a.466.466 0 0 1-.202.103c-.377.108-.622.222-.731.34-.11.12-.164.315-.164.59v6.198c0 .255.06.444.18.558.12.114.36.222.72.325.093.027.16.06.203.103.043.043.06.102.06.184 0 .135-.077.205-.224.205-.202 0-.573-.01-1.108-.027a46.061 46.061 0 0 0-1.038-.027c-.164 0-.497.011-.993.027-.372.027-.727.044-1.082.044-.054.005-.109-.017-.169-.06ZM62.576 42.768a4.378 4.378 0 0 1-1.758-1.597c-.431-.687-.644-1.467-.644-2.343 0-.834.213-1.619.644-2.35.431-.736 1.043-1.326 1.84-1.77.797-.444 1.72-.666 2.774-.666.376 0 .857.05 1.43.152.579.103 1.027.217 1.349.341.175.076.278.195.306.368.109.747.163 1.305.163 1.662 0 .092-.021.162-.06.206a.235.235 0 0 1-.174.07c-.104 0-.18-.022-.235-.07a.653.653 0 0 1-.153-.206c-.24-.514-.48-.888-.72-1.126a2.243 2.243 0 0 0-.694-.47c-.257-.115-.579-.174-.967-.174-.628 0-1.168.168-1.616.498-.453.336-.791.78-1.015 1.331a4.752 4.752 0 0 0-.339 1.803c0 1.288.208 2.3.628 3.031.42.731 1.065 1.099 1.928 1.099.24 0 .502-.103.786-.303a.61.61 0 0 0 .213-.325c.049-.151.082-.325.087-.53.016-.309.027-.715.027-1.207 0-.239-.12-.401-.36-.493a6.204 6.204 0 0 0-.786-.249.674.674 0 0 1-.24-.125c-.072-.054-.104-.119-.104-.189 0-.065.027-.114.087-.152a.39.39 0 0 1 .213-.054c.35 0 .732.017 1.147.044.535.016.884.027 1.053.027.175 0 .465-.011.874-.027.426-.017.737-.027.94-.027.147 0 .223.07.223.205a.282.282 0 0 1-.06.19.413.413 0 0 1-.202.097c-.268.076-.453.157-.552.25-.103.091-.169.232-.207.427a4.99 4.99 0 0 0-.098 1.028v.466c0 .054.032.113.087.173l.104.103c.093.092.136.19.136.303a.3.3 0 0 1-.07.2c-.044.06-.12.092-.225.103-.065.01-.19.06-.387.152-.415.19-.852.357-1.316.492-.459.136-1 .206-1.616.206a5.362 5.362 0 0 1-2.44-.574ZM81.866 43.164c-.273-.163-.546-.406-.825-.731l-5.378-5.662c-.065-.092-.114-.135-.153-.135-.065 0-.098.086-.098.26 0 .665.017 1.423.044 2.262.01.33.016.704.027 1.126.011.422.017.86.017 1.315 0 .303.092.536.284.699.19.162.474.292.862.384.251.065.371.162.371.287 0 .065-.032.113-.103.151a.477.477 0 0 1-.23.055c-.294 0-.6-.011-.911-.028l-.677-.016c-.268 0-.53.006-.787.022a61.27 61.27 0 0 0-.496.032.451.451 0 0 1-.208-.06c-.076-.042-.11-.086-.11-.145 0-.076.028-.13.083-.174a.952.952 0 0 1 .25-.13c.416-.162.645-.535.694-1.11.191-2.029.29-3.826.29-5.385 0-.428-.104-.752-.311-.974-.208-.222-.514-.406-.918-.563-.251-.065-.371-.163-.371-.303 0-.147.12-.217.36-.217l1.054.027c1.108.027 1.693.043 1.758.043.12 0 .213.05.279.136l5.105 5.608c.092.108.158.162.19.162.072 0 .11-.065.11-.19v-1.44c0-1.423-.016-2.392-.044-2.906-.01-.255-.098-.444-.262-.563-.164-.12-.437-.227-.813-.33-.213-.054-.317-.152-.317-.287 0-.054.027-.103.087-.146a.329.329 0 0 1 .202-.06l.901.016c.12.011.311.017.568.017l.639-.017c.295-.016.573-.027.83-.027.104 0 .18.017.24.054.06.038.087.087.087.152 0 .146-.114.244-.344.287-.333.065-.567.157-.704.281-.137.125-.207.32-.207.585 0 .547-.033 1.591-.099 3.129a47.94 47.94 0 0 0-.07 2.165c0 .21.016.47.048.774.033.308.055.503.06.595.039.347.055.53.055.547 0 .45-.136.671-.398.671-.175-.005-.388-.081-.661-.243ZM.082 67.873a.22.22 0 0 1-.071-.151c0-.054.027-.108.076-.168a.472.472 0 0 1 .202-.124c.323-.093.54-.19.656-.304.114-.108.174-.297.174-.563v-6.252c0-.292-.054-.498-.164-.622-.109-.124-.333-.222-.666-.292C.1 59.353 0 59.256 0 59.11c0-.065.027-.12.076-.157.05-.044.12-.06.202-.06a12 12 0 0 1 1.109.054c.371.038.66.054.873.054.186 0 .454-.016.803-.054.442-.054.863-.08 1.261-.08 1.136 0 1.982.156 2.54.47.556.314.834.84.834 1.57 0 .276-.065.536-.202.79-.136.255-.316.471-.546.666a2.349 2.349 0 0 1-1.026.509c-.038.01-.055.032-.055.07 0 .038.017.06.055.07.644.12 1.185.336 1.616.66.431.32.65.84.65 1.549 0 .476-.077.866-.23 1.164-.152.303-.327.53-.524.687a3.965 3.965 0 0 1-.71.439c-.6.281-1.408.427-2.418.427-.23 0-.568-.01-1.01-.027a31.714 31.714 0 0 0-1.021-.027c-.306 0-.644.016-1.021.043-.459.017-.786.027-.967.027-.098-.01-.163-.037-.207-.08Zm4.51-5.126a1.47 1.47 0 0 0 .486-.287c.093-.092.18-.238.267-.444.088-.205.131-.47.131-.79 0-.6-.109-1.039-.327-1.31-.219-.27-.54-.406-.978-.406-.47 0-.704.195-.704.574v2.263c0 .146.06.265.175.352.114.086.235.13.366.13.223 0 .415-.028.584-.082Zm.377 4.147a1.72 1.72 0 0 0 .518-.65c.131-.276.191-.58.191-.92 0-.688-.207-1.196-.622-1.537a1.312 1.312 0 0 0-.388-.206 1.691 1.691 0 0 0-.595-.098.862.862 0 0 0-.415.109.349.349 0 0 0-.19.33v2.36c-.001.276.07.482.207.633.136.146.333.217.578.217.262 0 .503-.081.716-.238ZM19.164 67.803a3.868 3.868 0 0 1-1.109-1.012c-.333-.45-.628-.877-.884-1.289a12.754 12.754 0 0 1-.748-1.396c-.093-.2-.202-.336-.333-.411a.612.612 0 0 0-.333-.098c-.093 0-.137.092-.137.276v2.663c0 .276.077.466.23.574.153.108.436.211.851.303a.338.338 0 0 1 .202.098c.044.043.06.108.06.19 0 .134-.076.205-.223.205l-1.202-.027-1.119-.027c-.164 0-.497.01-.994.027-.37.027-.726.043-1.08.043a.29.29 0 0 1-.165-.06c-.054-.043-.081-.086-.081-.146 0-.157.087-.254.262-.303.36-.07.6-.168.726-.281.126-.114.186-.309.186-.585v-6.225c0-.292-.055-.498-.164-.622-.11-.125-.333-.222-.666-.293-.191-.043-.29-.14-.29-.286 0-.065.027-.12.077-.157.049-.044.12-.06.202-.06.333 0 .699.016 1.108.054.366.038.66.054.874.054.174 0 .431-.016.759-.054a9.23 9.23 0 0 1 1.228-.081c1.108 0 1.955.184 2.539.547.584.368.879.914.879 1.645 0 .558-.175 1.007-.524 1.348-.35.341-.781.59-1.289.736-.027.011-.043.033-.043.07 0 .038.01.07.027.098.459.687.884 1.277 1.272 1.78.388.504.764.927 1.136 1.278.284.265.584.433.89.51.31.07.682.107 1.113.107.137 0 .208.087.208.26 0 .612-.59.92-1.769.92-.71-.016-1.267-.135-1.676-.373Zm-1.971-5.142c.245-.309.366-.737.366-1.278 0-.639-.12-1.115-.36-1.418-.241-.309-.585-.46-1.038-.46a.432.432 0 0 0-.415.254c-.082.168-.126.504-.126 1.007v1.835c0 .346.164.52.486.52.48.005.846-.146 1.087-.46ZM25.793 67.711c0-.08.027-.146.076-.184a.737.737 0 0 1 .23-.119c.278-.07.513-.19.71-.34.196-.158.343-.337.436-.537a101.666 101.666 0 0 0 2.364-5.949c.11-.303.197-.573.262-.817.066-.244.104-.363.126-.363.399-.092.743-.19 1.038-.287.158-.054.305-.13.442-.221.136-.093.245-.18.316-.26a.482.482 0 0 1 .137-.054c.044 0 .082.032.11.097.065.135.114.265.152.384.573 1.846 1.201 3.811 1.895 5.895l.513 1.575c.13.422.497.715 1.108.877.104.038.18.07.23.108.049.038.076.098.076.179a.182.182 0 0 1-.077.152.3.3 0 0 1-.185.054c-.186 0-.552-.011-1.108-.027a54.35 54.35 0 0 0-1.19-.027c-.186 0-.536.01-1.054.027-.426.027-.814.043-1.163.043a.359.359 0 0 1-.208-.054.174.174 0 0 1-.082-.152c0-.157.104-.254.306-.303.322-.065.562-.146.71-.238a.457.457 0 0 0 .229-.406.82.82 0 0 0-.027-.222l-.432-1.591a.391.391 0 0 0-.076-.179c-.033-.038-.082-.054-.148-.054h-2.407c-.077 0-.126.016-.153.054a.7.7 0 0 0-.082.179l-.191.59c-.027.103-.071.232-.126.4a6.264 6.264 0 0 0-.136.439 1.16 1.16 0 0 0-.055.357c0 .173.066.309.202.406.131.097.371.184.71.265.202.043.306.146.306.303 0 .13-.099.19-.29.19-.213 0-.486-.011-.813-.027l-.748-.017c-.257 0-.513.017-.76.044-.081.01-.207.016-.37.027-.164.01-.312.01-.443.01-.24.006-.36-.075-.36-.227Zm5.433-3.789c.136 0 .207-.032.207-.097 0-.011-.01-.06-.027-.152l-.885-3.031c-.027-.092-.054-.135-.082-.135-.016 0-.043.043-.081.135l-1.065 3.031a.264.264 0 0 0-.027.108c0 .05.021.082.07.103a.384.384 0 0 0 .164.033h1.726v.005ZM47.818 67.895c-.273-.163-.546-.406-.824-.736l-5.378-5.662c-.066-.092-.115-.136-.153-.136-.066 0-.099.087-.099.26 0 .666.017 1.424.044 2.263.011.33.017.703.027 1.126.011.422.017.86.017 1.315 0 .303.093.536.284.698.19.163.475.293.862.385.252.064.372.162.372.286 0 .065-.033.114-.104.152a.477.477 0 0 1-.23.054c-.294 0-.6-.01-.911-.027l-.677-.016c-.268 0-.53.005-.787.021l-.496.033a.45.45 0 0 1-.208-.06c-.076-.043-.109-.086-.109-.146 0-.07.027-.13.082-.173a.952.952 0 0 1 .251-.13c.415-.162.644-.536.693-1.11.192-2.03.29-3.827.29-5.39 0-.428-.104-.753-.311-.975-.208-.222-.514-.406-.918-.563-.25-.065-.37-.168-.37-.303 0-.146.12-.222.36-.222l1.053.027c1.108.027 1.693.043 1.758.043a.32.32 0 0 1 .279.136l5.105 5.607c.093.109.158.163.19.163.072 0 .11-.065.11-.195v-1.44c0-1.424-.016-2.392-.044-2.907-.01-.254-.098-.444-.262-.563-.163-.119-.436-.227-.813-.33-.213-.054-.317-.151-.317-.287 0-.054.027-.103.087-.146a.33.33 0 0 1 .203-.06l.9.011c.12.011.312.017.568.017l.639-.017c.295-.016.573-.027.83-.027.104 0 .18.017.24.054.06.038.087.087.087.152 0 .146-.114.244-.343.287-.334.065-.568.157-.705.281-.136.125-.207.32-.207.585 0 .547-.033 1.591-.099 3.129-.043.898-.07 1.618-.07 2.165 0 .21.016.47.049.774.032.308.054.503.06.595.038.347.054.53.054.547 0 .45-.13.671-.398.671-.175.022-.388-.06-.661-.216ZM56.827 67.9l-.72-.026-.994.016c-.497.016-.857.027-1.081.027a.29.29 0 0 1-.164-.06c-.055-.043-.082-.086-.082-.146 0-.157.087-.254.262-.303.36-.07.6-.168.726-.281.126-.114.186-.309.186-.585v-6.225c0-.292-.06-.498-.18-.617s-.366-.222-.732-.303c-.175-.043-.262-.146-.262-.303 0-.054.027-.103.082-.146a.256.256 0 0 1 .164-.06c.338 0 .699.016 1.08.043.498.017.83.028.995.028.147 0 .562-.017 1.245-.055 1.015-.043 1.572-.07 1.676-.07.857 0 1.66.19 2.402.563a4.537 4.537 0 0 1 1.78 1.575c.442.677.666 1.445.666 2.3 0 .823-.191 1.592-.579 2.312-.387.72-.955 1.294-1.709 1.727-.753.433-1.643.65-2.675.65-.426.01-1.12-.017-2.086-.06Zm3.844-1.623c.442-.628.666-1.494.666-2.598 0-1.245-.235-2.23-.704-2.956-.47-.725-1.169-1.088-2.086-1.088-.47 0-.791.027-.966.076-.175.049-.262.178-.262.379v5.949c0 .422.109.72.327.904.219.184.563.276 1.043.276.88-.006 1.54-.314 1.982-.942ZM67.823 67.852c-.054-.043-.082-.087-.082-.146 0-.157.088-.255.262-.303.36-.07.6-.168.727-.282.125-.113.185-.308.185-.584v-6.225c0-.292-.06-.498-.18-.617-.12-.12-.366-.222-.732-.303-.174-.044-.262-.147-.262-.303 0-.055.028-.103.082-.147a.256.256 0 0 1 .164-.06c.338 0 .699.017 1.081.044.497.016.83.027.994.027.174 0 .518-.01 1.037-.027.535-.016.906-.027 1.108-.027.148 0 .224.07.224.206 0 .08-.022.146-.06.184a.466.466 0 0 1-.202.103c-.376.108-.622.222-.731.34-.11.12-.164.315-.164.59v6.198c0 .255.06.439.18.558.12.114.36.222.72.325.093.027.159.06.203.103.043.043.06.103.06.184 0 .135-.077.205-.224.205-.202 0-.573-.01-1.108-.027-.52-.016-.863-.027-1.038-.027-.164 0-.497.011-.994.027-.37.027-.726.044-1.08.044a.233.233 0 0 1-.17-.06ZM84.76 67.895c-.274-.163-.547-.406-.825-.736l-5.378-5.662c-.066-.092-.115-.136-.153-.136-.065 0-.098.087-.098.26 0 .666.016 1.424.044 2.263.01.33.016.703.027 1.126.01.422.016.86.016 1.315 0 .303.093.536.284.698.191.163.475.293.863.385.25.064.371.162.371.286 0 .065-.033.114-.104.152a.477.477 0 0 1-.229.054c-.295 0-.6-.01-.912-.027l-.677-.016c-.267 0-.53.005-.786.021l-.497.033a.45.45 0 0 1-.207-.06c-.077-.043-.11-.086-.11-.146 0-.07.028-.13.082-.173a.952.952 0 0 1 .251-.13c.415-.162.645-.536.694-1.11.19-2.03.29-3.827.29-5.39 0-.428-.105-.753-.312-.975-.208-.222-.513-.406-.917-.563-.251-.065-.371-.168-.371-.303 0-.146.12-.222.36-.222l1.054.027c1.108.027 1.692.043 1.758.043a.32.32 0 0 1 .278.136l5.105 5.607c.093.109.159.163.191.163.071 0 .11-.065.11-.195v-1.44c0-1.424-.017-2.392-.044-2.907-.011-.254-.099-.444-.262-.563-.164-.119-.437-.227-.814-.33-.213-.054-.317-.151-.317-.287 0-.054.028-.103.088-.146a.329.329 0 0 1 .202-.06l.9.011c.12.011.312.017.569.017l.638-.017c.295-.016.574-.027.83-.027.104 0 .18.017.24.054.06.038.088.087.088.152 0 .146-.115.244-.344.287-.333.065-.568.157-.704.281-.137.125-.208.32-.208.585 0 .547-.033 1.591-.098 3.129-.044.898-.071 1.618-.071 2.165 0 .21.016.47.049.774.033.308.055.503.06.595.038.347.055.53.055.547 0 .45-.131.671-.399.671-.175.022-.388-.06-.66-.216ZM93.266 67.494a4.38 4.38 0 0 1-1.759-1.597c-.43-.687-.644-1.466-.644-2.343 0-.834.213-1.613.644-2.35.432-.736 1.043-1.326 1.84-1.77.798-.444 1.72-.665 2.774-.665.377 0 .857.048 1.43.151.58.103 1.027.217 1.35.341.174.076.278.195.305.368.11.753.164 1.305.164 1.662 0 .092-.022.162-.06.206-.044.048-.099.07-.175.07-.104 0-.18-.022-.235-.07a.654.654 0 0 1-.153-.206c-.24-.514-.48-.888-.72-1.126a2.243 2.243 0 0 0-.694-.47c-.256-.114-.579-.174-.966-.174-.628 0-1.169.168-1.616.498a3.008 3.008 0 0 0-1.016 1.332 4.752 4.752 0 0 0-.338 1.802c0 1.288.207 2.3.628 3.031.42.731 1.064 1.1 1.927 1.1.24 0 .502-.104.786-.304a.61.61 0 0 0 .213-.325c.05-.151.082-.325.087-.53.017-.309.028-.715.028-1.207 0-.238-.12-.4-.36-.493a6.22 6.22 0 0 0-.787-.249.672.672 0 0 1-.24-.124.236.236 0 0 1-.104-.195c0-.065.028-.114.087-.152a.39.39 0 0 1 .213-.054c.35 0 .732.016 1.147.043.535.017.885.027 1.054.027.175 0 .464-.01.873-.027.426-.016.737-.027.94-.027.147 0 .223.07.223.206a.303.303 0 0 1-.06.195.408.408 0 0 1-.202.097c-.267.076-.453.157-.551.25-.104.091-.17.232-.208.421a4.983 4.983 0 0 0-.098 1.029v.466c0 .054.033.113.088.173l.103.103a.41.41 0 0 1 .137.303.31.31 0 0 1-.071.2c-.044.06-.12.092-.224.103a1.93 1.93 0 0 0-.388.151 9.69 9.69 0 0 1-1.316.493c-.458.135-.999.206-1.616.206-.884 0-1.703-.19-2.44-.569ZM42.265 49.588c.197.13.333.303.42.52v-.671h.825v3.231h-.825v-.676c-.082.216-.224.39-.42.525-.197.13-.431.194-.704.194-.273 0-.525-.064-.743-.2a1.322 1.322 0 0 1-.513-.574 1.947 1.947 0 0 1-.186-.882c0-.34.06-.633.186-.882.125-.25.295-.444.513-.574.218-.13.47-.2.743-.2.273-.006.507.06.704.19Zm-1.076.774c-.158.168-.234.395-.234.688 0 .292.076.52.234.687.159.168.366.25.623.25a.835.835 0 0 0 .622-.255c.164-.168.246-.395.246-.682 0-.287-.082-.514-.246-.688a.835.835 0 0 0-.622-.254c-.257.005-.464.087-.623.254ZM50.046 49.756c.224.243.333.59.333 1.034v1.878h-.825v-1.786c0-.255-.065-.455-.202-.601-.13-.14-.316-.211-.546-.211-.234 0-.425.076-.562.227-.142.152-.213.368-.213.655v1.716h-.83v-3.231h.83v.65c.087-.217.23-.39.426-.51.197-.124.426-.184.688-.184.377-.005.677.12.9.363ZM56.035 49.588c.197.13.334.303.42.52v-1.76h.825v4.32h-.824v-.676c-.088.216-.224.39-.42.525-.197.13-.432.194-.705.194-.273 0-.524-.064-.742-.2a1.322 1.322 0 0 1-.514-.574 1.947 1.947 0 0 1-.185-.882c0-.34.06-.633.185-.882.126-.25.295-.444.514-.574.218-.13.47-.2.742-.2.273-.006.508.06.704.19Zm-1.07.774c-.158.168-.235.395-.235.688 0 .292.077.52.235.687.159.168.366.25.623.25a.835.835 0 0 0 .622-.255c.164-.168.246-.395.246-.682 0-.287-.082-.514-.246-.688a.835.835 0 0 0-.622-.254c-.257.005-.464.087-.623.254ZM9.768 25.712l-.393.66-3.145.141 2.26 1.332-.392.66-3.326-1.96.394-.66 3.166-.13-2.282-1.342.393-.66 3.325 1.959ZM12.804 20.364l-.977 1.196.43.698-.512.628L9.67 19.4l.557-.676 3.865 1.299-.513.628-.775-.287Zm-.59-.206-1.627-.58.906 1.457.721-.877ZM15.753 12.954l.42.444-.78.725 2.227 2.35-.562.524-2.227-2.354-.776.72-.42-.444 2.118-1.965ZM19.444 10.004l1.316 1.83c.175.243.36.389.557.432.197.043.399-.005.6-.152.203-.14.312-.313.334-.514.021-.2-.06-.422-.235-.665L20.7 9.104l.623-.444 1.315 1.83c.208.287.328.574.366.85.033.276-.01.53-.13.763-.121.232-.307.438-.547.606-.377.265-.759.368-1.147.303-.387-.065-.736-.314-1.048-.747l-1.316-1.83.628-.432ZM28.55 8.943l-1.501-.91-.3.158.699 1.326-.683.357-1.796-3.4 1.305-.676c.398-.206.753-.27 1.064-.184.312.087.546.282.716.6.136.255.174.51.125.759-.054.249-.202.47-.442.67l1.572.916-.759.384ZM26.503 7.72l.562-.293c.393-.2.497-.476.317-.817-.087-.162-.202-.265-.344-.309-.142-.043-.317-.01-.519.092l-.562.293.546 1.034ZM34.518 5.625l-1.464.514.006.817-.77.27.06-4.043.83-.292 2.62 3.102-.77.27-.512-.638Zm-.393-.482-1.087-1.337.011 1.716 1.076-.38ZM39.782 4.38l1.272-.271.125.574-2.025.427-.808-3.75.753-.163.683 3.183ZM51.548 3.887l-.58-.693c-.032.07-.054.13-.081.168a.82.82 0 0 1-.35.395c-.163.098-.36.146-.578.14a1.328 1.328 0 0 1-.639-.162 1.082 1.082 0 0 1-.42-.422 1.164 1.164 0 0 1-.137-.6 1.28 1.28 0 0 1 .137-.58.973.973 0 0 1 .355-.384.981.981 0 0 1 .496-.14l-.065-.098a1.508 1.508 0 0 1-.164-.303.922.922 0 0 1-.054-.336c0-.157.043-.303.13-.433a.873.873 0 0 1 .372-.325c.164-.081.36-.119.584-.113.328.005.573.08.748.227a.982.982 0 0 1 .333.563c.033.108.05.227.05.346l-.006.103-.715-.01c0-.093 0-.152-.006-.185a.434.434 0 0 0-.104-.303.389.389 0 0 0-.29-.108c-.114 0-.201.027-.267.092a.344.344 0 0 0-.103.238c0 .081.016.157.043.217.033.06.088.14.159.232l1.927 2.485-.775-.011Zm-1.185-.763a.491.491 0 0 0 .158-.368.545.545 0 0 0-.164-.4.572.572 0 0 0-.404-.163.544.544 0 0 0-.37.13c-.1.086-.148.216-.154.384 0 .168.05.303.153.4a.57.57 0 0 0 .393.158c.159 0 .29-.05.388-.141ZM64.018 1.884l-.923 3.724-.753-.184.398-1.618-1.605-.39-.399 1.619-.748-.184.923-3.725.748.185-.371 1.51 1.605.39.371-1.51.754.183ZM68.572 4.044l-.366.925 1.272.498-.218.547-1.273-.498-.382.958 1.425.558-.229.568-2.146-.839 1.42-3.567 2.146.839-.224.568-1.425-.557ZM74.518 9.587l-1.354-.752-.617.54-.71-.394 3.112-2.62.77.427-.628 3.995-.71-.395.137-.801Zm.103-.606.3-1.69-1.293 1.138.993.552ZM78.929 12.694l1.043.769-.355.47-1.66-1.228 2.31-3.075.622.46-1.96 2.604ZM86.895 15.222l-.426.438-.775-.73-2.25 2.333-.556-.53 2.25-2.334-.77-.725.425-.439 2.102 1.987ZM91.596 20.618l-3.024 2.393-.486-.601 1.316-1.04-1.032-1.282-1.316 1.04-.48-.602 3.024-2.392.48.6-1.222.97 1.031 1.282 1.223-.969.486.601ZM95.604 26.8l-2.834.146-1.168.682-.393-.665 1.168-.682 1.502-2.387.448.757-1.043 1.554 1.878-.152.442.747ZM12.137 78.022c.033.336-.022.655-.17.97a2.107 2.107 0 0 1-.682.795 2.114 2.114 0 0 1-.983.384 1.825 1.825 0 0 1-.977-.157 1.935 1.935 0 0 1-.775-.65 1.94 1.94 0 0 1-.366-.936 1.813 1.813 0 0 1 .17-.969c.147-.308.376-.573.687-.795.311-.217.639-.347.977-.385.345-.038.672.017.978.157.306.141.568.357.775.65.208.287.333.6.366.936Zm-1.42-.925a1.052 1.052 0 0 0-.595-.07c-.213.032-.42.118-.633.27-.208.146-.36.314-.464.503-.098.19-.142.38-.126.58.017.2.088.39.224.568.131.184.29.314.47.395.185.081.382.103.595.07.213-.032.42-.124.633-.27.208-.146.36-.314.464-.504.098-.19.142-.379.126-.579a1.06 1.06 0 0 0-.224-.568 1.123 1.123 0 0 0-.47-.395ZM13.425 85.135l.48-1.678-.234-.244-1.097 1.023-.53-.558 2.817-2.625 1.01 1.067c.306.324.464.644.464.963 0 .32-.125.6-.387.844-.213.2-.448.304-.705.325-.256.017-.513-.065-.77-.238l-.464 1.743-.584-.622Zm.634-2.285.437.46c.3.32.595.347.878.082a.58.58 0 0 0 .208-.412c0-.146-.077-.303-.23-.465l-.436-.46-.857.795ZM21.146 87.284c.092.374.049.736-.131 1.099l-.628-.509a.953.953 0 0 0-.017-.552 1.058 1.058 0 0 0-.36-.487 1.181 1.181 0 0 0-.557-.255c-.197-.027-.393 0-.584.087a1.494 1.494 0 0 0-.535.428c-.257.314-.372.622-.344.93.027.31.185.585.475.818.213.173.453.26.71.26.256 0 .502-.098.731-.287l-1.015-.817.35-.428 1.517 1.223-.47.574a1.804 1.804 0 0 1-.693.341 1.72 1.72 0 0 1-.813.005 1.871 1.871 0 0 1-.809-.406 1.95 1.95 0 0 1-.622-.822 1.683 1.683 0 0 1-.082-.958c.066-.33.219-.64.459-.937.24-.292.518-.509.83-.638.31-.13.633-.168.96-.12.328.05.645.195.94.433.366.314.595.645.688 1.018ZM24.836 93.06l-1.326-.796-.64.52-.698-.417 3.2-2.512.753.455-.765 3.973-.698-.417.174-.807Zm.126-.607.36-1.678-1.332 1.094.972.584ZM31.498 97.135l-.71-.303-.552-3.074-1.037 2.398-.71-.304 1.529-3.523.71.303.54 3.096 1.049-2.414.71.303-1.53 3.518ZM36.876 94.884l-1.113 3.67-.738-.222 1.114-3.67.737.222ZM42.877 96.55c.267.298.414.666.442 1.1l-.797-.141a1.06 1.06 0 0 0-.3-.553 1.118 1.118 0 0 0-.596-.287 1.026 1.026 0 0 0-.573.055.974.974 0 0 0-.453.362 1.452 1.452 0 0 0-.251.628c-.044.244-.039.471.016.671.055.2.158.368.3.493.142.124.317.211.519.249.246.043.464.022.66-.065.197-.087.355-.222.476-.411l.797.14a1.73 1.73 0 0 1-.797.877c-.355.19-.776.238-1.245.152-.366-.065-.672-.2-.918-.417a1.651 1.651 0 0 1-.524-.796 2.182 2.182 0 0 1-.049-1.034c.066-.373.202-.692.41-.958.207-.265.464-.454.77-.568a1.905 1.905 0 0 1 1.01-.07c.464.086.835.276 1.103.573ZM51.344 99.148l.05 1.424-.77.027-.137-3.832 1.409-.049c.459-.016.803.081 1.043.292.24.211.366.498.377.872.01.368-.099.66-.328.887-.23.228-.568.347-1.01.363l-.634.016Zm1.19-1.245c-.005-.189-.065-.335-.174-.433-.11-.097-.284-.14-.524-.135l-.552.022.044 1.18.552-.022c.453-.016.671-.216.655-.612ZM58.94 99.831l-1.13-1.332-.334.055.24 1.477-.764.119-.617-3.789 1.458-.233c.442-.07.797-.016 1.065.163.267.178.43.444.485.79.05.287.006.536-.125.758-.131.216-.339.384-.634.498l1.196 1.359-.84.135Zm-1.551-1.797.628-.103c.436-.07.622-.298.562-.677a.554.554 0 0 0-.23-.4c-.12-.087-.294-.108-.518-.076l-.628.097.186 1.159ZM64.875 94.63c.327.075.622.232.873.465.252.238.432.535.541.898.11.363.131.71.055 1.045-.077.336-.23.628-.46.871a1.991 1.991 0 0 1-.867.525c-.344.103-.683.12-1.016.044a1.84 1.84 0 0 1-.873-.471 2.006 2.006 0 0 1-.54-.899 2.016 2.016 0 0 1-.055-1.044c.076-.336.229-.623.458-.872a2.023 2.023 0 0 1 1.884-.563Zm-1.332 1.033a1.03 1.03 0 0 0-.257.536c-.038.211-.016.433.055.677.076.243.185.438.333.595.147.151.322.254.513.303.197.049.398.038.617-.027.218-.065.393-.173.524-.32a1.03 1.03 0 0 0 .257-.535 1.461 1.461 0 0 0-.055-.677 1.505 1.505 0 0 0-.333-.595 1.089 1.089 0 0 0-.513-.303 1.149 1.149 0 0 0-.617.027 1.19 1.19 0 0 0-.524.319ZM72.752 94.336c-.022.33-.137.634-.344.904-.207.276-.502.498-.88.677l-1.244.58-1.643-3.47 1.244-.58c.383-.178.743-.26 1.087-.243.344.016.65.119.917.308.268.195.486.466.65.812.164.341.235.682.213 1.012Zm-.84.287c.114-.292.087-.617-.083-.969-.169-.357-.404-.584-.704-.687-.3-.103-.639-.065-1.016.114l-.486.227 1.065 2.246.486-.227c.377-.173.622-.411.737-.704ZM75.069 89.67l1.233 1.89c.164.254.344.406.541.46.197.054.399.01.606-.124.207-.136.328-.298.355-.499.027-.2-.038-.422-.202-.676l-1.234-1.89.644-.416 1.234 1.89c.197.297.306.584.328.86.022.276-.033.53-.164.758a1.727 1.727 0 0 1-.573.584c-.388.25-.776.336-1.158.255-.382-.082-.72-.347-1.015-.79l-1.234-1.89.638-.411ZM82.046 84.848c.404-.021.781.098 1.141.352l-.611.525a1.036 1.036 0 0 0-.617-.114c-.213.027-.415.12-.6.276a.996.996 0 0 0-.317.477c-.055.184-.06.373-.006.579.055.2.17.4.333.59.164.19.344.325.535.406.191.081.388.108.58.081.19-.032.365-.114.518-.243.185-.163.311-.347.366-.552.054-.206.049-.412-.028-.623l.612-.525c.202.39.262.774.185 1.17-.076.394-.3.746-.666 1.055-.278.238-.578.39-.9.449a1.71 1.71 0 0 1-.956-.098 2.208 2.208 0 0 1-.84-.611 2.213 2.213 0 0 1-.498-.92 1.688 1.688 0 0 1 .038-.948c.104-.308.295-.579.58-.822.365-.32.747-.482 1.151-.504ZM86.255 80.025l.46.406-.71.79 2.429 2.15-.513.573-2.43-2.144-.704.785-.459-.406 1.927-2.154ZM92.294 77.535c.082.173.11.368.077.585-.028.216-.12.432-.279.66a1.865 1.865 0 0 1-.535.52c-.202.124-.41.189-.628.194a1.154 1.154 0 0 1-.628-.167l.47-.672a.608.608 0 0 0 .431.065.567.567 0 0 0 .372-.26c.092-.13.125-.254.103-.373a.446.446 0 0 0-.196-.292.437.437 0 0 0-.306-.087.742.742 0 0 0-.306.108c-.098.06-.23.147-.387.266a4.148 4.148 0 0 1-.535.346 1.061 1.061 0 0 1-.503.124c-.186.006-.377-.064-.573-.2-.273-.19-.42-.433-.442-.736-.022-.303.081-.617.305-.936.235-.336.503-.542.803-.628.3-.087.595-.049.884.108l-.475.677a.588.588 0 0 0-.382-.05.562.562 0 0 0-.333.24.506.506 0 0 0-.103.346c.01.113.076.21.19.292a.388.388 0 0 0 .29.076.825.825 0 0 0 .3-.103c.099-.06.224-.141.371-.255.214-.151.4-.27.547-.352.152-.08.322-.124.507-.13.191 0 .388.066.59.206.17.114.29.255.371.428ZM64.618 80.29c-.704-.503-1.594-.584-2.287-.595-2.48-.043-4.865.585-7.18 1.24 1.774-1.342 3.26-3.096 3.947-4.796.077-.184.268-.671.006-1.11-.164-.27-.464-.449-.852-.498-1.037-.14-1.905.493-2.62 1.126-2.185 1.927-4.09 4.152-5.93 6.328a.51.51 0 0 0-.377.043 19.419 19.419 0 0 1-3.724-.314 5.655 5.655 0 0 0 1.289-.487c1-.53 1.905-1.337 2.85-2.55.579-.74 1.37-1.883 1.589-3.214.093-.569-.077-1.013-.453-1.218-.35-.195-.72-.092-.874-.05-1.91.526-3.374 1.96-4.433 3.146-.262.298-.524.595-.781.898-.824.959-1.61 1.862-2.555 2.593-2.299-.758-4.428-1.77-6.29-2.722a.517.517 0 0 0-.694.216.508.508 0 0 0 .219.688c1.954 1 4.193 2.062 6.628 2.847.415.135.836.26 1.256.373l.246.86c.764 2.67 1.556 5.43 3.063 7.839.087.14.35.557.83.557h.022c.207-.005.595-.103.835-.682.53-1.266.486-2.804-.12-4.325-.524-1.32-1.404-2.479-2.272-3.529-.049-.06-.098-.114-.147-.173 1.097.178 2.173.27 3.221.27.11 0 .219-.01.328-.016 1.043 1.321 2.359 2.56 4.128 3.881 1.386 1.04 3.063 2.117 4.985 2.247h.032a.51.51 0 0 0 .432-.233.495.495 0 0 0 .016-.52c-1.485-2.68-4.008-4.698-6.929-5.624a14.762 14.762 0 0 0 2.654-.741c.933.249 3.03.73 5.214.73.524 0 1.06-.027 1.578-.097 1.676-.216 2.752-.785 3.287-1.737a.479.479 0 0 0-.137-.65Zm-19.05-1.385c.257-.297.509-.595.77-.888.967-1.082 2.288-2.387 3.937-2.841a.657.657 0 0 0 .055-.017c0 .038 0 .082-.011.141-.137.85-.563 1.7-1.387 2.75-.852 1.093-1.654 1.813-2.517 2.273-.852.455-1.769.618-2.582.477.622-.601 1.184-1.256 1.736-1.895Zm1.715 7.952c.486 1.218.546 2.425.186 3.42-1.349-2.213-2.102-4.784-2.823-7.29.18.189.355.395.53.606.939 1.147 1.66 2.143 2.107 3.264Zm9.03-10.442c.547-.482 1.18-.958 1.803-.877.043.006.076.017.092.011a.761.761 0 0 1-.065.206c-.994 2.452-3.975 5.131-6.792 6.111a3.48 3.48 0 0 1-.235.027c1.627-1.9 3.314-3.81 5.198-5.478Zm1.158 11.54c-1.234-.351-2.375-1.109-3.357-1.85-1.147-.861-2.097-1.679-2.9-2.507a11.348 11.348 0 0 1 6.257 4.358Zm3.877-6.278c-1.229.157-2.785.086-4.4-.179 1.757-.46 3.543-.817 5.36-.785.4.006.836.038 1.224.163-.442.405-1.163.665-2.184.8ZM64.11 21.062c-2.288-1.169-4.963-2.425-7.89-3.226l-.246-.855c-.764-2.669-1.556-5.43-3.063-7.844-.087-.14-.355-.579-.857-.557-.207.005-.595.103-.835.682-.53 1.266-.486 2.804.12 4.325.524 1.32 1.403 2.479 2.271 3.53.05.059.104.118.153.178a20.064 20.064 0 0 0-3.554-.266c-1.043-1.32-2.359-2.56-4.128-3.88-1.387-1.04-3.063-2.117-4.985-2.247a.514.514 0 0 0-.47.233.495.495 0 0 0-.016.52c1.485 2.684 4.013 4.703 6.94 5.629a14.8 14.8 0 0 0-2.67.736c-1.163-.308-4.117-.98-6.781-.633-1.676.216-2.752.785-3.287 1.737a.51.51 0 0 0 .147.66c.705.504 1.594.585 2.288.596h.257c2.386 0 4.69-.611 6.923-1.24-1.775 1.343-3.26 3.097-3.948 4.796-.076.184-.267.672-.005 1.11.164.27.464.45.852.498.098.01.19.022.289.022.906 0 1.681-.574 2.337-1.148 2.184-1.927 4.09-4.157 5.93-6.333.043.01.087.032.13.032.088 0 .17-.027.246-.07a19.352 19.352 0 0 1 3.718.314 5.66 5.66 0 0 0-1.288.487c-1 .53-1.906 1.337-2.85 2.55-.58.741-1.37 1.884-1.59 3.215-.092.568.077 1.012.46 1.223a.927.927 0 0 0 .458.114c.18 0 .333-.043.42-.065 1.906-.525 3.37-1.96 4.434-3.145.262-.297.524-.595.78-.898.825-.958 1.611-1.862 2.556-2.593 2.298.758 4.428 1.77 6.29 2.723a.523.523 0 0 0 .693-.222.515.515 0 0 0-.23-.688Zm-22.004-8.937c1.234.352 2.375 1.11 3.358 1.852 1.147.86 2.097 1.678 2.9 2.506-2.496-.671-4.773-2.257-6.258-4.358Zm-4.837 7.243c-.399-.005-.836-.038-1.223-.162.447-.406 1.163-.672 2.184-.802 1.228-.157 2.784-.086 4.4.179-1.763.46-3.543.828-5.361.785Zm5.995 4.292c-.546.482-1.18.959-1.802.877-.044-.005-.077-.016-.093-.01a.759.759 0 0 1 .066-.206c.993-2.452 3.974-5.132 6.792-6.112a3.48 3.48 0 0 1 .235-.026c-1.628 1.905-3.315 3.816-5.198 5.477ZM52.3 13.22c-.486-1.218-.546-2.425-.186-3.421 1.354 2.214 2.108 4.785 2.823 7.291-.18-.19-.355-.395-.53-.606-.944-1.148-1.66-2.138-2.107-3.264Zm1.714 7.957c-.256.298-.507.595-.77.882-.966 1.083-2.293 2.387-3.936 2.842-.022.005-.038.01-.055.016 0-.038 0-.081.011-.14.137-.85.563-1.7 1.387-2.75.852-1.094 1.654-1.814 2.517-2.274.66-.346 1.349-.525 2.004-.525.196 0 .388.016.573.049-.617.6-1.185 1.256-1.73 1.9Z" fill="#7D7D7D"/></svg>