<svg width="120" height="111" fill="none" xmlns="http://www.w3.org/2000/svg"><path d="m2.823 37.95 1.381.379-.207.736-3.73-1.023.377-1.348c.12-.433.317-.736.59-.898.273-.163.59-.195.955-.098.355.098.607.293.754.574.147.287.164.639.044 1.061l-.164.617Zm-.841-1.5a.596.596 0 0 0-.47.033c-.125.076-.223.228-.283.455l-.148.53 1.147.314.147-.53c.115-.428-.01-.698-.393-.801ZM2.67 30.881l2.08.899c.278.119.513.146.704.086.19-.06.338-.206.436-.433.099-.227.104-.427.022-.611-.087-.184-.267-.33-.546-.455l-2.08-.899.306-.698 2.08.899c.328.14.579.319.753.54.175.223.268.461.284.72.017.26-.032.531-.152.802-.186.422-.46.704-.825.844-.366.141-.792.109-1.288-.103l-2.08-.898.305-.693ZM9.938 25.333l-1.759-.022-.18.287 1.283.785-.404.65-3.292-2.009.775-1.245c.235-.379.508-.612.82-.698.31-.087.616-.033.922.151.251.152.415.347.497.59.082.239.07.51-.033.802l1.824-.011-.453.72Zm-2.386-.011.333-.536c.229-.374.18-.66-.153-.866a.595.595 0 0 0-.453-.092c-.148.038-.279.151-.4.34l-.332.537 1.005.617ZM10.445 19.113l.776.628.868-1.05.458.373-.868 1.05.808.655.972-1.18.48.39-1.457 1.77-2.998-2.425 1.458-1.77.475.384-.972 1.175ZM22.15 12.51l-.61.47-2.982-1.006 1.61 2.062-.61.471-2.37-3.031.611-.471 2.992 1.023-1.627-2.079.611-.47 2.376 3.03ZM26.95 8.655l-1.354.753.142.806-.715.395-.623-4 .77-.427 3.107 2.625-.715.395-.612-.547Zm-.47-.406-1.293-1.136.3 1.689.994-.553ZM32.486 2.863l.224.569-.993.384 1.179 3.01-.72.276-1.18-3.01-.994.379-.224-.568 2.708-1.04ZM37.03 1.51l.523 2.187c.071.293.186.498.35.612.163.114.37.146.617.087.24-.054.41-.174.502-.352.093-.179.11-.412.038-.704l-.519-2.187.748-.173.525 2.187c.081.346.087.655.016.92a1.24 1.24 0 0 1-.415.655 1.735 1.735 0 0 1-.737.357c-.453.103-.846.054-1.18-.146-.332-.206-.562-.568-.687-1.082l-.519-2.187.737-.174ZM45.868 3.957 44.831 2.55l-.339.032.137 1.489-.77.07L43.51.32l1.47-.13c.447-.038.797.038 1.053.232.257.195.399.471.432.823a1.11 1.11 0 0 1-.175.747c-.142.211-.366.363-.666.45l1.103 1.44-.858.075Zm-1.425-1.9.634-.054c.442-.038.644-.254.606-.639-.017-.184-.082-.325-.202-.417-.115-.092-.29-.13-.513-.108l-.634.06.11 1.158ZM51.18.633l-.043.996 1.37.054-.021.585-1.37-.054-.044 1.034 1.534.065-.028.611-2.304-.092L50.433 0l2.304.092-.028.606-1.528-.065ZM96.024 34.378a.507.507 0 0 1-.486-.346C90.422 19.254 78.339 7.817 63.22 3.443a.509.509 0 0 1-.35-.633.52.52 0 0 1 .64-.347C78.95 6.93 91.284 18.61 96.51 33.701a.51.51 0 0 1-.486.677ZM23.33 35.79a1.067 1.067 0 0 1-.437.395 1.554 1.554 0 0 1-.704.152c-.273 0-.519-.049-.732-.14a1.171 1.171 0 0 1-.743-1.007h.825a.602.602 0 0 0 .622.547.508.508 0 0 0 .372-.13.443.443 0 0 0 .131-.33.431.431 0 0 0-.104-.299.857.857 0 0 0-.262-.19 3.863 3.863 0 0 0-.437-.161 4.092 4.092 0 0 1-.59-.239 1.068 1.068 0 0 1-.392-.34c-.11-.147-.164-.342-.164-.58 0-.33.12-.59.36-.78.24-.189.557-.286.95-.286.41 0 .737.097.978.292.245.195.382.455.415.785h-.836a.606.606 0 0 0-.175-.341.552.552 0 0 0-.387-.135.506.506 0 0 0-.344.113c-.088.076-.131.184-.131.325 0 .114.032.206.103.282a.758.758 0 0 0 .257.184c.104.048.246.097.426.157.251.086.448.167.606.243.153.076.29.19.399.341.109.152.163.352.163.596a1.26 1.26 0 0 1-.169.546ZM30.734 32.461v.607h-1.07v3.226h-.77v-3.226h-1.065v-.607h2.905ZM38.333 32.461l-1.31 2.496v1.342h-.776v-1.342l-1.315-2.496h.89l.824 1.678.825-1.678h.862ZM43.58 35.71h1.3v.584h-2.07v-3.838h.776v3.253h-.006ZM50.166 33.068v.996h1.37v.584h-1.37v1.034h1.535v.612h-2.304v-3.838H51.7v.606h-1.535v.006ZM30.974 54.335c-.322-.19-.65-.481-.983-.877l-6.42-6.755c-.077-.108-.137-.162-.18-.162-.077 0-.116.103-.116.308 0 .796.017 1.695.05 2.701l.032 1.343c.011.503.017 1.023.017 1.57 0 .362.114.638.338.833.224.195.568.352 1.032.46.295.076.448.19.448.347 0 .075-.044.135-.126.178a.58.58 0 0 1-.273.065c-.355 0-.715-.01-1.086-.032l-.808-.017c-.317 0-.634.006-.94.028-.305.016-.507.032-.595.043a.514.514 0 0 1-.245-.076c-.088-.049-.131-.108-.131-.173 0-.087.032-.157.098-.206.066-.048.164-.103.295-.157.497-.195.77-.639.824-1.326.23-2.42.344-4.563.344-6.43 0-.515-.125-.9-.371-1.164-.246-.26-.611-.487-1.098-.672-.294-.075-.447-.194-.447-.362 0-.173.142-.26.431-.26l1.256.032c1.321.033 2.02.05 2.096.05.142 0 .252.053.328.162l6.088 6.69c.11.13.186.195.23.195.087 0 .13-.076.13-.227v-1.716c0-1.7-.016-2.858-.049-3.47-.01-.303-.114-.53-.311-.671-.197-.141-.524-.271-.972-.396-.251-.064-.382-.178-.382-.34 0-.065.033-.125.11-.174a.421.421 0 0 1 .24-.075l1.07.016c.141.01.37.016.677.016l.758-.016c.35-.022.683-.033.989-.033.12 0 .218.022.29.065.07.044.108.103.108.179 0 .173-.136.287-.415.34-.398.077-.677.19-.84.337-.164.146-.246.378-.246.692 0 .655-.038 1.9-.115 3.73a52.987 52.987 0 0 0-.082 2.587c0 .25.017.558.06.926.038.368.066.6.077.709.043.417.065.633.065.655 0 .536-.158.801-.48.801-.186.016-.442-.081-.77-.27ZM36.86 54.113c0-.097.032-.173.092-.222a.964.964 0 0 1 .273-.14c.328-.087.612-.222.852-.412.235-.184.41-.4.519-.639a121.041 121.041 0 0 0 2.822-7.102c.131-.362.235-.681.312-.974.076-.287.125-.433.147-.433.475-.108.884-.222 1.24-.34.185-.066.365-.152.529-.26.164-.109.29-.212.382-.31a.58.58 0 0 1 .164-.064c.055 0 .098.038.131.114.077.162.137.313.18.46a384.357 384.357 0 0 0 2.26 7.036l.612 1.884c.153.504.595.85 1.322 1.045.12.043.212.086.272.13.06.043.093.113.093.21a.21.21 0 0 1-.093.18.376.376 0 0 1-.223.064c-.219 0-.661-.01-1.322-.032a53.368 53.368 0 0 0-1.42-.033c-.218 0-.638.011-1.255.033-.508.032-.967.049-1.387.049a.436.436 0 0 1-.246-.065.203.203 0 0 1-.098-.179c0-.184.12-.303.366-.363.388-.075.666-.173.852-.286a.543.543 0 0 0 .273-.482.837.837 0 0 0-.033-.26l-.513-1.9a.48.48 0 0 0-.093-.211c-.038-.043-.098-.065-.175-.065h-2.872c-.087 0-.147.022-.18.065a.776.776 0 0 0-.098.211l-.23.704c-.032.119-.081.276-.147.476-.065.195-.12.373-.164.525-.043.14-.065.282-.065.428 0 .205.082.368.24.481.158.114.442.222.852.32.24.054.366.173.366.362 0 .152-.115.228-.35.228-.251 0-.579-.011-.972-.033l-.89-.016c-.306 0-.611.016-.906.049a8.67 8.67 0 0 1-.448.032c-.196.011-.377.017-.53.017-.3-.006-.442-.098-.442-.282Zm6.486-4.514c.164 0 .245-.038.245-.114 0-.01-.01-.07-.032-.179l-1.054-3.615c-.033-.109-.066-.163-.098-.163-.022 0-.055.054-.099.163l-1.272 3.615a.286.286 0 0 0-.033.13c0 .054.028.098.082.125a.44.44 0 0 0 .197.043h2.064V49.6ZM95.155 54.113c0-.097.033-.173.093-.222a.965.965 0 0 1 .273-.14c.328-.087.612-.222.852-.412.235-.184.41-.4.518-.639a120.971 120.971 0 0 0 2.823-7.102c.131-.362.235-.681.312-.974.076-.287.125-.433.147-.433a12.95 12.95 0 0 0 1.239-.34 2.396 2.396 0 0 0 .912-.57.584.584 0 0 1 .164-.064c.055 0 .098.038.131.114.076.162.136.313.18.46a383.803 383.803 0 0 0 2.261 7.036l.611 1.884c.153.504.595.85 1.321 1.045.12.043.213.086.273.13.06.043.093.113.093.21a.21.21 0 0 1-.093.18.375.375 0 0 1-.223.064c-.219 0-.661-.01-1.322-.032a53.303 53.303 0 0 0-1.419-.033c-.219 0-.639.011-1.256.033a21.8 21.8 0 0 1-1.387.049.44.44 0 0 1-.246-.065.204.204 0 0 1-.098-.179c0-.184.12-.303.366-.363.388-.075.666-.173.852-.286a.544.544 0 0 0 .273-.482.833.833 0 0 0-.033-.26l-.513-1.9a.484.484 0 0 0-.093-.211c-.038-.043-.098-.065-.175-.065h-2.872c-.087 0-.147.022-.18.065a.776.776 0 0 0-.098.211l-.23.704c-.032.119-.082.276-.147.476-.066.195-.12.373-.164.525-.043.14-.065.282-.065.428 0 .205.082.368.24.481.158.114.442.222.852.32.24.054.365.173.365.362 0 .152-.114.228-.349.228-.251 0-.579-.011-.972-.033l-.89-.016c-.306 0-.611.016-.906.049a8.68 8.68 0 0 1-.448.032 9.86 9.86 0 0 1-.53.017c-.3-.006-.442-.098-.442-.282Zm6.481-4.514c.164 0 .246-.038.246-.114 0-.01-.011-.07-.033-.179l-1.054-3.615c-.032-.109-.065-.163-.098-.163-.022 0-.054.054-.098.163l-1.272 3.615a.286.286 0 0 0-.033.13c0 .054.027.098.082.125a.44.44 0 0 0 .196.043h2.064V49.6ZM53.79 54.286c-.076-.049-.114-.108-.114-.173 0-.184.12-.303.366-.363.442-.097.742-.216.917-.352.17-.135.257-.362.257-.676v-6.837c0-.568-.022-.93-.06-1.088-.038-.157-.104-.265-.191-.32-.131-.075-.355-.113-.677-.113h-.279c-.35 0-.693.092-1.02.27-.328.18-.601.407-.809.678-.186.248-.355.46-.513.622-.153.162-.3.244-.448.244-.175 0-.262-.098-.262-.293 0-.14.038-.287.115-.444.229-.46.398-.839.497-1.136.098-.298.163-.64.196-1.023.033-.282.175-.428.431-.428.066 0 .164.087.295.26.088.13.175.227.262.292.099.076.279.14.535.19.257.048.475.075.65.075l6.306-.016c.23 0 .443-.027.628-.076.186-.048.322-.102.415-.157.066-.032.191-.13.382-.292.175-.173.323-.26.448-.26.131 0 .197.087.197.26 0 .054-.011.157-.033.309l-.148.525c-.076.27-.136.52-.174.736-.039.216-.06.417-.06.59v.34c0 .206-.022.363-.066.46-.044.098-.114.147-.213.147a.327.327 0 0 1-.273-.146 1.866 1.866 0 0 1-.224-.493c-.142-.449-.338-.768-.584-.958-.245-.19-.6-.287-1.065-.287h-.676c-.197 0-.35.044-.454.13-.103.087-.185.255-.24.51-.054.248-.082.61-.082 1.082V52.7c0 .292.082.509.24.644.159.136.465.27.918.4.12.044.213.087.273.13.06.044.092.114.092.212a.21.21 0 0 1-.092.178.377.377 0 0 1-.224.065c-.23 0-.688-.01-1.37-.032l-1.273-.032c-.196 0-.606.01-1.223.032-.475.032-.917.049-1.337.049a.342.342 0 0 1-.235-.06ZM68.172 53.35c-.808-.79-1.212-1.868-1.212-3.232v-4.58c0-.302-.076-.584-.224-.843a1.033 1.033 0 0 0-.633-.498c-.295-.076-.448-.195-.448-.358 0-.075.044-.135.126-.178a.654.654 0 0 1 .306-.065c.382 0 .78.016 1.19.048.508.022.862.033 1.07.033.208 0 .6-.01 1.174-.033.595-.021 1.01-.032 1.256-.032.284 0 .431.081.431.243 0 .087-.044.158-.131.212a1.801 1.801 0 0 1-.338.157 3.207 3.207 0 0 0-.34.14c-.409.195-.61.623-.61 1.278v4.222c0 1.023.234 1.802.71 2.333.474.53 1.07.796 1.796.796.977 0 1.709-.276 2.183-.834.481-.558.721-1.424.721-2.604 0-.46.006-.812.017-1.06l.016-1.23c0-.346-.005-.6-.016-.752-.011-.525-.05-.925-.11-1.201s-.152-.493-.273-.64c-.12-.145-.3-.28-.546-.4a1.544 1.544 0 0 0-.294-.124 1.129 1.129 0 0 1-.279-.125c-.065-.043-.098-.097-.098-.162 0-.162.164-.244.497-.244.338 0 .688.011 1.037.033l.628.016c.197 0 .442-.01.726-.032s.552-.033.792-.033c.273 0 .415.081.415.244 0 .151-.142.27-.432.357-.376.108-.638.276-.791.509-.153.227-.24.557-.262.98-.055 1.32-.082 2.75-.082 4.286 0 .883-.197 1.673-.595 2.366a4.264 4.264 0 0 1-1.611 1.618 4.48 4.48 0 0 1-2.255.58c-1.534 0-2.703-.395-3.51-1.191ZM89.816 54.227c-.486-.281-.923-.688-1.322-1.212a22.22 22.22 0 0 1-1.053-1.538 14.78 14.78 0 0 1-.89-1.667c-.11-.238-.24-.4-.399-.492a.728.728 0 0 0-.398-.114c-.11 0-.164.108-.164.325V52.7c0 .325.093.558.273.688.18.13.519.249 1.015.357.11.022.192.06.24.114.05.054.077.13.077.227 0 .163-.087.244-.262.244l-1.436-.033-1.338-.032c-.196 0-.595.01-1.19.032-.442.033-.868.05-1.288.05a.333.333 0 0 1-.197-.077c-.066-.048-.098-.108-.098-.173 0-.184.104-.303.311-.363.431-.086.715-.2.868-.335.148-.136.224-.368.224-.693v-7.41c0-.347-.066-.596-.197-.747-.13-.146-.398-.266-.791-.352-.23-.054-.35-.168-.35-.341 0-.076.033-.14.093-.19a.374.374 0 0 1 .24-.075c.399 0 .836.021 1.322.065a11.3 11.3 0 0 0 1.037.065c.207 0 .513-.022.906-.065.486-.065.972-.098 1.47-.098 1.32 0 2.33.217 3.03.655.698.438 1.048 1.088 1.048 1.965 0 .666-.208 1.202-.628 1.613-.42.411-.928.698-1.534.877-.033.01-.05.038-.05.081a.2.2 0 0 0 .033.114 41.517 41.517 0 0 0 1.518 2.127c.464.6.912 1.11 1.354 1.521.339.314.693.52 1.065.606.371.087.813.13 1.326.13.164 0 .246.103.246.309 0 .73-.704 1.099-2.113 1.099-.852 0-1.518-.147-1.998-.428Zm-2.353-6.133c.289-.368.436-.877.436-1.52 0-.764-.142-1.327-.43-1.695-.285-.368-.7-.547-1.24-.547a.517.517 0 0 0-.497.303c-.099.2-.148.601-.148 1.202v2.192c0 .417.191.623.58.623.573-.006 1.01-.19 1.299-.558ZM110.377 54.308a.248.248 0 0 1-.081-.179c0-.065.032-.13.092-.194a.56.56 0 0 1 .241-.147c.387-.108.644-.227.786-.357.136-.13.207-.352.207-.671v-7.465c0-.346-.071-.595-.213-.736-.142-.14-.436-.26-.873-.362-.208-.055-.311-.174-.311-.358 0-.065.032-.124.098-.173a.331.331 0 0 1 .196-.076c.41 0 .836.017 1.289.049.595.022.988.032 1.19.032.208 0 .623-.01 1.24-.032a46.169 46.169 0 0 1 1.321-.032c.175 0 .262.08.262.243 0 .098-.027.173-.076.222a.584.584 0 0 1-.241.125c-.453.13-.742.265-.873.411-.131.14-.197.379-.197.704v7.28c0 .292.066.509.191.639.126.13.333.195.617.195h1.6c.42 0 .797-.152 1.141-.46.306-.282.606-.726.89-1.327.109-.227.197-.373.257-.433a.292.292 0 0 1 .207-.092.19.19 0 0 1 .175.109.5.5 0 0 1 .06.238.875.875 0 0 1-.027.157c-.017.07-.033.146-.044.222-.164.579-.278 1.001-.349 1.277-.066.27-.115.596-.148.964-.022.205-.115.308-.278.308l-1.436-.016a169.352 169.352 0 0 0-4.292-.065c-.371 0-.775.016-1.206.049a37.2 37.2 0 0 1-1.174.032c-.109 0-.186-.027-.241-.081ZM23.619 62.081c.294.168.524.4.693.698.17.298.257.64.257 1.012 0 .38-.088.715-.257 1.018-.17.303-.404.536-.693.698a1.95 1.95 0 0 1-.983.25 1.95 1.95 0 0 1-.983-.25 1.82 1.82 0 0 1-.693-.698 2.028 2.028 0 0 1-.257-1.017c0-.38.088-.715.257-1.013.169-.297.404-.53.693-.698a1.95 1.95 0 0 1 .983-.249c.36 0 .688.081.983.249Zm-1.578.606c-.17.103-.306.25-.404.439-.099.19-.148.411-.148.666 0 .254.05.476.148.665.098.19.23.336.404.439.17.103.371.151.595.151.224 0 .426-.048.595-.151.17-.103.306-.25.404-.439.098-.19.147-.411.147-.665 0-.255-.049-.477-.147-.666a1.052 1.052 0 0 0-.404-.439 1.13 1.13 0 0 0-.595-.151c-.23 0-.426.048-.595.151ZM31.001 65.719l-.906-1.494h-.339v1.494h-.77V61.88h1.474c.448 0 .792.108 1.027.325.235.216.355.503.355.86 0 .293-.082.53-.246.726-.164.194-.398.324-.704.39l.966 1.531h-.857v.006Zm-1.24-2.02h.634c.442 0 .66-.194.66-.579 0-.184-.054-.33-.163-.433-.11-.102-.273-.157-.502-.157h-.634v1.17h.006ZM39.163 62.19c.311.227.508.541.595.93h-.813a.904.904 0 0 0-.366-.416 1.088 1.088 0 0 0-.59-.157c-.224 0-.42.049-.59.152-.169.102-.305.248-.398.433-.093.189-.142.41-.142.66 0 .4.11.714.328.942.218.222.513.335.89.335.278 0 .518-.08.715-.243.202-.163.327-.39.387-.677h-1.31v-.547h1.955v.737a1.775 1.775 0 0 1-.945 1.212c-.256.13-.551.195-.884.195a1.96 1.96 0 0 1-1.005-.249 1.703 1.703 0 0 1-.672-.688 2.117 2.117 0 0 1-.24-1.012c0-.379.082-.72.24-1.012a1.75 1.75 0 0 1 .672-.693 1.96 1.96 0 0 1 1.005-.249c.464.006.857.12 1.168.347ZM46.6 64.95h-1.551l-.273.774h-.819l1.425-3.795h.885l1.42 3.795h-.82l-.267-.774Zm-.208-.585-.568-1.618-.567 1.618h1.135ZM55.21 65.719h-.77l-1.73-2.61v2.61h-.77V61.88h.77l1.73 2.63v-2.63h.77v3.838ZM60.522 61.886v3.838h-.775v-3.838h.775ZM68.008 62.216c.317.25.53.58.628 1.007h-.814a1.023 1.023 0 0 0-.393-.487 1.108 1.108 0 0 0-.639-.179c-.202 0-.387.049-.551.152a1.022 1.022 0 0 0-.382.433 1.49 1.49 0 0 0-.137.66c0 .25.044.471.137.655.093.19.218.336.382.433.164.103.35.152.551.152.251 0 .459-.06.64-.179a1.09 1.09 0 0 0 .392-.487h.814a1.773 1.773 0 0 1-.628 1.007c-.317.249-.715.368-1.201.368-.371 0-.694-.081-.978-.25a1.646 1.646 0 0 1-.655-.692 2.18 2.18 0 0 1-.235-1.012c0-.379.077-.72.235-1.018.153-.298.371-.53.655-.693.284-.162.607-.249.983-.249.475.011.88.13 1.196.38ZM80.806 64.073a.925.925 0 0 1 .213.606c0 .325-.11.58-.328.763-.218.184-.535.282-.944.282h-1.66v-3.838h1.627c.393 0 .693.086.9.254.208.168.317.411.317.715a.888.888 0 0 1-.19.584.883.883 0 0 1-.497.298c.234.054.42.162.562.336Zm-1.95-.58h.694c.191 0 .339-.043.443-.13a.463.463 0 0 0 .152-.368.467.467 0 0 0-.147-.368c-.098-.086-.251-.13-.453-.13h-.683v.996h-.005Zm1.207 1.467c.11-.086.164-.216.164-.39 0-.167-.054-.302-.169-.395-.11-.092-.268-.14-.475-.14h-.726v1.055h.731c.208.006.366-.038.475-.13ZM86.168 62.492v.997h1.37v.584h-1.37v1.034h1.534v.612h-2.304V61.88h2.305v.606h-1.535v.005ZM94.461 64.95h-1.55l-.274.774h-.819l1.425-3.795h.885l1.42 3.795h-.82l-.267-.774Zm-.207-.585-.568-1.618-.568 1.618h1.136ZM100.544 61.886v2.246c0 .303.066.525.202.677.131.151.328.227.579.227.251 0 .437-.076.573-.227.131-.152.202-.374.202-.677v-2.246h.77v2.246c0 .357-.066.655-.202.899a1.278 1.278 0 0 1-.551.546 1.754 1.754 0 0 1-.803.179c-.464 0-.835-.135-1.114-.411-.278-.276-.415-.677-.415-1.213v-2.246h.759ZM110.012 61.886v.606h-1.07v3.226h-.776v-3.226h-1.064v-.606h2.91ZM117.393 61.886l-1.311 2.495v1.343h-.775V64.38l-1.316-2.495h.89l.825 1.678.824-1.678h.863Z" fill="#7D7D7D"/><path d="M84.307 85.806c2.304-1.667 3.428-3.345 3.434-5.137a.511.511 0 0 0-.453-.509c-1.409-.173-2.785.422-3.817.958-4.03 2.095-7.289 5.272-10.434 8.358-.005.005-.016.005-.022.016-1.501 1.483-3.15 2.685-4.837 3.67 4.079-4.108 6.694-10.274 6.672-14.545-.005-.503-.071-1.126-.579-1.504-.256-.195-.584-.276-.955-.255-.006 0-.011-.005-.017-.005-.016 0-.032.01-.049.01-.12.011-.24.028-.365.06-1.622.417-2.567 1.938-3.271 3.367-2.359 4.78-4.024 9.906-5.624 14.87a35.445 35.445 0 0 1-6.317 1.77c-.59.108-1.18.2-1.769.286 1.349-.682 2.583-1.564 3.325-2.3 1.376-1.359 2.457-3.145 3.407-5.613.579-1.505 1.31-3.773 1-6.041-.115-.84-.503-1.375-1.087-1.5h-.011c-.464-.097-.868.103-1.201.314-2.867 1.803-4.56 4.899-5.717 7.4a85.184 85.184 0 0 0-.852 1.91c-.928 2.112-1.883 4.298-3.281 6.133-.027.033-.038.076-.055.114-3.418.146-7.043-.065-11.192-.639-16.375-3.172-29.79-14.306-35.888-29.782A47.574 47.574 0 0 1 1.026 49.67a.51.51 0 0 0-.513-.509.51.51 0 0 0-.513.509 48.539 48.539 0 0 0 3.396 17.917C9.62 83.386 23.325 94.753 40.07 98c3.375.466 6.41.698 9.266.698 2.118 0 4.133-.135 6.115-.39.415.52.83 1.045 1.245 1.57 3.025 3.833 6.159 7.801 10.194 10.713.163.119.54.389.971.389.115 0 .24-.021.36-.07.006 0 .012 0 .017-.005.005 0 .005-.006.011-.006.005-.005.01-.005.022-.005.306-.135.671-.471.677-1.316.005-2.322-1.06-4.709-2.998-6.717-1.709-1.77-3.887-3.064-5.99-4.195a17.616 17.616 0 0 0-1.67-.817 35.303 35.303 0 0 0 7.169-2.187l.016.016c2.676 1.586 5.782 2.815 9.768 3.865 1.824.482 3.844.909 5.87.909 1.195 0 2.391-.151 3.554-.53h.011c.005 0 .005-.006.005-.006a.511.511 0 0 0 .202-.135l.017-.016a.473.473 0 0 0 .093-.152c.005-.016.005-.038.01-.054l.017-.032c0-.017-.006-.027-.006-.044a.559.559 0 0 0-.016-.19c-.005-.015-.005-.032-.01-.053a.502.502 0 0 0-.143-.195c-.005-.006-.005-.01-.01-.01-4.134-3.325-10.953-5.154-16.757-4.662 2.02-1.115 3.838-2.424 5.41-3.93 2.08-.508 7.082-1.937 10.817-4.638ZM62.674 84.3c.022 1.337-.3 2.81-1.01 4.65-.895 2.333-1.905 4-3.172 5.256-.633.628-1.638 1.353-2.73 1.943 4.778-3.784 6.377-9.018 6.912-11.849Zm-1.07.146c-.54 2.658-2.042 7.205-6.142 10.631a22.437 22.437 0 0 0 2.533-4.092 70.074 70.074 0 0 1 3.61-6.539Zm-5.907 7.351c.278-.633.556-1.267.846-1.89.955-2.061 2.288-4.546 4.352-6.251a71.98 71.98 0 0 0-3.823 6.885c-.911 1.884-1.921 3.33-2.822 4.395.524-1.033.988-2.094 1.447-3.139ZM83.7 84.983c-1.824 1.315-4.385 2.555-7.202 3.518l9.839-6.327c-.453.93-1.322 1.862-2.637 2.81Zm.245-2.955c.59-.304 1.24-.601 1.917-.758l-8.316 5.348c1.971-1.76 4.057-3.372 6.4-4.59ZM72.36 79.98c-.977 4.396-3.456 8.607-5.449 11.465l5.45-11.465ZM67.506 92.41c2.408-3.367 5.635-8.802 6.214-14.383.098.174.109.488.109.607.016 4.038-2.462 9.873-6.323 13.776Zm3.025-11.665c.344-.699.754-1.419 1.261-1.965L67.73 87.32c.836-2.235 1.748-4.444 2.801-6.576Zm-11.275 20.72a85.883 85.883 0 0 1 6.563 6.989c-2.435-2.052-4.553-4.493-6.563-6.989Zm.656-.784c2.479 1.84 5.59 4.563 6.95 7.437a84.586 84.586 0 0 0-6.95-7.437Zm7.458 6.203c-1.229-2.133-3.216-4.103-5.132-5.695 1.108.72 2.09 1.484 2.953 2.377.994 1.028 1.72 2.159 2.179 3.318Zm8.124-8.33c-2.511-.661-4.662-1.392-6.563-2.242 3.156.455 8.73 1.408 13.694 3.01-2.397.32-4.909-.184-7.13-.769Zm5.193-.872c-4.308-1.202-8.725-1.954-11.46-2.355 3.843-.135 8.036.73 11.46 2.355Z" fill="#7D7D7D"/></svg>