<svg width="106" height="104" fill="none" xmlns="http://www.w3.org/2000/svg"><path d="M10.549 77.233c.333-.032.65.033.955.195.306.157.579.412.814.752l.775 1.126-3.2 2.16-.775-1.126c-.235-.346-.377-.687-.415-1.023a1.647 1.647 0 0 1 .164-.947c.147-.292.388-.547.704-.763a2.07 2.07 0 0 1 .978-.374Zm.42.774c-.311-.065-.628.011-.955.233-.328.222-.52.487-.574.796-.054.308.039.633.273.974l.3.438 2.07-1.396-.3-.439c-.23-.335-.503-.535-.814-.606ZM6.12 74.126l.896-.444-.611-1.218.53-.26.61 1.219.934-.46-.682-1.365.551-.276 1.027 2.046-3.462 1.71-1.026-2.045.551-.27.683 1.363ZM5.646 65.844c.191.038.36.13.519.282.158.146.284.351.376.611.088.255.126.504.11.73a1.198 1.198 0 0 1-.213.618 1.175 1.175 0 0 1-.508.406l-.268-.769a.615.615 0 0 0 .306-.303.57.57 0 0 0 .006-.454c-.055-.152-.132-.255-.24-.304a.471.471 0 0 0-.356-.01.41.41 0 0 0-.245.194.815.815 0 0 0-.093.309 3.89 3.89 0 0 0-.011.465c0 .255-.005.46-.033.634a1.01 1.01 0 0 1-.196.476c-.11.152-.273.265-.503.341a.964.964 0 0 1-.862-.081c-.262-.163-.453-.428-.585-.796-.136-.384-.147-.72-.038-1.012.104-.292.311-.503.612-.644l.273.78a.522.522 0 0 0-.268.682.5.5 0 0 0 .219.286c.098.06.218.065.35.017a.407.407 0 0 0 .234-.185.757.757 0 0 0 .087-.303c.011-.113.017-.265.011-.449 0-.26.011-.476.033-.65.022-.167.087-.33.196-.481.11-.152.279-.27.514-.352.19-.065.382-.081.573-.038ZM1.195 62.142l3.773-.839.17.747-3.773.84-.17-.748ZM.459 55.05c.202-.33.491-.557.879-.681l.076.8a.907.907 0 0 0-.382.401 1.07 1.07 0 0 0-.098.596c.022.222.093.411.207.568.12.162.279.276.475.352.197.076.426.103.677.076.404-.038.71-.179.912-.412.202-.238.29-.541.251-.91a1.055 1.055 0 0 0-.316-.681 1.16 1.16 0 0 0-.721-.314l.125 1.294-.551.054-.191-1.933.742-.07c.262.027.503.114.737.249.23.135.42.325.58.568.152.239.25.525.278.856.038.373-.011.714-.148 1.017a1.67 1.67 0 0 1-.628.731 2.166 2.166 0 0 1-.993.336 2.206 2.206 0 0 1-1.043-.136 1.712 1.712 0 0 1-.76-.595 1.917 1.917 0 0 1-.349-.964c-.038-.476.039-.871.24-1.201ZM4.03 47.218l-.039.763-2.713 1.586 2.626.13-.038.763L0 50.27l.038-.763 2.736-1.585-2.648-.13.038-.764 3.865.19ZM6.093 36.869l-.83.373c.06.049.11.087.142.12.142.108.24.254.295.438.055.184.05.384-.011.59a1.275 1.275 0 0 1-.328.568 1.05 1.05 0 0 1-.518.287 1.225 1.225 0 0 1-.623-.027 1.28 1.28 0 0 1-.53-.287.99.99 0 0 1-.278-.444.966.966 0 0 1-.005-.514l-.115.032c-.12.044-.23.066-.338.076-.11.011-.224 0-.339-.038a.848.848 0 0 1-.388-.238.85.85 0 0 1-.213-.444 1.174 1.174 0 0 1 .044-.59c.093-.308.23-.53.42-.655a.983.983 0 0 1 .64-.167c.114-.006.234.01.349.043l.098.032-.202.682a1.313 1.313 0 0 0-.18-.043c-.126-.032-.235-.027-.322.022a.408.408 0 0 0-.186.249c-.033.108-.027.2.022.281a.335.335 0 0 0 .202.163.454.454 0 0 0 .224.01c.065-.016.158-.043.267-.092l2.927-1.19-.224.763Zm-1.054.93a.494.494 0 0 0-.316-.248.522.522 0 0 0-.432.054.57.57 0 0 0-.267.346.504.504 0 0 0 .027.39c.06.12.17.2.333.244a.514.514 0 0 0 .431-.044.572.572 0 0 0 .257-.335.52.52 0 0 0-.033-.406ZM9.217 25.956a.956.956 0 0 1 .639.114c.284.157.453.379.513.655.06.281-.016.595-.218.953l-.814 1.434-3.374-1.878.797-1.408c.191-.335.415-.557.666-.655.251-.097.513-.07.786.082.208.119.35.265.426.449a.895.895 0 0 1 .022.574.944.944 0 0 1 .557-.32Zm-1.463 1.402.338-.6c.093-.168.131-.314.104-.444a.45.45 0 0 0-.251-.309c-.142-.076-.273-.097-.399-.054-.125.043-.235.151-.338.33l-.333.59.879.487Zm1.883-.32c-.021-.14-.109-.248-.262-.33a.504.504 0 0 0-.426-.048c-.136.054-.256.168-.354.341l-.355.628.928.514.36-.633c.098-.179.137-.336.11-.471ZM13.972 22.01l-1.747-.184-.202.27 1.2.9-.463.611-3.085-2.317.89-1.163c.273-.358.562-.563.879-.617.316-.055.617.021.906.238.235.173.377.384.437.633s.022.509-.11.79l1.814.163-.52.676Zm-2.375-.238.382-.503c.267-.352.246-.639-.066-.877a.58.58 0 0 0-.447-.136c-.148.022-.29.125-.426.304l-.382.503.939.71ZM17.913 16.478l-1.076 1.104.372.73-.568.585-1.758-3.653.611-.628 3.735 1.629-.568.58-.748-.347Zm-.562-.255-1.567-.72.775 1.532.792-.812ZM24.504 12.078l-.617.46-2.96-1.061 1.573 2.089-.617.46-2.315-3.069.617-.46 2.976 1.077-1.589-2.106.617-.46 2.315 3.07ZM29.997 7.785c-.006.33-.099.639-.29.926-.19.286-.47.525-.84.725l-1.213.65-1.84-3.378 1.212-.65c.372-.2.727-.297 1.07-.303.345-.005.656.081.934.26.279.179.514.433.694.774.185.33.278.666.273.996Zm-.825.336c.099-.298.05-.623-.136-.964-.191-.346-.437-.563-.743-.65-.305-.08-.639-.027-1.004.168l-.475.255 1.19 2.187.47-.255c.37-.195.6-.444.698-.741ZM33.29 3.189l1.413 3.572-.72.282-1.415-3.573.721-.281ZM41.441 4.721l-.748.19-2.331-2.095.655 2.522-.748.19-.966-3.714.748-.19 2.342 2.117-.666-2.544.748-.19.966 3.714ZM47.698.24c.333.194.562.486.693.865l-.808.081a.869.869 0 0 0-.404-.373 1.048 1.048 0 0 0-.6-.092c-.219.022-.41.092-.574.211-.158.12-.278.276-.35.47a1.428 1.428 0 0 0-.07.678c.044.4.185.698.426.898.24.2.546.282.922.244.273-.027.503-.136.683-.32.18-.184.284-.422.311-.714l-1.305.135-.054-.547 1.943-.2.077.736c-.028.26-.11.504-.246.731a1.684 1.684 0 0 1-.568.574c-.24.151-.53.249-.857.281-.377.038-.72-.01-1.026-.14a1.714 1.714 0 0 1-.743-.617 2.067 2.067 0 0 1-.344-.986c-.038-.379 0-.72.131-1.034.126-.308.328-.562.595-.757a1.96 1.96 0 0 1 .972-.352c.464-.043.868.032 1.196.227ZM60.048 102.024l.24 1.402-.764.13-.644-3.783 1.387-.233c.447-.076.808-.027 1.075.151.268.179.432.45.492.818.06.362-.006.666-.208.92-.202.254-.518.417-.95.492l-.628.103Zm1.016-1.385c-.033-.19-.11-.325-.23-.406-.12-.082-.3-.103-.54-.065l-.546.092.197 1.163.546-.092c.447-.081.638-.308.573-.692ZM68.102 101.591l-1.305-1.169-.328.098.437 1.429-.737.222-1.125-3.67 1.409-.428c.431-.13.791-.124 1.08.016.29.141.487.38.59.72.088.276.077.53-.022.769-.098.233-.283.427-.556.579l1.376 1.185-.82.249Zm-1.786-1.575.606-.184c.42-.13.579-.379.464-.747a.573.573 0 0 0-.284-.368c-.13-.065-.31-.07-.524-.005l-.606.184.344 1.12ZM72.016 96.676l.41.91 1.25-.553.24.536-1.25.552.426.942 1.403-.622.251.563-2.108.93-1.578-3.501 2.108-.932.251.558-1.403.617ZM79.878 91.74l2.03 3.216-.649.406-1.414-2.241.584 2.76-.567.352-2.245-1.716 1.41 2.236-.656.406-2.031-3.216.791-.492 2.512 1.808-.562-3.015.797-.504ZM83.405 88.99l2.446 2.972-.6.487-2.446-2.972.6-.487ZM86.71 86.03l1.632 1.564c.218.21.425.32.627.33.203.01.394-.076.568-.255.17-.178.251-.362.235-.563-.016-.2-.13-.405-.35-.611l-1.626-1.565.535-.546 1.632 1.564c.257.25.426.504.514.769.081.265.087.525.01.774a1.752 1.752 0 0 1-.425.698c-.323.33-.683.498-1.076.504-.393.005-.78-.174-1.169-.547l-1.627-1.564.52-.553ZM93.206 78.31l3.096 2.225-.453.617-2.162-1.553 1.583 2.338-.393.536-2.724-.758 2.15 1.548-.452.618-3.096-2.225.551-.753 3.009.742-1.66-2.587.551-.748ZM102.313 70.472l-.895.282a2.11 2.11 0 0 1-.131.465c-.137.33-.339.601-.606.812-.268.206-.574.33-.918.374a2.016 2.016 0 0 1-1.042-.152 2.058 2.058 0 0 1-.852-.617 1.814 1.814 0 0 1-.388-.904c-.043-.33 0-.665.137-.996.136-.33.338-.6.606-.806.267-.206.573-.33.917-.374.344-.043.688.006 1.043.147.327.13.6.319.808.562.213.244.349.515.415.818l1.267-.466-.361.855Zm-2.626 1.175c.213-.016.399-.087.562-.206.159-.119.284-.281.366-.492.088-.206.115-.412.082-.606a1.069 1.069 0 0 0-.257-.536 1.491 1.491 0 0 0-.567-.385 1.472 1.472 0 0 0-.677-.119 1.074 1.074 0 0 0-.563.206 1.1 1.1 0 0 0-.366.492 1.082 1.082 0 0 0-.081.607c.027.195.114.373.256.536.142.162.328.287.568.384.24.097.464.135.677.12ZM99.65 63.906l2.2.547c.295.07.529.065.71-.027.18-.092.3-.26.36-.503.06-.239.033-.439-.082-.607-.115-.162-.317-.281-.611-.357l-2.201-.547.186-.736 2.2.547c.35.087.623.222.83.411.208.19.339.412.399.666.06.255.054.53-.017.818-.114.443-.338.768-.671.968-.339.2-.765.239-1.289.109l-2.2-.547.186-.742ZM104.187 56.106l-.17 1.527.743.352-.087.806-3.648-1.813.093-.872 3.959-.99-.088.806-.802.184Zm-.601.141-1.687.39 1.561.736.126-1.126ZM104.596 50.493l-.022-1.288.59-.01.033 2.05-3.866.066-.011-.769 3.276-.049ZM100.933 45.053l3.843-.449.093.763-3.844.45-.092-.764ZM99.758 38.872l.6-.136.235 1.034 3.172-.714.17.747-3.173.714.235 1.029-.6.135-.64-2.81ZM97.71 32.706l2.813.358 1.272-.46.267.725-1.272.46-1.91 2.084-.306-.828 1.305-1.343-1.873-.184-.295-.812ZM34.24 47.066c-.066-.038-.099-.087-.099-.146 0-.13.115-.217.35-.265.3-.055.508-.163.622-.314.115-.152.175-.358.175-.612v-1.635c0-.27-.033-.498-.098-.676a3.435 3.435 0 0 0-.3-.607l-1.59-2.414a2.906 2.906 0 0 0-.398-.498 1.154 1.154 0 0 0-.519-.27.812.812 0 0 1-.196-.098c-.044-.032-.066-.081-.066-.157 0-.054.022-.097.066-.13a.267.267 0 0 1 .163-.048c.175 0 .372.005.59.016.213.01.371.016.48.016.334.022.672.038 1.016.038.12 0 .262-.005.415-.01.158-.006.279-.017.371-.023a9.82 9.82 0 0 1 .847-.048c.07 0 .147.016.218.054.071.038.11.076.11.124 0 .12-.115.206-.34.266-.256.054-.436.113-.534.178-.099.065-.148.163-.148.298 0 .13.044.27.131.422l1.272 2.15c.055.102.12.156.191.156.055 0 .115-.054.18-.157.426-.758.787-1.456 1.076-2.09.082-.172.12-.33.12-.454a.391.391 0 0 0-.207-.352 1.14 1.14 0 0 0-.486-.151.473.473 0 0 1-.246-.092c-.076-.054-.114-.109-.114-.174 0-.048.038-.086.109-.119a.577.577 0 0 1 .24-.048c.235 0 .459.01.677.038.273.016.486.021.628.021.115 0 .3-.016.557-.049.257-.032.48-.048.666-.048.24 0 .366.07.366.205 0 .065-.022.109-.066.141a.604.604 0 0 1-.147.065.475.475 0 0 0-.104.038 1.936 1.936 0 0 0-.622.292 1.46 1.46 0 0 0-.42.46c-.274.45-.487.78-.629.996l-.873 1.43c-.224.39-.339.79-.339 1.19v1.743c0 .303.055.514.159.628.103.114.316.217.639.309.12.032.207.065.267.097.055.032.082.081.082.157 0 .054-.033.103-.093.146a.417.417 0 0 1-.224.06c-.17 0-.497-.017-.983-.049a15.766 15.766 0 0 0-.906-.049c-.147 0-.437.016-.873.049a9.38 9.38 0 0 1-.945.06.404.404 0 0 1-.218-.06ZM44.925 46.725a3.941 3.941 0 0 1-1.556-1.397c-.388-.6-.579-1.282-.579-2.051 0-.736.17-1.424.508-2.062a3.88 3.88 0 0 1 1.496-1.543c.655-.39 1.441-.585 2.342-.585.748 0 1.453.168 2.102.498.65.33 1.169.801 1.556 1.397.388.6.579 1.283.579 2.051 0 .737-.17 1.424-.508 2.063a3.878 3.878 0 0 1-1.496 1.542c-.66.39-1.441.585-2.342.585a4.52 4.52 0 0 1-2.102-.498Zm3.756-.882c.333-.547.503-1.272.503-2.187a7.38 7.38 0 0 0-.246-1.932c-.164-.607-.42-1.105-.764-1.49a1.644 1.644 0 0 0-1.278-.573c-.623 0-1.098.27-1.425.817-.328.547-.491 1.267-.491 2.171 0 .671.081 1.315.245 1.927.164.612.42 1.115.76 1.5.338.39.758.584 1.26.584.623 0 1.103-.27 1.436-.817ZM56.287 46.351c-.595-.579-.89-1.37-.89-2.37v-3.362a1.2 1.2 0 0 0-.164-.617.778.778 0 0 0-.464-.368c-.218-.054-.328-.146-.328-.265 0-.055.033-.098.093-.13a.47.47 0 0 1 .224-.05c.284 0 .573.012.874.039.37.016.633.021.786.021.153 0 .437-.005.857-.021.437-.016.743-.022.923-.022.207 0 .316.06.316.179 0 .065-.032.114-.098.157a1.596 1.596 0 0 1-.25.114c-.105.037-.186.07-.247.102-.3.146-.447.455-.447.937v3.096c0 .752.174 1.32.518 1.71.35.39.787.585 1.322.585.72 0 1.256-.206 1.605-.612.35-.406.524-1.044.524-1.91 0-.336.005-.596.011-.78l.01-.898c0-.255-.005-.439-.01-.553a4.792 4.792 0 0 0-.076-.882c-.044-.206-.11-.362-.203-.465a1.184 1.184 0 0 0-.398-.293c-.055-.032-.131-.06-.218-.092a.833.833 0 0 1-.208-.092c-.05-.032-.07-.07-.07-.119 0-.119.12-.178.365-.178.251 0 .502.01.764.021l.459.011c.147 0 .322-.005.535-.022.207-.016.404-.021.579-.021.202 0 .305.06.305.178 0 .114-.103.2-.316.266-.273.08-.47.205-.579.373-.115.168-.175.406-.191.72-.038.969-.06 2.02-.06 3.145 0 .65-.148 1.229-.437 1.732-.29.509-.682.904-1.18 1.191a3.302 3.302 0 0 1-1.654.428c-1.13-.011-1.987-.298-2.582-.883ZM72.41 46.996a3.29 3.29 0 0 1-.967-.888c-.29-.39-.552-.769-.775-1.131a12.093 12.093 0 0 1-.656-1.224c-.081-.173-.18-.297-.289-.362a.543.543 0 0 0-.29-.082c-.081 0-.12.082-.12.239v2.327c0 .238.066.406.203.504.13.097.382.184.742.265a.328.328 0 0 1 .175.08c.038.039.054.098.054.169 0 .119-.065.178-.196.178l-1.054-.021-.983-.022c-.147 0-.437.005-.873.022-.322.021-.64.038-.945.038a.237.237 0 0 1-.147-.055c-.05-.037-.071-.075-.071-.124 0-.135.076-.222.23-.265.316-.065.529-.146.638-.244.11-.097.164-.27.164-.509v-5.45c0-.255-.05-.439-.148-.547-.098-.108-.29-.195-.578-.26-.17-.038-.257-.124-.257-.254 0-.055.022-.103.065-.136a.26.26 0 0 1 .175-.054c.29 0 .612.016.967.049.322.032.578.049.764.049.153 0 .377-.017.666-.05a7.92 7.92 0 0 1 1.076-.07c.966 0 1.709.163 2.222.482.513.32.77.801.77 1.44 0 .487-.153.882-.459 1.18a2.663 2.663 0 0 1-1.125.644c-.022.006-.038.027-.038.06 0 .032.006.06.022.081.404.6.775 1.12 1.114 1.559.338.438.671.812.993 1.115.252.233.508.379.781.444.268.065.595.097.978.097.12 0 .18.076.18.228 0 .535-.519.806-1.55.806-.618.005-1.104-.103-1.459-.308Zm-1.726-4.504c.213-.27.322-.644.322-1.115 0-.563-.104-.974-.317-1.245-.207-.265-.513-.4-.906-.4-.17 0-.29.075-.366.221-.07.146-.109.444-.109.883v1.607c0 .303.142.455.426.455.42.005.737-.13.95-.406ZM17.308 61.302a4.101 4.101 0 0 1-1.66-1.396c-.409-.601-.61-1.283-.61-2.052 0-.736.196-1.423.594-2.062.393-.639.967-1.153 1.715-1.543.748-.39 1.627-.584 2.631-.584.355 0 .743.043 1.158.124.415.087.775.184 1.07.309.164.07.251.178.268.324.065.439.098.926.098 1.451a.22.22 0 0 1-.06.162.198.198 0 0 1-.148.055.298.298 0 0 1-.279-.217 6.637 6.637 0 0 0-.218-.563 1.304 1.304 0 0 0-.278-.395c-.377-.39-.95-.59-1.72-.59a2.27 2.27 0 0 0-1.381.438 2.8 2.8 0 0 0-.912 1.17 3.89 3.89 0 0 0-.322 1.575c0 1.115.224 1.992.666 2.641.442.65 1.092.975 1.95.975.594 0 1.08-.125 1.451-.368.372-.244.683-.64.934-1.18.055-.136.148-.206.268-.206.054 0 .103.016.136.054.038.038.055.087.055.151 0 .369-.088.84-.257 1.419-.038.162-.147.281-.317.362-.677.303-1.517.455-2.517.455-.846-.01-1.621-.178-2.315-.509ZM28.425 61.302a3.983 3.983 0 0 1-1.556-1.396c-.388-.601-.579-1.283-.579-2.052 0-.736.17-1.423.508-2.062a3.88 3.88 0 0 1 1.496-1.543c.655-.39 1.441-.584 2.342-.584.748 0 1.453.167 2.102.498.65.33 1.169.8 1.556 1.396.388.6.579 1.283.579 2.052 0 .736-.17 1.423-.508 2.062a3.88 3.88 0 0 1-1.496 1.543c-.66.39-1.441.584-2.342.584a4.57 4.57 0 0 1-2.102-.498Zm3.75-.882c.334-.547.503-1.272.503-2.187a7.38 7.38 0 0 0-.245-1.932c-.164-.607-.421-1.105-.765-1.489a1.644 1.644 0 0 0-1.277-.574c-.623 0-1.098.271-1.426.818-.327.546-.491 1.266-.491 2.17 0 .672.082 1.316.246 1.927.164.612.42 1.11.759 1.5.338.39.759.584 1.26.584.623 0 1.104-.276 1.437-.817ZM38.078 61.486c0-.049.017-.087.055-.108a.642.642 0 0 1 .136-.06.847.847 0 0 0 .131-.049c.202-.08.372-.2.503-.362.13-.163.218-.358.245-.59.066-.455.142-1.23.235-2.312l.175-2.024.049-.552a4.85 4.85 0 0 0 .01-.406c0-.282-.103-.477-.316-.59a2.889 2.889 0 0 0-.628-.255c-.218-.054-.327-.146-.327-.265 0-.13.103-.19.316-.19l.896.022c.944.022 1.447.038 1.512.038a.28.28 0 0 1 .175.07c.06.05.098.098.114.147.137.379.252.67.339.877l1.742 4.07c.016.033.032.049.054.049s.033-.016.044-.049l1.583-3.784c.115-.6.197-.985.257-1.152.033-.103.098-.157.208-.157h.546c.24-.006.453-.022.638-.038.186-.017.339-.027.459-.038.42-.038.737-.06.944-.06.208 0 .317.065.317.19 0 .065-.022.113-.065.146a.793.793 0 0 1-.213.097.999.999 0 0 0-.153.06 1.545 1.545 0 0 1-.104.049c-.256.119-.437.249-.54.39-.104.14-.142.351-.126.643.066 1.456.153 3.01.268 4.661l.038.493c.032.362.322.617.873.768a.876.876 0 0 1 .202.098c.044.032.066.086.066.157a.147.147 0 0 1-.066.13.267.267 0 0 1-.163.048l-1.016-.021-.945-.022c-.147 0-.436.005-.873.022-.322.021-.639.037-.945.037a.32.32 0 0 1-.18-.048.147.147 0 0 1-.07-.13c0-.136.087-.222.267-.265.316-.07.53-.157.639-.26.114-.098.163-.265.158-.498a84.613 84.613 0 0 1-.098-2.544 54.922 54.922 0 0 0-.06-1.765c0-.038-.011-.06-.039-.06-.022 0-.049.028-.07.087l-2.206 5.413c-.039.103-.099.157-.18.157-.083 0-.148-.043-.197-.13-.175-.39-.344-.752-.503-1.072a34.32 34.32 0 0 1-.414-.882c-.721-1.489-1.24-2.63-1.562-3.42-.022-.055-.055-.087-.098-.087-.066 0-.104.065-.12.189-.022.417-.039.915-.039 1.489l.011 1.39c.006.282.011.666.011 1.154 0 .221.071.4.219.53.147.13.376.233.704.314.218.054.327.14.327.255 0 .054-.032.102-.092.13a.413.413 0 0 1-.202.048c-.24 0-.486-.005-.726-.022l-.52-.01c-.234 0-.496.005-.78.016a8.77 8.77 0 0 0-.562.032c-.175-.01-.268-.07-.268-.19ZM51.908 61.61c-.05-.037-.071-.075-.071-.124 0-.135.076-.222.23-.265.316-.065.529-.146.638-.25.11-.097.164-.27.164-.508v-5.45c0-.255-.05-.44-.148-.548-.098-.108-.289-.195-.578-.26-.17-.037-.257-.124-.257-.254 0-.054.022-.103.066-.135a.259.259 0 0 1 .174-.054c.29 0 .595.01.907.038.404.016.682.021.835.021.153 0 .377-.016.666-.048.355-.05.715-.07 1.076-.07.993 0 1.78.21 2.358.627.58.422.874.996.874 1.721 0 .52-.115.996-.339 1.424a2.478 2.478 0 0 1-1.004 1.018c-.442.254-.988.378-1.633.378-.207 0-.371-.032-.491-.097-.115-.065-.175-.146-.175-.238 0-.054.027-.103.077-.14a.263.263 0 0 1 .152-.055c.066 0 .142.01.235.032s.175.033.246.033c.3 0 .53-.184.688-.547.164-.362.24-.85.24-1.461 0-.742-.104-1.289-.316-1.624-.208-.341-.52-.509-.918-.509-.453 0-.677.211-.677.639l-.01 5.548c0 .238.065.406.201.504.131.097.383.184.743.265a.329.329 0 0 1 .175.08c.038.039.054.098.054.169 0 .119-.065.178-.196.178l-1.054-.021-.983-.022c-.147 0-.437.006-.873.022a14.17 14.17 0 0 1-.945.038.233.233 0 0 1-.131-.054ZM60.786 61.486c0-.07.022-.124.066-.162a.623.623 0 0 1 .202-.103c.24-.065.447-.162.622-.298.175-.135.3-.292.382-.47a85.115 85.115 0 0 0 2.07-5.213c.098-.266.174-.504.229-.715.055-.211.093-.32.11-.32.349-.08.649-.162.906-.254.136-.048.267-.113.387-.19a1.64 1.64 0 0 0 .279-.226.43.43 0 0 1 .12-.05c.038 0 .07.028.098.087.055.12.104.233.131.336a273.33 273.33 0 0 0 1.66 5.164l.448 1.38c.114.368.436.623.966.769a.87.87 0 0 1 .202.097c.044.033.066.087.066.157a.147.147 0 0 1-.066.13.267.267 0 0 1-.164.049c-.164 0-.486-.005-.972-.022a34.737 34.737 0 0 0-1.043-.021c-.163 0-.47.005-.922.021-.372.022-.71.038-1.016.038a.32.32 0 0 1-.18-.049.147.147 0 0 1-.071-.13c0-.135.087-.221.268-.265.284-.054.491-.124.622-.21a.392.392 0 0 0 .202-.353.641.641 0 0 0-.022-.194l-.376-1.392a.388.388 0 0 0-.066-.157c-.027-.032-.071-.048-.126-.048h-2.107c-.066 0-.11.016-.131.048a.538.538 0 0 0-.071.157l-.17.515c-.021.086-.06.205-.109.346a9.13 9.13 0 0 0-.12.384 1.02 1.02 0 0 0-.049.314c0 .152.06.271.175.352.114.087.327.163.622.233.18.038.268.13.268.265 0 .114-.088.168-.257.168-.185 0-.426-.005-.715-.022l-.655-.01c-.224 0-.448.01-.666.037-.071.006-.18.017-.328.022-.147.006-.273.01-.388.01-.207 0-.31-.07-.31-.205Zm4.756-3.313c.12 0 .18-.027.18-.086 0-.006-.006-.054-.022-.13l-.775-2.652c-.028-.082-.05-.12-.071-.12-.017 0-.038.038-.071.12l-.934 2.652a.22.22 0 0 0-.027.097c0 .038.022.07.06.092a.296.296 0 0 0 .147.033h1.513v-.006ZM79.825 61.649a2.76 2.76 0 0 1-.72-.645l-4.712-4.958c-.055-.081-.104-.119-.132-.119-.054 0-.087.076-.087.227 0 .585.011 1.245.038 1.982.006.286.017.617.022.985.006.368.011.752.011 1.153 0 .265.082.465.246.611.164.147.42.255.759.336.218.054.327.14.327.254 0 .054-.032.103-.092.13a.413.413 0 0 1-.203.049c-.256 0-.524-.005-.797-.022l-.595-.01c-.234 0-.464.005-.688.016-.224.01-.371.021-.436.032a.345.345 0 0 1-.18-.054c-.066-.038-.099-.076-.099-.124 0-.065.022-.114.071-.152a.878.878 0 0 1 .218-.114c.366-.146.563-.47.606-.974.17-1.775.257-3.35.257-4.72 0-.373-.093-.66-.273-.85-.18-.19-.448-.357-.808-.492-.218-.055-.328-.147-.328-.266 0-.13.104-.19.317-.19l.923.023c.966.021 1.48.037 1.54.037.103 0 .185.038.24.12l4.466 4.91c.082.096.137.145.17.145.065 0 .098-.054.098-.168v-1.26c0-1.251-.011-2.096-.039-2.545-.01-.222-.087-.39-.229-.492-.147-.103-.382-.2-.715-.287-.186-.05-.279-.13-.279-.255 0-.049.028-.092.077-.124a.29.29 0 0 1 .174-.054l.787.01c.103.006.267.011.496.011l.557-.01c.257-.017.503-.022.727-.022.087 0 .158.016.213.048a.141.141 0 0 1 .076.13c0 .13-.104.212-.306.255-.29.054-.497.135-.617.243-.12.109-.18.276-.18.51 0 .481-.027 1.39-.082 2.738-.038.785-.06 1.418-.06 1.9 0 .184.016.411.044.677.027.27.049.444.054.525.033.303.05.465.05.482 0 .39-.115.59-.35.59-.13-.011-.317-.082-.557-.222ZM86.748 61.643c-.066-.038-.098-.086-.098-.146 0-.13.114-.216.35-.265.3-.054.507-.163.622-.314.114-.152.174-.357.174-.612v-1.634c0-.271-.033-.498-.098-.677a3.423 3.423 0 0 0-.3-.606l-1.59-2.415a2.91 2.91 0 0 0-.398-.498 1.125 1.125 0 0 0-.518-.27 1.006 1.006 0 0 1-.202-.098c-.044-.032-.066-.08-.066-.157 0-.054.022-.097.066-.13a.267.267 0 0 1 .163-.048c.175 0 .372.005.59.016.213.01.371.016.48.016.334.022.672.038 1.016.038.12 0 .262-.005.415-.01.158-.006.278-.017.371-.022.355-.033.64-.05.847-.05.07 0 .147.017.218.055.071.038.11.076.11.125 0 .119-.115.205-.34.265-.256.054-.436.113-.534.178-.099.065-.148.163-.148.298 0 .13.044.27.131.422l1.272 2.15c.055.102.12.156.191.156.055 0 .115-.054.18-.157.427-.758.787-1.456 1.076-2.09.082-.172.12-.33.12-.454a.391.391 0 0 0-.207-.352 1.139 1.139 0 0 0-.486-.151.473.473 0 0 1-.246-.092c-.076-.054-.114-.108-.114-.173 0-.05.038-.087.109-.12a.577.577 0 0 1 .24-.048c.235 0 .459.01.677.038.273.016.486.021.628.021.115 0 .3-.016.557-.048.257-.033.48-.05.666-.05.24 0 .366.071.366.207 0 .064-.022.108-.066.14a.608.608 0 0 1-.147.065.475.475 0 0 0-.104.038 1.938 1.938 0 0 0-.622.292c-.18.13-.322.287-.42.46-.274.45-.487.78-.629.996l-.873 1.43a2.38 2.38 0 0 0-.339 1.19v1.743c0 .303.055.515.159.628.103.114.316.217.638.309.12.032.208.065.268.097.055.033.082.087.082.157 0 .054-.033.103-.093.146a.417.417 0 0 1-.224.06c-.169 0-.497-.016-.983-.049a15.796 15.796 0 0 0-.906-.049c-.147 0-.437.017-.873.05-.366.037-.678.059-.945.059a.421.421 0 0 1-.213-.06ZM57.06 16.35l-9.045 8.968.969.96 9.045-8.967-.969-.961ZM57.046 76.102 48 85.069l.969.961 9.046-8.968-.97-.96Z" fill="#7D7D7D"/></svg>