<svg width="111" height="72" fill="none" xmlns="http://www.w3.org/2000/svg"><path d="M42.052 27.64a1.032 1.032 0 0 1-.437.395 1.577 1.577 0 0 1-.71.151 1.79 1.79 0 0 1-.737-.14 1.273 1.273 0 0 1-.518-.401 1.171 1.171 0 0 1-.224-.606h.824a.602.602 0 0 0 .622.547.508.508 0 0 0 .372-.13.442.442 0 0 0 .13-.33.431.431 0 0 0-.103-.298.855.855 0 0 0-.262-.19 3.885 3.885 0 0 0-.437-.162 4.09 4.09 0 0 1-.59-.238 1.066 1.066 0 0 1-.392-.341c-.11-.147-.164-.341-.164-.58 0-.33.12-.59.36-.78.24-.189.557-.286.95-.286.41 0 .737.097.978.292.24.195.382.455.414.785h-.835a.605.605 0 0 0-.175-.34.552.552 0 0 0-.387-.136.506.506 0 0 0-.344.113c-.088.076-.131.184-.131.325a.39.39 0 0 0 .103.282.758.758 0 0 0 .257.184c.104.049.246.097.426.157.251.086.448.168.606.243.158.076.29.19.398.341.11.152.164.352.164.596-.01.2-.06.384-.158.547ZM49.456 24.31v.607h-1.07v3.226h-.775v-3.226h-1.065v-.607h2.91ZM57.056 24.31l-1.31 2.496v1.342h-.776v-1.342l-1.316-2.495h.89l.82 1.678.824-1.678h.868ZM62.297 27.558h1.3v.585h-2.07V24.31h.77v3.247ZM68.888 24.922v.996h1.37v.585h-1.37v1.034h1.534v.611h-2.31v-3.837h2.31v.606h-1.534v.005ZM14.616 36.094c-.447.097-.775.254-.993.46-.213.205-.36.525-.432.952-.07.428-.109 1.072-.109 1.927v11.373a8.035 8.035 0 0 0-.71-.043c-.158 0-.426.016-.797.043L2.02 40.456v6.16c0 1.056.044 1.814.131 2.28.088.465.279.8.573 1.017.295.211.787.368 1.48.47v.428a34.768 34.768 0 0 0-2.413-.065c-.765 0-1.36.022-1.791.065v-.427c.448-.098.775-.255.994-.46.218-.206.36-.525.431-.953.071-.428.11-1.066.11-1.922v-9.11c0-.54-.039-.93-.12-1.174-.077-.244-.22-.406-.421-.493-.202-.086-.53-.14-.994-.173v-.428c.431.044 1.026.065 1.79.065.776 0 1.437-.021 1.983-.065l8.823 9.235V39.86c0-1.055-.044-1.813-.131-2.279-.087-.465-.278-.8-.573-1.017-.295-.212-.787-.368-1.48-.471v-.428c.59.043 1.392.065 2.413.065.765 0 1.36-.022 1.791-.065v.428ZM33.928 50.021c.223.222.442.341.655.352v.428a97.123 97.123 0 0 0-3.926-.065c-1.638 0-2.845.021-3.625.065v-.428c.546-.027.933-.097 1.163-.2.229-.109.343-.298.343-.569 0-.254-.087-.6-.256-1.028l-1.272-3.508h-4.357l-.366.964c-.475 1.212-.71 2.138-.71 2.782 0 .585.164.985.497 1.196.333.217.819.336 1.469.363v.428a71.466 71.466 0 0 0-2.828-.065c-.677 0-1.229.021-1.66.065v-.428c.36-.054.698-.276 1.015-.66.317-.385.639-.996.972-1.84l4.788-12.207c.46.027.841.043 1.142.043.289 0 .66-.016 1.119-.043l5.22 13.343c.185.455.393.79.617 1.012Zm-7.066-5.375-1.96-5.343-2.069 5.343h4.03ZM51.88 39.899c0 .655.021 1.17.065 1.537h-.497c-.475-1.867-1.086-3.215-1.834-4.043-.748-.828-1.551-1.24-2.414-1.24h-.022v12.228c0 .6.06 1.034.186 1.304.12.271.344.455.672.547.322.092.835.141 1.54.141v.428a236.276 236.276 0 0 0-4.724-.065c-1.02 0-2.5.021-4.444.065v-.428c.704 0 1.218-.043 1.54-.14.322-.093.546-.277.671-.547.12-.271.186-.704.186-1.305V36.153h-.022c-.879 0-1.687.412-2.424 1.229-.742.817-1.349 2.17-1.824 4.054h-.496c.043-.368.065-.882.065-1.537 0-1.24-.05-2.652-.153-4.233 1.365.043 3.718.065 7.054.065 3.32 0 5.662-.022 7.033-.065a61.85 61.85 0 0 0-.159 4.233ZM71.956 36.094c-.448.097-.775.254-.994.46-.218.205-.36.525-.43.952-.072.428-.11 1.072-.11 1.927v5.154c0 2.051-.295 3.561-.885 4.53-.387.639-.96 1.131-1.714 1.478-.753.34-1.73.514-2.921.514-1.742 0-3.09-.34-4.057-1.028a3.6 3.6 0 0 1-1.414-2.009c-.235-.839-.355-1.98-.355-3.42v-6.713c0-.54-.038-.93-.109-1.174a.717.717 0 0 0-.42-.493c-.208-.086-.54-.14-1.005-.173v-.428c.819.044 2.086.065 3.795.065 1.698 0 2.98-.021 3.86-.065v.428c-.519.027-.896.087-1.13.173a.782.782 0 0 0-.486.493c-.088.243-.131.633-.131 1.174v8.726c0 1.37.213 2.328.644 2.874.431.547 1.114.823 2.047.823 1.365 0 2.337-.482 2.91-1.445.574-.964.863-2.328.863-4.092v-4.959c0-1.055-.043-1.813-.13-2.278-.088-.466-.28-.802-.574-1.018-.295-.217-.786-.368-1.48-.471v-.428c.59.044 1.392.065 2.413.065.765 0 1.36-.021 1.791-.065v.423h.022ZM93.047 49.945a3.661 3.661 0 0 1-1.425.899c-.518.173-1.119.254-1.812.254-.994 0-1.764-.173-2.31-.525-.546-.346-.884-.941-1.016-1.786l-.322-2.138c-.142-.996-.344-1.754-.595-2.268-.25-.514-.628-.769-1.13-.769h-.972v4.92c0 .542.038.937.12 1.175.077.244.219.406.42.493.203.086.53.14.995.173v.428c-.836-.044-2.037-.065-3.604-.065-1.742 0-3.02.021-3.838.065v-.428c.458-.027.791-.087 1.004-.173a.717.717 0 0 0 .42-.493c.072-.243.11-.633.11-1.174V37.929c0-.542-.038-.931-.12-1.175-.077-.243-.219-.406-.42-.492-.203-.087-.536-.141-.994-.174v-.427c.819.043 2.052.065 3.707.065l2.479-.022c.289-.016.617-.022.993-.022 2.184 0 3.811.309 4.887.92 1.07.612 1.605 1.549 1.605 2.799 0 1.066-.404 1.981-1.206 2.739-.808.758-2.157 1.218-4.057 1.391 1.469.098 2.572.374 3.32.823.748.45 1.206 1.11 1.38 1.976l.454 2.224c.098.525.224.893.366 1.088.142.2.344.298.606.298.257 0 .48-.092.666-.276l.29.281Zm-9.156-13.7c-.164.098-.278.276-.333.536-.06.255-.087.644-.087 1.153v5.262h.584c1.02 0 1.72-.31 2.091-.932.371-.622.562-1.494.562-2.62 0-1.169-.163-2.05-.486-2.652-.322-.6-.851-.898-1.583-.898-.333 0-.579.048-.748.151ZM110.344 50.8c-.977-.043-2.626-.064-4.941-.064-3.363 0-5.88.021-7.546.065v-.428c.46-.027.792-.087 1.005-.173a.717.717 0 0 0 .42-.493c.071-.243.11-.633.11-1.174V37.929c0-.542-.038-.931-.12-1.175-.077-.243-.219-.406-.42-.492-.203-.087-.536-.141-.995-.174v-.427c1.666.043 4.183.065 7.546.065 2.113 0 3.615-.022 4.51-.065a46.775 46.775 0 0 0-.153 3.594c0 .655.022 1.17.066 1.537h-.497c-.257-1.656-.743-2.842-1.447-3.562-.705-.72-1.545-1.077-2.523-1.077h-.278c-.388 0-.672.033-.852.098a.58.58 0 0 0-.366.362c-.065.179-.098.471-.098.888v5.473h.213c.748 0 1.387-.293 1.916-.877.53-.585.869-1.235 1.016-1.944h.497c-.044.601-.066 1.267-.066 2.009v1.028c0 .725.044 1.738.131 3.037h-.496c-.132-.812-.465-1.489-1.005-2.02-.541-.535-1.207-.8-1.993-.8h-.213v5.559c0 .411.033.709.098.887a.58.58 0 0 0 .366.363c.18.065.464.097.852.097h.71c.835 0 1.627-.4 2.375-1.207.748-.806 1.277-2.089 1.594-3.859h.497c-.044.514-.066 1.17-.066 1.965 0 1.45.05 2.652.153 3.589ZM60.852 58.395H50.347v1.36h10.505v-1.36ZM61.086 8.488c1.196-.243 4.198-.974 6.459-2.495 1.42-.953 2.13-1.954 2.162-3.059a.52.52 0 0 0-.437-.52c-.873-.135-1.714.196-2.353.499-2.299 1.093-4.177 2.76-5.984 4.411.994-2.03 1.523-4.308 1.343-6.176-.022-.2-.07-.72-.513-1.001-.273-.168-.617-.195-.994-.065-.999.34-1.496 1.304-1.845 2.203-1.07 2.728-1.753 5.608-2.392 8.412a.476.476 0 0 0-.316.205c-1.25.65-2.49 1.1-3.577 1.413.35-.298.677-.644.961-1.045.655-.93 1.098-2.073 1.382-3.594.174-.93.36-2.322-.077-3.626-.186-.547-.54-.872-.977-.888-.35-.027-.623.178-.808.352-1.485 1.337-2.135 3.296-2.54 4.855-.097.39-.19.78-.283 1.17-.295 1.244-.584 2.419-1.097 3.507-2.452.357-4.86.406-7.006.384-.273-.021-.513.222-.518.504 0 .281.224.508.508.514.267 0 .54.005.819.005 2.03 0 4.27-.081 6.54-.427h.006a28.43 28.43 0 0 0 1.327-.233c.213.222.426.45.639.671 1.954 2.068 3.98 4.206 6.486 5.705.104.06.35.211.644.211.12 0 .251-.027.382-.097.186-.098.492-.363.437-.996-.12-1.386-.884-2.755-2.151-3.854-1.103-.958-2.44-1.602-3.724-2.165-.082-.038-.163-.07-.245-.103a20.347 20.347 0 0 0 3.368-1.375c1.567.72 3.353 1.25 5.586 1.646.868.156 1.807.286 2.757.286.956 0 1.917-.135 2.828-.508a.506.506 0 0 0 .087-.888c-2.626-1.76-5.885-2.447-8.98-1.949a14.88 14.88 0 0 0 2.096-1.889Zm6.279-4.655c.371-.179.791-.352 1.212-.406-.208.574-.743 1.142-1.61 1.727-1.055.703-2.518 1.353-4.134 1.846 1.392-1.224 2.861-2.371 4.532-3.167Zm-7.48-1.17c.267-.681.622-1.407 1.223-1.612.06-.022.098-.027.103-.038.011.027.033.092.044.233.257 2.652-1.163 6.387-3.232 8.557-.088.065-.18.13-.268.19.573-2.468 1.207-4.97 2.13-7.33Zm-8.583 7.113c.093-.384.18-.768.278-1.147.366-1.418.95-3.194 2.233-4.352.022-.022.038-.033.055-.049a.592.592 0 0 1 .065.152c.279.833.29 1.797.044 3.118-.257 1.374-.644 2.387-1.212 3.193-.568.807-1.332 1.37-2.146 1.608.279-.828.48-1.689.683-2.523Zm5.334 6.426c1.02.887 1.654 1.96 1.79 3.03-2.287-1.396-4.198-3.398-6.043-5.347.262.092.524.2.791.32 1.398.605 2.523 1.18 3.462 1.997Zm9.784-3.616c-1.294.243-2.692.07-3.942-.152-1.463-.26-2.719-.574-3.844-.969 2.6-.53 5.433-.119 7.786 1.12ZM31.05 26.14H19.76v1.358h11.29V26.14ZM89.455 26.14h-11.29v1.358h11.29V26.14ZM9.861 67.43c.295.167.524.4.699.697.17.298.256.64.256 1.013 0 .379-.087.714-.256 1.017-.17.298-.404.536-.699.699a1.95 1.95 0 0 1-.983.249 1.95 1.95 0 0 1-.983-.25 1.821 1.821 0 0 1-.693-.698 2.043 2.043 0 0 1-.257-1.017c0-.38.088-.715.257-1.013.17-.297.404-.53.693-.698a1.95 1.95 0 0 1 .983-.249c.36 0 .688.081.983.25Zm-1.578.61a1.09 1.09 0 0 0-.404.44c-.098.189-.147.41-.147.665 0 .255.049.476.147.666.098.19.23.335.404.438.17.103.371.152.595.152.224 0 .426-.049.595-.152.17-.102.306-.249.404-.438.099-.19.148-.412.148-.666 0-.254-.05-.476-.148-.666a1.053 1.053 0 0 0-.404-.438 1.131 1.131 0 0 0-.595-.152 1.071 1.071 0 0 0-.595.152ZM17.466 71.072l-.906-1.494h-.338v1.494h-.776v-3.838h1.475c.447 0 .791.109 1.026.325.235.217.355.504.355.86 0 .293-.082.531-.246.731-.164.195-.398.325-.704.39l.966 1.532h-.852Zm-1.244-2.024h.638c.443 0 .661-.195.661-.58 0-.184-.055-.33-.164-.433-.109-.102-.273-.156-.502-.156h-.639v1.169h.006ZM25.842 67.543c.311.233.508.541.595.93h-.808a.904.904 0 0 0-.366-.416 1.087 1.087 0 0 0-.59-.157c-.223 0-.42.049-.589.152-.17.102-.306.249-.399.433-.098.19-.142.411-.142.66 0 .4.11.715.328.942.218.227.513.335.89.335a1.1 1.1 0 0 0 .715-.243c.197-.162.328-.39.388-.677h-1.31v-.546h1.954v.736a1.758 1.758 0 0 1-.944 1.218c-.257.13-.552.195-.885.195a1.96 1.96 0 0 1-1.005-.25 1.703 1.703 0 0 1-.671-.687 2.119 2.119 0 0 1-.24-1.012c0-.379.082-.72.24-1.012.158-.298.382-.525.671-.693a1.96 1.96 0 0 1 1.005-.25c.464-.005.852.11 1.163.342ZM33.497 70.298h-1.55l-.273.769h-.82l1.425-3.795h.885l1.42 3.794h-.82l-.267-.768Zm-.207-.58-.568-1.618-.568 1.619h1.136ZM42.33 71.072h-.775l-1.73-2.609v2.61h-.776v-3.839h.775l1.73 2.631v-2.63h.776v3.837ZM47.861 67.234v3.838h-.775v-3.838h.775ZM55.566 67.565c.317.249.53.58.628 1.007h-.813a1.022 1.022 0 0 0-.393-.487 1.12 1.12 0 0 0-.639-.18c-.202 0-.388.05-.551.153a1.023 1.023 0 0 0-.383.432 1.49 1.49 0 0 0-.136.66c0 .25.043.472.136.656.093.19.219.335.383.433.163.103.349.151.551.151.246 0 .464-.06.639-.178a1.09 1.09 0 0 0 .393-.487h.813a1.773 1.773 0 0 1-.628 1.007c-.316.249-.72.368-1.2.368-.372 0-.694-.082-.978-.25a1.646 1.646 0 0 1-.655-.692 2.18 2.18 0 0 1-.235-1.013c0-.378.077-.72.235-1.017.153-.298.371-.53.655-.693a1.88 1.88 0 0 1 .983-.249c.475.01.879.135 1.195.379ZM68.801 69.421a.924.924 0 0 1 .213.606c0 .325-.11.58-.328.764-.218.184-.535.281-.944.281h-1.66v-3.838h1.627c.393 0 .694.087.901.255.207.168.317.411.317.72a.887.887 0 0 1-.191.584.882.882 0 0 1-.497.298c.234.049.42.157.562.33Zm-1.95-.579h.7c.19 0 .338-.043.442-.13a.463.463 0 0 0 .153-.368.467.467 0 0 0-.147-.368c-.099-.087-.252-.13-.454-.13h-.682v.996h-.011Zm1.207 1.472c.11-.086.164-.216.164-.39a.48.48 0 0 0-.169-.395c-.11-.092-.267-.14-.475-.14h-.732v1.055h.737c.208 0 .366-.043.475-.13ZM74.38 67.846v.996h1.371v.585h-1.37v1.033h1.534v.612h-2.31v-3.838h2.31v.607h-1.534v.005ZM82.898 70.298h-1.55l-.273.769h-.82l1.426-3.795h.884l1.42 3.794h-.819l-.267-.768Zm-.207-.58-.568-1.618-.568 1.619h1.136ZM89.198 67.234v2.252c0 .298.066.525.202.677.131.151.328.227.58.227.245 0 .436-.076.572-.227.131-.152.202-.374.202-.677v-2.252h.77v2.252c0 .357-.065.655-.202.899a1.275 1.275 0 0 1-.551.546 1.75 1.75 0 0 1-.803.179c-.464 0-.835-.135-1.114-.411-.278-.276-.415-.677-.415-1.213v-2.252h.76ZM98.879 67.234v.607h-1.07v3.226h-.776V67.84H95.97v-.607h2.91ZM106.485 67.234l-1.31 2.496v1.342h-.781V69.73l-1.316-2.496h.89l.825 1.678.824-1.678h.868Z" fill="#7D7D7D"/></svg>