<svg width="72" height="83" fill="none" xmlns="http://www.w3.org/2000/svg"><path d="M11.54 10.605c-.557 1.006-1.364 1.783-2.418 2.342-1.054.559-2.312.839-3.767.839H.591V.498h4.764c1.455 0 2.713.274 3.767.816 1.054.548 1.866 1.32 2.419 2.314.558.995.834 2.164.834 3.494 0 1.32-.276 2.482-.834 3.483Zm-3.066-.319c.789-.755 1.184-1.805 1.184-3.164 0-1.37-.395-2.426-1.184-3.18-.79-.755-1.906-1.13-3.35-1.13h-1.86v8.603h1.86c1.444 0 2.56-.374 3.35-1.129Z" fill="#7D7D7D"/><path d="M5.35 13.964H.405V.324H5.35c1.478 0 2.774.28 3.851.84 1.083.558 1.923 1.363 2.493 2.386.57 1.018.857 2.225.857 3.578 0 1.341-.288 2.543-.857 3.566-.57 1.029-1.41 1.845-2.493 2.415-1.077.565-2.368.855-3.85.855Zm-4.584-.352h4.59c1.42 0 2.661-.274 3.688-.816 1.02-.542 1.81-1.308 2.35-2.275.542-.973.813-2.119.813-3.399 0-1.291-.277-2.443-.812-3.404-.536-.962-1.33-1.716-2.346-2.247C8.023.94 6.782.67 5.362.67H.772v12.941H.766Zm4.359-2.023H3.089V2.633h2.036c1.483 0 2.65.397 3.473 1.18.823.782 1.24 1.895 1.24 3.31 0 1.397-.417 2.503-1.24 3.286-.823.783-1.99 1.18-3.473 1.18Zm-1.686-.347h1.686c1.387 0 2.475-.363 3.23-1.079.75-.715 1.134-1.738 1.134-3.035 0-1.314-.383-2.337-1.133-3.052-.756-.716-1.839-1.08-3.231-1.08H3.439v8.246ZM24.663 2.606v3.443h4.747v2.035h-4.747v3.578h5.317v2.13h-7.996V.503h7.996V2.61h-5.317v-.005Z" fill="#7D7D7D"/><path d="M30.16 13.964h-8.35V.324h8.35v2.46h-5.317v3.097h4.748v2.382h-4.748v3.225h5.317v2.476Zm-7.995-.352h7.64v-1.777h-5.317v-3.93h4.747V6.222h-4.747V2.427h5.317V.67h-7.64v12.941ZM9.288 34.614c-.344.57-.846 1.028-1.517 1.375-.671.346-1.489.52-2.447.52-.947 0-1.799-.162-2.543-.481-.744-.319-1.348-.783-1.793-1.386-.451-.604-.705-1.303-.767-2.108h2.847c.062.542.282.99.654 1.347.373.358.869.537 1.489.537.558 0 .987-.145 1.28-.442.299-.296.445-.676.445-1.14 0-.414-.118-.755-.36-1.029a2.668 2.668 0 0 0-.914-.648 17.448 17.448 0 0 0-1.517-.565c-.834-.274-1.516-.547-2.052-.821a3.768 3.768 0 0 1-1.359-1.174c-.372-.515-.558-1.185-.558-2.013 0-1.14.417-2.04 1.246-2.7.829-.66 1.928-.989 3.293-.989 1.415 0 2.548.341 3.389 1.017.84.677 1.319 1.582 1.432 2.711H6.649a1.953 1.953 0 0 0-.61-1.173c-.332-.308-.777-.464-1.347-.464-.496 0-.89.128-1.195.385-.305.258-.457.632-.457 1.118 0 .392.119.716.35.967.237.258.53.47.89.632.362.162.852.347 1.472.548.863.302 1.562.581 2.098.85.536.262.998.66 1.376 1.185.377.525.57 1.218.57 2.068 0 .682-.17 1.303-.508 1.873Z" fill="#7D7D7D"/><path d="M5.317 36.682c-.97 0-1.85-.168-2.616-.492a4.486 4.486 0 0 1-1.866-1.442c-.468-.626-.74-1.364-.801-2.197l-.017-.19h3.197l.017.157c.056.503.254.91.603 1.24.339.325.795.487 1.37.487.508 0 .897-.134 1.156-.392.265-.262.395-.592.395-1.017 0-.374-.102-.67-.316-.911a2.459 2.459 0 0 0-.851-.604c-.361-.162-.869-.346-1.5-.559-.84-.28-1.54-.553-2.075-.827a3.913 3.913 0 0 1-1.421-1.23C.197 28.163 0 27.453 0 26.587c0-1.191.44-2.147 1.308-2.84.857-.682 2.002-1.029 3.406-1.029 1.455 0 2.633.358 3.501 1.057.874.704 1.382 1.654 1.5 2.828l.017.19h-3.23l-.023-.145a1.819 1.819 0 0 0-.553-1.079c-.293-.274-.705-.413-1.23-.413-.445 0-.811.117-1.082.346-.265.224-.394.548-.394.984 0 .346.101.626.304.85.214.24.496.436.835.587.355.162.845.34 1.454.536.869.302 1.585.593 2.12.855a3.857 3.857 0 0 1 1.444 1.241c.4.554.603 1.286.603 2.175 0 .704-.18 1.37-.535 1.962-.356.598-.891 1.079-1.59 1.442-.7.37-1.551.548-2.538.548ZM.4 32.713c.085.688.322 1.303.716 1.828a4.109 4.109 0 0 0 1.72 1.325c.722.307 1.556.464 2.476.464.93 0 1.725-.168 2.368-.498.637-.33 1.127-.765 1.449-1.308.321-.542.485-1.14.485-1.783 0-.81-.18-1.476-.536-1.968-.36-.503-.8-.883-1.314-1.129a19.82 19.82 0 0 0-2.08-.838 14.55 14.55 0 0 1-1.489-.554 2.91 2.91 0 0 1-.953-.67c-.265-.286-.395-.655-.395-1.085 0-.542.175-.961.52-1.252.338-.285.777-.43 1.313-.43.615 0 1.105.173 1.472.508.321.302.535.682.631 1.13h2.538c-.141-.99-.593-1.795-1.348-2.399-.806-.648-1.912-.978-3.276-.978-1.32 0-2.39.319-3.186.95-.795.632-1.178 1.47-1.178 2.566 0 .788.174 1.431.524 1.912.355.486.79.866 1.297 1.123.524.269 1.207.537 2.024.811.643.213 1.162.402 1.534.57.389.174.716.408.97.693.27.302.406.688.406 1.14 0 .51-.17.934-.497 1.264-.332.33-.806.492-1.41.492-.665 0-1.206-.196-1.612-.587a2.322 2.322 0 0 1-.688-1.297H.401ZM25.08 23.087v13.287H22.4V23.087h2.679Z" fill="#7D7D7D"/><path d="M25.26 36.553h-3.033v-13.64h3.033v13.64Zm-2.678-.352h2.323v-12.94h-2.323V36.2ZM47.28 24.15c1.077.799 1.765 1.872 2.07 3.23H46.54a3.173 3.173 0 0 0-1.263-1.442c-.575-.358-1.257-.536-2.04-.536-.773 0-1.456.173-2.053.525a3.564 3.564 0 0 0-1.387 1.504c-.327.654-.497 1.42-.497 2.297 0 1.392.378 2.477 1.128 3.26.756.776 1.782 1.168 3.084 1.168.965 0 1.788-.285 2.476-.85s1.133-1.347 1.336-2.353h-4.539v-1.901h6.778v2.56a6.215 6.215 0 0 1-1.111 2.426 5.978 5.978 0 0 1-2.165 1.778c-.891.447-1.917.67-3.068.67-1.32 0-2.475-.284-3.484-.855A5.912 5.912 0 0 1 37.4 33.24c-.552-1.023-.823-2.191-.823-3.51 0-1.32.276-2.488.823-3.511a5.983 5.983 0 0 1 2.33-2.398c.997-.576 2.159-.867 3.472-.867 1.647 0 3 .403 4.077 1.196Z" fill="#7D7D7D"/><path d="M43.237 36.665c-1.342 0-2.543-.296-3.575-.877a6.138 6.138 0 0 1-2.402-2.46c-.564-1.045-.846-2.253-.846-3.594 0-1.342.288-2.55.846-3.595a6.212 6.212 0 0 1 2.39-2.47c1.021-.593 2.222-.89 3.564-.89 1.663 0 3.068.415 4.167 1.23 1.105.822 1.827 1.94 2.137 3.332l.045.213h-3.146l-.045-.107a3.05 3.05 0 0 0-1.196-1.363c-.547-.341-1.2-.51-1.945-.51-.739 0-1.393.168-1.962.504-.564.33-1.01.816-1.32 1.43-.315.627-.473 1.37-.473 2.22 0 1.342.366 2.393 1.082 3.136.717.738 1.709 1.113 2.96 1.113.914 0 1.71-.274 2.363-.805.603-.498 1.02-1.185 1.23-2.04h-4.494v-2.254h7.132v2.734a6.39 6.39 0 0 1-1.144 2.532c-.564.76-1.314 1.376-2.228 1.834-.907.453-1.968.687-3.14.687Zm-.023-13.533c-1.28 0-2.419.285-3.389.844a5.903 5.903 0 0 0-2.26 2.331c-.536.995-.807 2.147-.807 3.427 0 1.28.27 2.437.806 3.426a5.779 5.779 0 0 0 2.267 2.32c.975.554 2.114.833 3.394.833 1.122 0 2.126-.218 2.989-.648a5.848 5.848 0 0 0 2.103-1.727 6.078 6.078 0 0 0 1.083-2.36l-.006-2.347h-6.422v1.548h4.578l-.04.207c-.208 1.04-.681 1.867-1.398 2.454-.721.587-1.59.889-2.588.889-1.347 0-2.43-.414-3.214-1.219-.784-.81-1.178-1.945-1.178-3.376 0-.9.175-1.7.513-2.376a3.737 3.737 0 0 1 1.455-1.576c.62-.37 1.342-.554 2.142-.554.818 0 1.534.19 2.137.565.57.352 1.004.827 1.28 1.414h2.47c-.316-1.207-.97-2.186-1.951-2.912-1.043-.777-2.374-1.163-3.964-1.163ZM70.159 36.374H67.48l-6-9.033v9.033h-2.678V23.087h2.678l6 9.112v-9.112h2.678v13.287Z" fill="#7D7D7D"/><path d="M70.334 36.553h-2.949l-5.728-8.625v8.625h-3.034v-13.64h2.949l5.729 8.699v-8.698h3.033v13.64Zm-2.757-.352h2.408v-12.94h-2.323v9.525l-6.27-9.526H58.99v12.941h2.323v-9.447l6.264 9.447ZM9.288 57.203c-.344.57-.846 1.029-1.517 1.375-.671.347-1.489.52-2.447.52-.947 0-1.799-.162-2.543-.48-.744-.32-1.348-.783-1.793-1.387-.451-.604-.705-1.303-.767-2.107h2.847c.062.542.282.989.654 1.347.373.358.869.536 1.489.536.558 0 .987-.145 1.28-.441.299-.297.445-.677.445-1.14 0-.414-.118-.755-.36-1.03a2.667 2.667 0 0 0-.914-.648 17.48 17.48 0 0 0-1.517-.564c-.834-.274-1.516-.548-2.052-.822a3.768 3.768 0 0 1-1.359-1.174c-.372-.514-.558-1.185-.558-2.012 0-1.14.417-2.04 1.246-2.7.829-.66 1.928-.99 3.293-.99 1.415 0 2.548.341 3.389 1.018.84.676 1.319 1.582 1.432 2.71H6.649a1.953 1.953 0 0 0-.61-1.173c-.326-.307-.777-.464-1.347-.464-.496 0-.89.129-1.195.386-.305.257-.457.631-.457 1.118 0 .391.119.715.35.967.237.257.53.47.89.631.362.163.852.347 1.472.548.863.302 1.562.582 2.098.85.536.263.998.66 1.376 1.185.377.526.57 1.219.57 2.068 0 .682-.17 1.303-.508 1.873Z" fill="#7D7D7D"/><path d="M5.317 59.272c-.97 0-1.85-.168-2.616-.492a4.486 4.486 0 0 1-1.866-1.443c-.468-.626-.74-1.364-.801-2.196l-.017-.19h3.197l.017.156c.056.503.254.911.603 1.241.339.324.795.486 1.37.486.508 0 .897-.134 1.156-.391.265-.263.395-.593.395-1.017 0-.375-.102-.671-.316-.912a2.459 2.459 0 0 0-.851-.603c-.361-.162-.869-.347-1.5-.56-.84-.279-1.54-.553-2.075-.827a3.914 3.914 0 0 1-1.421-1.23C.197 50.753 0 50.043 0 49.177c0-1.19.44-2.147 1.308-2.84.857-.682 2.002-1.028 3.406-1.028 1.455 0 2.633.357 3.501 1.056.874.705 1.382 1.655 1.5 2.829l.017.19h-3.23l-.023-.146a1.819 1.819 0 0 0-.553-1.079c-.293-.273-.705-.413-1.23-.413-.445 0-.811.117-1.082.347-.265.223-.394.547-.394.983 0 .347.101.626.304.85.214.24.496.436.835.587.355.162.845.341 1.454.537.869.301 1.585.592 2.12.855a3.857 3.857 0 0 1 1.444 1.24c.4.554.603 1.287.603 2.175 0 .705-.18 1.37-.535 1.962-.356.599-.891 1.08-1.59 1.443-.7.369-1.551.548-2.538.548ZM.4 55.302c.085.688.322 1.303.716 1.829a4.11 4.11 0 0 0 1.72 1.325c.722.307 1.556.463 2.476.463.93 0 1.725-.167 2.368-.497.637-.33 1.127-.766 1.449-1.308.321-.542.485-1.14.485-1.783 0-.81-.18-1.476-.536-1.968-.36-.503-.8-.883-1.314-1.13a19.82 19.82 0 0 0-2.08-.838 14.55 14.55 0 0 1-1.489-.553 2.912 2.912 0 0 1-.953-.671c-.265-.285-.395-.654-.395-1.084 0-.543.175-.962.52-1.253.338-.285.777-.43 1.313-.43.615 0 1.105.173 1.472.509.321.301.535.682.631 1.129h2.538c-.141-.99-.593-1.795-1.348-2.398-.806-.649-1.912-.979-3.276-.979-1.32 0-2.39.319-3.186.95-.795.632-1.178 1.47-1.178 2.566 0 .789.174 1.432.524 1.912.355.487.79.867 1.297 1.124.524.268 1.207.537 2.024.81.643.213 1.162.403 1.534.57.389.174.716.409.97.694.27.302.406.687.406 1.14 0 .509-.17.934-.497 1.264-.332.33-.806.492-1.41.492-.665 0-1.206-.196-1.612-.587a2.323 2.323 0 0 1-.688-1.297H.401ZM28.48 45.677v2.107h-3.704v11.18h-2.678v-11.18h-3.682v-2.107h10.065Z" fill="#7D7D7D"/><path d="M24.957 59.143h-3.034v-11.18h-3.682v-2.46h10.415v2.46H24.95v11.18h.006Zm-2.679-.352h2.324v-11.18h3.704v-1.755h-9.71v1.755h3.682v11.18ZM40.142 45.677v7.793c0 1.04.231 1.822.693 2.342.463.52 1.128.783 2.002.783.863 0 1.522-.263 1.985-.783.462-.52.693-1.302.693-2.342v-7.793h2.656v7.793c0 1.23-.231 2.27-.693 3.113-.463.85-1.1 1.476-1.918 1.895-.817.414-1.742.62-2.78.62-1.606 0-2.892-.474-3.856-1.43s-1.444-2.353-1.444-4.198v-7.793h2.662Z" fill="#7D7D7D"/><path d="M42.78 59.272c-1.647 0-2.989-.498-3.981-1.481-.992-.984-1.494-2.438-1.494-4.322v-7.971h3.01v7.971c0 .995.22 1.745.65 2.23.428.487 1.042.722 1.871.722.818 0 1.421-.235 1.85-.721.428-.486.648-1.236.648-2.23v-7.972h3.011v7.971c0 1.253-.242 2.331-.716 3.198-.48.877-1.15 1.537-1.99 1.962-.835.43-1.8.643-2.86.643ZM37.66 45.85v7.62c0 1.788.468 3.158 1.393 4.075.924.916 2.176 1.38 3.727 1.38 1.003 0 1.911-.2 2.7-.603.779-.397 1.399-1.007 1.844-1.823.446-.816.671-1.839.671-3.03V45.85H45.69v7.62c0 1.078-.248 1.906-.738 2.459-.497.559-1.207.838-2.115.838-.925 0-1.64-.285-2.137-.838-.49-.548-.739-1.375-.739-2.46V45.85h-2.3ZM11.54 78.373c-.557 1.006-1.364 1.783-2.418 2.342-1.054.56-2.312.839-3.767.839H.591V68.266h4.764c1.455 0 2.713.274 3.767.816 1.054.548 1.866 1.32 2.419 2.315.558 1 .834 2.163.834 3.493 0 1.32-.276 2.482-.834 3.483Zm-3.066-.319c.789-.754 1.184-1.805 1.184-3.164 0-1.37-.395-2.426-1.184-3.18-.79-.755-1.906-1.13-3.35-1.13h-1.86v8.603h1.86c1.444 0 2.56-.374 3.35-1.129Z" fill="#7D7D7D"/><path d="M5.35 81.733H.405v-13.64H5.35c1.478 0 2.774.28 3.851.838 1.083.56 1.923 1.364 2.493 2.387.57 1.018.857 2.225.857 3.578 0 1.341-.288 2.543-.857 3.566-.57 1.029-1.41 1.845-2.493 2.415-1.077.565-2.368.856-3.85.856ZM.766 81.38h4.59c1.42 0 2.661-.274 3.688-.816 1.02-.542 1.81-1.308 2.35-2.275.542-.973.813-2.119.813-3.399 0-1.291-.277-2.443-.812-3.41-.536-.961-1.33-1.716-2.346-2.247-1.026-.53-2.267-.8-3.687-.8H.772V81.38H.766Zm4.359-2.023H3.089v-8.95h2.036c1.483 0 2.65.397 3.473 1.18.823.782 1.24 1.895 1.24 3.309 0 1.397-.417 2.504-1.24 3.287-.823.777-1.99 1.174-3.473 1.174Zm-1.686-.347h1.686c1.387 0 2.475-.363 3.23-1.079.75-.715 1.134-1.738 1.134-3.035 0-1.314-.383-2.337-1.133-3.052-.756-.716-1.839-1.08-3.231-1.08H3.439v8.246ZM24.663 68.266v13.288h-2.679V68.266h2.679Z" fill="#7D7D7D"/><path d="M24.843 81.733H21.81v-13.64h3.033v13.64Zm-2.678-.353h2.323V68.44h-2.323v12.94ZM46.28 68.942a6.326 6.326 0 0 1 2.413 2.42c.587 1.035.885 2.209.885 3.511 0 1.308-.293 2.477-.885 3.522a6.265 6.265 0 0 1-2.413 2.426c-1.02.576-2.154.867-3.406.867-1.252 0-2.39-.291-3.406-.867a6.302 6.302 0 0 1-2.413-2.426c-.586-1.04-.885-2.214-.885-3.522 0-1.302.293-2.476.885-3.51a6.326 6.326 0 0 1 2.413-2.42c1.021-.577 2.154-.867 3.406-.867 1.252 0 2.385.29 3.406.866Zm-5.475 2.108c-.598.352-1.06.855-1.398 1.514-.333.66-.502 1.426-.502 2.31 0 .877.169 1.648.502 2.308.332.66.8 1.163 1.398 1.515.592.352 1.285.525 2.07.525.783 0 1.477-.173 2.069-.525a3.66 3.66 0 0 0 1.398-1.515c.333-.66.502-1.426.502-2.309 0-.877-.17-1.649-.502-2.309-.338-.66-.8-1.162-1.398-1.514-.598-.353-1.286-.526-2.07-.526-.79 0-1.477.173-2.07.526Z" fill="#7D7D7D"/><path d="M42.875 81.86c-1.28 0-2.453-.301-3.496-.888a6.535 6.535 0 0 1-2.481-2.493c-.603-1.062-.908-2.275-.908-3.606 0-1.33.305-2.538.908-3.6a6.53 6.53 0 0 1 2.475-2.482c1.044-.587 2.216-.889 3.496-.889 1.28 0 2.453.302 3.496.89a6.49 6.49 0 0 1 2.475 2.481c.604 1.057.908 2.27.908 3.6s-.304 2.544-.907 3.606a6.457 6.457 0 0 1-2.482 2.493c-1.031.592-2.21.889-3.484.889Zm0-13.606c-1.218 0-2.334.286-3.321.845a6.136 6.136 0 0 0-2.346 2.353c-.57 1.006-.862 2.158-.862 3.427 0 1.269.287 2.426.862 3.432a6.165 6.165 0 0 0 2.346 2.365c.986.559 2.103.844 3.32.844 1.219 0 2.335-.285 3.322-.844a6.126 6.126 0 0 0 2.346-2.365c.57-1.012.862-2.169.862-3.432 0-1.27-.287-2.42-.862-3.427a6.174 6.174 0 0 0-2.346-2.353c-.992-.565-2.109-.845-3.321-.845Zm0 11.141c-.812 0-1.54-.184-2.16-.553a3.779 3.779 0 0 1-1.46-1.588c-.344-.681-.524-1.48-.524-2.386 0-.9.174-1.705.524-2.387.35-.688.84-1.219 1.46-1.588s1.348-.553 2.16-.553 1.54.184 2.16.553c.62.369 1.11.9 1.46 1.588.344.682.524 1.481.524 2.387 0 .9-.175 1.705-.524 2.386a3.815 3.815 0 0 1-1.46 1.588c-.62.369-1.348.553-2.16.553Zm0-8.698c-.75 0-1.415.168-1.98.504-.563.33-1.009.816-1.33 1.442-.321.631-.485 1.38-.485 2.225 0 .844.164 1.593.485 2.224a3.42 3.42 0 0 0 1.33 1.443c.565.335 1.23.503 1.98.503s1.415-.168 1.979-.503c.564-.33 1.01-.816 1.33-1.443.322-.631.486-1.38.486-2.224 0-.844-.164-1.594-.485-2.225-.322-.626-.767-1.113-1.331-1.442-.57-.33-1.235-.504-1.98-.504ZM70.898 59.83l-5.97-15.864a.53.53 0 0 0-.993 0L57.964 59.83c-.006.012 0 .023-.006.029l-.017.083a.279.279 0 0 0-.011.073v21.483c0 .29.236.525.53.525.293 0 .53-.235.53-.525V61.07l2.108 1.577v18.85c0 .29.237.525.53.525.294 0 .53-.235.53-.525V62.614l2.245-2.057 2.244 2.063v18.878c0 .29.237.525.53.525.293 0 .53-.235.53-.525V62.636l2.154-1.79v20.656c0 .29.237.526.53.526.293 0 .53-.235.53-.526V60.021a.355.355 0 0 0-.023-.19Zm-6.467-14.176 1.353 3.6h-2.706l1.353-3.6Zm-.383 13.802L61.6 61.703l-2.503-1.873 3.586-9.525h3.502l3.507 9.319-2.487 2.068-2.436-2.236a.528.528 0 0 0-.722 0ZM53.785.855v1.286h1.77v.755h-1.77v1.336h1.98v.794h-2.978V.073h2.977V.86h-1.979V.855ZM63.286 4.366c-.13.212-.316.386-.564.514-.248.129-.552.196-.913.196-.355 0-.671-.062-.947-.18a1.621 1.621 0 0 1-.671-.513 1.456 1.456 0 0 1-.288-.789h1.06a.82.82 0 0 0 .243.503c.14.135.321.202.558.202.208 0 .366-.056.48-.168a.57.57 0 0 0 .168-.425.542.542 0 0 0-.135-.38 1 1 0 0 0-.338-.24c-.136-.062-.327-.129-.564-.213-.31-.1-.564-.207-.761-.307a1.407 1.407 0 0 1-.508-.442c-.14-.19-.209-.441-.209-.749 0-.425.153-.76.463-1.006.31-.246.716-.369 1.229-.369.53 0 .947.129 1.263.38.316.252.49.587.536 1.012H62.31a.714.714 0 0 0-.226-.436c-.124-.118-.287-.173-.502-.173a.666.666 0 0 0-.445.145c-.113.095-.17.235-.17.42 0 .145.046.268.13.363a.983.983 0 0 0 .333.234c.136.062.316.129.547.202.322.111.58.218.784.313.203.1.372.246.513.441.14.196.214.453.214.772a1.5 1.5 0 0 1-.203.693ZM71.147.067v.789h-1.382V5.02h-.998V.856h-1.375V.067h3.755ZM46.337 9.928c0-.218-.05-.391-.158-.52-.107-.129-.27-.19-.502-.19-.468 0-.716.313-.744.945h-.97c.029-.582.209-1.029.536-1.33.333-.303.75-.454 1.252-.454.513 0 .907.135 1.184.397.276.263.411.615.411 1.057 0 .346-.101.693-.31 1.04-.203.346-.468.67-.784.961-.315.29-.648.542-.998.755h2.188v.805h-3.518v-.738c1.612-1.096 2.413-2.007 2.413-2.728ZM51.553 10.924c0-1.678.637-2.51 1.911-2.51.677 0 1.162.223 1.46.676.3.447.446 1.062.446 1.84 0 .782-.147 1.397-.445 1.844-.3.447-.784.67-1.46.67-1.275-.005-1.912-.843-1.912-2.52Zm2.83 0c0-.504-.062-.895-.186-1.169s-.366-.408-.733-.408c-.366 0-.614.134-.738.408-.124.274-.187.665-.187 1.168 0 .51.063.9.187 1.175.124.273.372.408.738.408.361 0 .61-.135.733-.409.124-.273.186-.665.186-1.173ZM61.894 9.928c0-.218-.05-.391-.158-.52-.107-.129-.27-.19-.496-.19-.468 0-.716.313-.744.945h-.97c.028-.582.208-1.029.535-1.33.333-.303.75-.454 1.252-.454.513 0 .908.135 1.184.397.277.263.412.615.412 1.057 0 .346-.102.693-.31 1.04a4.2 4.2 0 0 1-.784.961c-.316.29-.648.542-.998.755h2.188v.805h-3.519v-.738c1.607-1.096 2.408-2.007 2.408-2.728ZM67.103 10.924c0-1.678.638-2.51 1.912-2.51.677 0 1.162.223 1.46.676.3.447.446 1.062.446 1.84 0 .782-.147 1.397-.446 1.844-.298.447-.783.67-1.46.67-1.274-.005-1.912-.843-1.912-2.52Zm2.831 0c0-.504-.062-.895-.186-1.169s-.372-.408-.733-.408c-.367 0-.615.134-.739.408-.124.274-.186.665-.186 1.168 0 .51.062.9.186 1.175.124.273.373.408.739.408.36 0 .609-.135.733-.409.124-.273.186-.665.186-1.173Z" fill="#7D7D7D"/></svg>