<svg xmlns="http://www.w3.org/2000/svg" width="27" height="32" fill="none"><path fill="#CAD3DB" d="M9.276.172c-3.767 0-6.842 2.754-6.842 6.126 0 3.372 3.075 6.125 6.842 6.125 3.767 0 6.842-2.753 6.842-6.125S13.043.172 9.276.172Zm0 13.792c-5.12 0-9.276 3.72-9.276 8.303v4.705c0 .264.117.516.325.702.209.186.49.29.785.29h7.829a8.46 8.46 0 0 1-.768-3.503c0-3.982 2.815-7.406 6.745-8.775-1.563-1.076-3.516-1.722-5.64-1.722Zm9.417 3.062c-4.575 0-8.307 3.34-8.307 7.435s3.732 7.436 8.307 7.436S27 28.556 27 24.46s-3.732-7.435-8.307-7.435Zm.169 3.522c.192.013.386.041.577.087 1.534.367 2.537 1.709 2.33 3.117-.156 1.066-.97 1.933-2.044 2.293v1.338a.939.939 0 0 1-.316.716c-.208.19-.494.298-.792.298-.298 0-.584-.108-.792-.298a.939.939 0 0 1-.316-.716v-2.151a.94.94 0 0 1 .313-.703 1.174 1.174 0 0 1 .875-.298c.454-.032.811-.321.872-.734.064-.437-.228-.839-.703-.953-.476-.114-.948.098-1.136.506-.15.328-.485.56-.877.607a1.174 1.174 0 0 1-1.027-.377.909.909 0 0 1-.149-.984c.53-1.148 1.839-1.84 3.184-1.748Z"/></svg>