<svg xmlns="http://www.w3.org/2000/svg" width="195" height="140" fill="none"><path stroke="#E9F4F6" stroke-width="2" d="m143 16-5-4 5-4"/><path stroke="#E9F4F6" stroke-width="2" d="M138.435 12H191v123"/><path fill="#4E6E77" d="M3.92 15.128c-.683 0-1.28-.101-1.792-.304-.512-.213-.907-.459-1.184-.736-.277-.288-.416-.544-.416-.768a.71.71 0 0 1 .08-.32c.064-.117.139-.213.224-.288a.437.437 0 0 1 .288-.128c.128 0 .25.064.368.192l.464.464c.192.17.437.32.736.448s.688.192 1.168.192c.448 0 .837-.07 1.168-.208.33-.15.587-.368.768-.656.192-.299.288-.672.288-1.12 0-.459-.096-.832-.288-1.12a2.373 2.373 0 0 0-.768-.72A6.55 6.55 0 0 0 4 9.544a61.22 61.22 0 0 0-1.12-.448 5.294 5.294 0 0 1-1.024-.576 2.681 2.681 0 0 1-.752-.896C.912 7.261.816 6.803.816 6.248c0-.587.107-1.072.32-1.456.213-.384.496-.688.848-.912.352-.224.73-.379 1.136-.464a5.4 5.4 0 0 1 1.216-.144c.288 0 .592.021.912.064.32.043.624.107.912.192.288.085.523.197.704.336.181.128.272.283.272.464a.913.913 0 0 1-.064.304 1.039 1.039 0 0 1-.192.304.434.434 0 0 1-.32.128c-.117 0-.261-.048-.432-.144-.17-.107-.4-.208-.688-.304-.277-.107-.645-.16-1.104-.16-.384 0-.747.053-1.088.16-.33.107-.597.283-.8.528-.192.245-.288.57-.288.976 0 .384.096.699.288.944.192.245.443.448.752.608.31.16.65.31 1.024.448.373.128.747.283 1.12.464.373.17.715.384 1.024.64.32.256.576.592.768 1.008.192.405.288.917.288 1.536 0 .768-.155 1.403-.464 1.904-.299.49-.71.859-1.232 1.104-.523.235-1.125.352-1.808.352Zm6.431 3.536a.7.7 0 0 1-.464-.16c-.117-.096-.176-.203-.176-.32V7.88c0-.139.059-.25.176-.336a.817.817 0 0 1 .464-.128c.182 0 .33.043.448.128a.397.397 0 0 1 .176.336v.656c.182-.31.454-.587.816-.832.363-.256.806-.384 1.328-.384.534 0 1.019.144 1.456.432a3.04 3.04 0 0 1 1.04 1.104c.256.459.384.97.384 1.536v1.632c0 .533-.133 1.04-.4 1.52-.256.47-.597.853-1.024 1.152a2.464 2.464 0 0 1-1.408.432c-.48 0-.912-.123-1.296-.368-.384-.256-.661-.55-.832-.88v4.304c0 .117-.07.224-.208.32a.724.724 0 0 1-.48.16Zm2.496-4.736c.32 0 .619-.09.896-.272.278-.181.502-.421.672-.72a1.82 1.82 0 0 0 .256-.912v-1.632c0-.31-.085-.608-.256-.896a2.122 2.122 0 0 0-.672-.704 1.66 1.66 0 0 0-.928-.272c-.288 0-.57.08-.848.24-.266.15-.49.363-.672.64-.17.267-.256.597-.256.992v2.064c0 .139.075.325.224.56.16.235.374.448.64.64.278.181.592.272.944.272Zm7.138 1.2c-.597 0-1.109-.17-1.535-.512-.416-.352-.624-.89-.624-1.616 0-.587.16-1.04.48-1.36.32-.33.757-.555 1.311-.672.566-.128 1.216-.192 1.953-.192h.767v-.336c0-.32-.058-.63-.175-.928a1.65 1.65 0 0 0-.56-.752c-.246-.203-.587-.304-1.024-.304-.374 0-.672.037-.896.112a2.311 2.311 0 0 0-.512.24.691.691 0 0 1-.337.112.403.403 0 0 1-.367-.224.96.96 0 0 1-.129-.448c0-.17.118-.325.352-.464.235-.139.529-.25.88-.336a4.404 4.404 0 0 1 1.04-.128c.747 0 1.344.15 1.792.448.448.299.768.683.96 1.152.203.47.305.97.305 1.504v4.096c0 .128-.064.24-.192.336a.71.71 0 0 1-.465.144.66.66 0 0 1-.431-.144.425.425 0 0 1-.177-.336v-.64a4.72 4.72 0 0 1-1.008.864c-.394.256-.864.384-1.408.384Zm.416-1.072c.31 0 .608-.085.896-.256.3-.17.544-.384.736-.64.203-.256.304-.501.304-.736v-.832h-.56a9.82 9.82 0 0 0-1.28.08c-.394.053-.714.17-.96.352-.245.17-.367.448-.367.832 0 .416.117.72.351.912.235.192.528.288.88.288Zm8.74 1.072c-.735 0-1.343-.139-1.823-.416a2.693 2.693 0 0 1-1.056-1.104 3.632 3.632 0 0 1-.336-1.584v-1.6c0-.576.112-1.099.336-1.568.234-.47.586-.843 1.056-1.12.48-.277 1.082-.416 1.808-.416.47 0 .88.059 1.232.176.352.117.624.261.816.432.192.17.288.336.288.496a.656.656 0 0 1-.08.288.737.737 0 0 1-.192.256.37.37 0 0 1-.272.112c-.107 0-.224-.048-.352-.144a1.913 1.913 0 0 0-.496-.272c-.203-.096-.49-.144-.864-.144-.65 0-1.142.17-1.472.512-.32.341-.48.805-.48 1.392v1.6c0 .587.16 1.05.48 1.392.33.341.826.512 1.488.512.384 0 .682-.048.896-.144a3.64 3.64 0 0 0 .496-.288.62.62 0 0 1 .368-.144c.117 0 .218.037.304.112a.6.6 0 0 1 .192.24c.053.096.08.192.08.288 0 .16-.102.33-.304.512-.203.17-.486.32-.848.448a4.113 4.113 0 0 1-1.264.176Zm5.12-9.792a.872.872 0 0 1-.592-.224.75.75 0 0 1-.24-.544.7.7 0 0 1 .24-.528.872.872 0 0 1 .592-.224.78.78 0 0 1 .576.224.7.7 0 0 1 .24.528.75.75 0 0 1-.24.544.78.78 0 0 1-.576.224Zm0 9.664a.778.778 0 0 1-.48-.144c-.117-.107-.176-.219-.176-.336V7.88c0-.139.059-.25.176-.336a.847.847 0 0 1 .48-.128c.182 0 .336.043.464.128.139.085.208.197.208.336v6.64c0 .117-.07.23-.208.336a.751.751 0 0 1-.464.144Zm4.931.128c-.597 0-1.109-.17-1.536-.512-.416-.352-.624-.89-.624-1.616 0-.587.16-1.04.48-1.36.32-.33.758-.555 1.312-.672.566-.128 1.216-.192 1.952-.192h.768v-.336c0-.32-.058-.63-.176-.928a1.65 1.65 0 0 0-.56-.752c-.245-.203-.586-.304-1.024-.304-.373 0-.672.037-.896.112a2.31 2.31 0 0 0-.512.24.691.691 0 0 1-.336.112.403.403 0 0 1-.368-.224.959.959 0 0 1-.128-.448c0-.17.118-.325.352-.464.235-.139.528-.25.88-.336a4.403 4.403 0 0 1 1.04-.128c.747 0 1.344.15 1.792.448.448.299.768.683.96 1.152.203.47.304.97.304 1.504v4.096c0 .128-.064.24-.192.336a.71.71 0 0 1-.464.144.66.66 0 0 1-.432-.144.425.425 0 0 1-.176-.336v-.64c-.277.32-.613.608-1.008.864-.394.256-.864.384-1.408.384Zm.416-1.072c.31 0 .608-.085.896-.256.299-.17.544-.384.736-.64.203-.256.304-.501.304-.736v-.832h-.56a9.82 9.82 0 0 0-1.28.08c-.394.053-.714.17-.96.352-.245.17-.368.448-.368.832 0 .416.118.72.352.912.235.192.528.288.88.288Zm6.597.944a.778.778 0 0 1-.48-.144c-.118-.107-.176-.219-.176-.336V3.304c0-.139.058-.25.176-.336a.847.847 0 0 1 .48-.128c.181 0 .336.043.464.128.138.085.208.197.208.336V14.52c0 .117-.07.23-.208.336a.751.751 0 0 1-.464.144Zm8.207 0c-.16 0-.315-.037-.464-.112a.373.373 0 0 1-.208-.352V3.784c0-.16.064-.277.192-.352a.735.735 0 0 1 .416-.128h5.648c.16 0 .277.064.352.192a.784.784 0 0 1-.016.832.365.365 0 0 1-.336.192h-4.912v4.064h2.512c.15 0 .261.059.336.176a.676.676 0 0 1 .016.768c-.075.117-.192.176-.352.176h-2.512v4.832c0 .16-.07.277-.208.352a.963.963 0 0 1-.464.112Zm7.239.128c-.598 0-1.11-.17-1.537-.512-.415-.352-.623-.89-.623-1.616 0-.587.16-1.04.48-1.36.32-.33.757-.555 1.312-.672.565-.128 1.215-.192 1.951-.192h.768v-.336c0-.32-.058-.63-.175-.928a1.65 1.65 0 0 0-.56-.752c-.246-.203-.587-.304-1.025-.304-.373 0-.671.037-.895.112a2.311 2.311 0 0 0-.513.24.691.691 0 0 1-.336.112.403.403 0 0 1-.367-.224.96.96 0 0 1-.129-.448c0-.17.118-.325.352-.464.235-.139.529-.25.88-.336a4.404 4.404 0 0 1 1.04-.128c.747 0 1.344.15 1.793.448.448.299.768.683.96 1.152.202.47.303.97.303 1.504v4.096c0 .128-.064.24-.192.336a.71.71 0 0 1-.464.144.66.66 0 0 1-.431-.144.425.425 0 0 1-.176-.336v-.64a4.72 4.72 0 0 1-1.008.864c-.395.256-.864.384-1.408.384Zm.415-1.072c.31 0 .608-.085.896-.256.3-.17.544-.384.736-.64.203-.256.304-.501.304-.736v-.832h-.56a9.82 9.82 0 0 0-1.28.08c-.394.053-.714.17-.96.352-.245.17-.367.448-.367.832 0 .416.117.72.352.912.234.192.528.288.88.288Zm8.247 1.088a.917.917 0 0 1-.384-.08.392.392 0 0 1-.224-.208l-2.624-6.64a1.656 1.656 0 0 1-.048-.112.739.739 0 0 1-.016-.144c0-.107.043-.203.128-.288a.849.849 0 0 1 .336-.208c.139-.053.267-.08.384-.08.085 0 .17.021.256.064a.345.345 0 0 1 .176.192l2.016 5.44 2.016-5.376a.481.481 0 0 1 .144-.224.427.427 0 0 1 .288-.096c.107 0 .224.027.352.08a.992.992 0 0 1 .352.208c.107.085.16.181.16.288 0 .053-.01.101-.032.144-.01.043-.021.08-.032.112l-2.624 6.64a.471.471 0 0 1-.24.208.917.917 0 0 1-.384.08ZM76.098 15a.751.751 0 0 1-.464-.144c-.118-.107-.176-.219-.176-.336V7.88c0-.139.058-.25.176-.336a.817.817 0 0 1 .464-.128c.181 0 .33.043.448.128a.397.397 0 0 1 .176.336v.752c.117-.224.277-.432.48-.624.202-.203.437-.368.704-.496a2.15 2.15 0 0 1 .912-.192h.544a.44.44 0 0 1 .352.176c.106.117.16.261.16.432 0 .16-.054.299-.16.416a.44.44 0 0 1-.352.176h-.544c-.342 0-.667.096-.976.288-.31.192-.566.464-.768.816-.192.341-.288.757-.288 1.248v3.648c0 .117-.07.23-.208.336a.778.778 0 0 1-.48.144Zm6.204-9.664a.872.872 0 0 1-.592-.224.75.75 0 0 1-.24-.544.7.7 0 0 1 .24-.528.872.872 0 0 1 .593-.224.78.78 0 0 1 .576.224.7.7 0 0 1 .24.528.75.75 0 0 1-.24.544.78.78 0 0 1-.577.224Zm0 9.664a.778.778 0 0 1-.48-.144c-.117-.107-.175-.219-.175-.336V7.88c0-.139.058-.25.175-.336a.847.847 0 0 1 .48-.128c.182 0 .336.043.464.128.14.085.209.197.209.336v6.64c0 .117-.07.23-.209.336a.751.751 0 0 1-.464.144Zm6.212.128c-.736 0-1.344-.139-1.824-.416a2.693 2.693 0 0 1-1.056-1.104 3.632 3.632 0 0 1-.336-1.584v-1.6c0-.576.112-1.099.336-1.568.234-.47.586-.843 1.056-1.12.48-.277 1.082-.416 1.808-.416.469 0 .88.059 1.232.176.352.117.624.261.816.432.192.17.288.336.288.496a.655.655 0 0 1-.08.288.734.734 0 0 1-.192.256.37.37 0 0 1-.272.112c-.107 0-.224-.048-.352-.144a1.91 1.91 0 0 0-.496-.272c-.203-.096-.491-.144-.864-.144-.651 0-1.142.17-1.472.512-.32.341-.48.805-.48 1.392v1.6c0 .587.16 1.05.48 1.392.33.341.826.512 1.488.512.384 0 .682-.048.896-.144.213-.107.378-.203.496-.288a.62.62 0 0 1 .368-.144c.117 0 .218.037.304.112a.6.6 0 0 1 .192.24c.053.096.08.192.08.288 0 .16-.102.33-.304.512-.203.17-.486.32-.848.448a4.112 4.112 0 0 1-1.264.176ZM97.7 15a.81.81 0 0 1-.416-.112.416.416 0 0 1-.192-.368V3.768c0-.16.07-.277.208-.352a1.025 1.025 0 0 1 .928 0 .373.373 0 0 1 .208.352v10.016h4.384a.33.33 0 0 1 .32.192.755.755 0 0 1 .112.416c0 .15-.037.288-.112.416a.33.33 0 0 1-.32.192H97.7Zm9.069.128c-.598 0-1.11-.17-1.536-.512-.416-.352-.624-.89-.624-1.616 0-.587.16-1.04.48-1.36.32-.33.757-.555 1.312-.672.565-.128 1.216-.192 1.952-.192h.768v-.336c0-.32-.059-.63-.176-.928a1.655 1.655 0 0 0-.56-.752c-.246-.203-.587-.304-1.024-.304-.374 0-.672.037-.896.112a2.296 2.296 0 0 0-.512.24.691.691 0 0 1-.336.112.403.403 0 0 1-.368-.224.952.952 0 0 1-.128-.448c0-.17.117-.325.352-.464.234-.139.528-.25.88-.336a4.4 4.4 0 0 1 1.04-.128c.746 0 1.344.15 1.792.448.448.299.768.683.96 1.152.202.47.304.97.304 1.504v4.096c0 .128-.064.24-.192.336a.711.711 0 0 1-.464.144.659.659 0 0 1-.432-.144.423.423 0 0 1-.176-.336v-.64c-.278.32-.614.608-1.008.864-.395.256-.864.384-1.408.384Zm.416-1.072c.309 0 .608-.085.896-.256.298-.17.544-.384.736-.64.202-.256.304-.501.304-.736v-.832h-.56c-.448 0-.875.027-1.28.08-.395.053-.715.17-.96.352-.246.17-.368.448-.368.832 0 .416.117.72.352.912.234.192.528.288.88.288Zm7.972 1.072c-.512 0-.965-.064-1.36-.192-.395-.139-.704-.299-.928-.48-.224-.181-.336-.363-.336-.544 0-.085.021-.17.064-.256a.793.793 0 0 1 .16-.24.337.337 0 0 1 .24-.112c.128 0 .267.064.416.192.149.117.352.24.608.368s.624.192 1.104.192c.565 0 .96-.101 1.184-.304.224-.213.336-.448.336-.704 0-.33-.096-.581-.288-.752a1.897 1.897 0 0 0-.736-.416 16.394 16.394 0 0 0-.944-.304 6.618 6.618 0 0 1-.944-.352 2.048 2.048 0 0 1-.736-.608c-.181-.267-.272-.619-.272-1.056 0-.352.085-.699.256-1.04.171-.341.448-.624.832-.848.384-.235.896-.352 1.536-.352.373 0 .731.043 1.072.128.352.075.635.181.848.32.224.128.336.267.336.416a.73.73 0 0 1-.064.256.995.995 0 0 1-.176.288.366.366 0 0 1-.288.128c-.085 0-.208-.037-.368-.112a3.133 3.133 0 0 0-.56-.24 2.39 2.39 0 0 0-.784-.112c-.352 0-.635.064-.848.192a1.147 1.147 0 0 0-.464.432.952.952 0 0 0-.144.496c0 .267.091.475.272.624.192.15.437.272.736.368.309.085.629.176.96.272.331.085.645.213.944.384.299.16.544.384.736.672.192.288.288.672.288 1.152 0 .65-.235 1.173-.704 1.568-.469.384-1.131.576-1.984.576Zm7.48-.128c-.864 0-1.525-.192-1.984-.576-.448-.384-.672-.997-.672-1.84v-8.24c0-.139.07-.25.208-.336a.84.84 0 0 1 .448-.128c.171 0 .326.043.464.128.139.085.208.197.208.336v3.072h2.016c.128 0 .224.053.288.16.075.107.112.23.112.368a.623.623 0 0 1-.112.368.323.323 0 0 1-.288.144h-2.016v4.128c0 .459.096.784.288.976.203.181.55.272 1.04.272h.496c.192 0 .336.059.432.176.096.117.144.25.144.4a.68.68 0 0 1-.144.416c-.096.117-.24.176-.432.176h-.496ZM1.744 35a.811.811 0 0 1-.416-.112.416.416 0 0 1-.192-.368V23.768c0-.16.07-.277.208-.352a1.025 1.025 0 0 1 .928 0 .373.373 0 0 1 .208.352v10.016h4.384a.33.33 0 0 1 .32.192.758.758 0 0 1 .112.416c0 .15-.037.288-.112.416a.33.33 0 0 1-.32.192h-5.12Zm10.003.128a2.992 2.992 0 0 1-1.568-.432 3.498 3.498 0 0 1-1.152-1.152 2.854 2.854 0 0 1-.432-1.52v-1.632c0-.544.138-1.045.416-1.504.288-.47.672-.848 1.152-1.136a3.021 3.021 0 0 1 1.584-.432c.565 0 1.088.144 1.568.432.48.277.864.645 1.152 1.104.298.459.448.97.448 1.536v1.632c0 .533-.15 1.04-.448 1.52-.288.47-.672.853-1.152 1.152a2.992 2.992 0 0 1-1.568.432Zm0-1.2c.341 0 .645-.09.912-.272.277-.181.501-.416.672-.704.17-.299.256-.608.256-.928v-1.632c0-.31-.086-.608-.256-.896a1.976 1.976 0 0 0-.656-.704 1.66 1.66 0 0 0-.928-.272c-.342 0-.65.09-.928.272a1.975 1.975 0 0 0-.656.704c-.16.288-.24.587-.24.896v1.632c0 .32.08.63.24.928.16.288.378.523.656.704.277.181.586.272.928.272ZM17.884 35a.778.778 0 0 1-.48-.144c-.118-.107-.176-.219-.176-.336v-6.64c0-.139.058-.25.176-.336a.847.847 0 0 1 .48-.128c.17 0 .314.043.432.128a.397.397 0 0 1 .176.336v.656c.17-.31.437-.587.8-.832.362-.256.81-.384 1.344-.384.512 0 .981.144 1.408.432a3.098 3.098 0 0 1 1.408 2.64v4.128c0 .16-.07.283-.208.368a.963.963 0 0 1-.464.112.93.93 0 0 1-.448-.112.408.408 0 0 1-.208-.368v-4.128c0-.31-.086-.608-.256-.896a1.976 1.976 0 0 0-.656-.704 1.633 1.633 0 0 0-.912-.272c-.288 0-.566.08-.832.24-.267.15-.486.363-.656.64-.17.267-.256.597-.256.992v4.128c0 .117-.07.23-.208.336a.751.751 0 0 1-.464.144Zm10.863 3.664c-.63 0-1.195-.09-1.696-.272-.501-.17-.901-.421-1.2-.752a1.642 1.642 0 0 1-.432-1.136c0-.448.128-.816.384-1.104.267-.277.57-.49.912-.64a1.593 1.593 0 0 1-.592-.368c-.15-.17-.224-.405-.224-.704 0-.299.075-.533.224-.704.15-.181.341-.341.576-.48a2.43 2.43 0 0 1-.672-.864 2.75 2.75 0 0 1-.24-1.152v-.528c0-.523.117-.981.352-1.376.235-.395.565-.704.992-.928.437-.224.944-.336 1.52-.336.373 0 .715.059 1.024.176.32.107.597.256.832.448.17-.352.347-.613.528-.784.192-.17.379-.256.56-.256.192 0 .336.053.432.16a.498.498 0 0 1 .144.336.34.34 0 0 1-.08.224.507.507 0 0 1-.192.144 1.728 1.728 0 0 0-.416.192c-.15.096-.293.256-.432.48.16.203.277.437.352.704.085.256.128.528.128.816v.528c0 .501-.123.955-.368 1.36a2.615 2.615 0 0 1-1.024.96c-.437.224-.939.336-1.504.336-.437 0-.827-.08-1.168-.24a1.487 1.487 0 0 0-.288.224c-.085.075-.128.181-.128.32 0 .224.117.384.352.48.245.096.555.165.928.208.373.043.768.09 1.184.144.416.053.81.15 1.184.288.373.128.677.33.912.608.245.277.368.661.368 1.152 0 .523-.144.955-.432 1.296-.288.352-.677.613-1.168.784-.48.17-1.024.256-1.632.256Zm-.032-.928c.608 0 1.088-.128 1.44-.384.352-.245.528-.576.528-.992 0-.299-.09-.533-.272-.704a1.835 1.835 0 0 0-.704-.368 6.012 6.012 0 0 0-.912-.16c-.31-.021-.592-.048-.848-.08a2.59 2.59 0 0 0-.896.48 1.05 1.05 0 0 0-.368.832c0 .416.187.747.56.992.373.256.864.384 1.472.384Zm-.048-5.504c.49 0 .875-.165 1.152-.496.277-.33.416-.747.416-1.248v-.528c0-.49-.139-.901-.416-1.232-.277-.33-.667-.496-1.168-.496-.501 0-.89.165-1.168.496-.267.33-.4.741-.4 1.232v.512c0 .501.139.923.416 1.264.277.33.667.496 1.168.496Zm8.624 2.896c-.693 0-1.306-.128-1.84-.384a3.232 3.232 0 0 1-1.264-1.088c-.309-.47-.463-1.013-.463-1.632v-1.68c0-.544.144-1.045.432-1.504a3.407 3.407 0 0 1 1.168-1.104 3.11 3.11 0 0 1 1.584-.416c.554 0 1.06.128 1.52.384.469.256.842.603 1.12 1.04.288.437.431.944.431 1.52 0 .427-.069.736-.207.928a.861.861 0 0 1-.529.336 3.418 3.418 0 0 1-.672.064h-3.52v.48c0 .597.214 1.072.64 1.424.427.341.976.512 1.648.512.395 0 .71-.053.944-.16.235-.107.427-.208.576-.304.15-.107.283-.16.4-.16a.39.39 0 0 1 .288.112c.086.064.15.144.193.24a.642.642 0 0 1 .063.256c0 .139-.1.299-.303.48-.203.17-.496.325-.88.464-.374.128-.816.192-1.328.192Zm-2.24-4.432h2.96c.288 0 .475-.032.56-.096.096-.075.145-.213.145-.416 0-.32-.08-.613-.24-.88a1.764 1.764 0 0 0-1.584-.928c-.331 0-.635.08-.912.24-.278.15-.502.357-.672.624a1.6 1.6 0 0 0-.257.88v.576ZM42.81 35a.751.751 0 0 1-.464-.144c-.117-.107-.176-.219-.176-.336v-6.64c0-.139.059-.25.176-.336a.818.818 0 0 1 .464-.128c.181 0 .33.043.448.128a.397.397 0 0 1 .176.336v.752c.117-.224.277-.432.48-.624.203-.203.437-.368.704-.496a2.15 2.15 0 0 1 .912-.192h.544a.44.44 0 0 1 .352.176c.107.117.16.261.16.432 0 .16-.053.299-.16.416a.44.44 0 0 1-.352.176h-.544c-.341 0-.667.096-.976.288-.31.192-.565.464-.768.816-.192.341-.288.757-.288 1.248v3.648c0 .117-.07.23-.208.336a.778.778 0 0 1-.48.144Zm12.448.128c-.683 0-1.28-.101-1.792-.304-.512-.213-.907-.459-1.184-.736-.277-.288-.416-.544-.416-.768a.71.71 0 0 1 .08-.32c.064-.117.139-.213.224-.288a.437.437 0 0 1 .288-.128c.128 0 .25.064.368.192l.464.464c.192.17.437.32.736.448s.688.192 1.168.192c.448 0 .837-.07 1.168-.208.33-.15.587-.368.768-.656.192-.299.288-.672.288-1.12 0-.459-.096-.832-.288-1.12a2.373 2.373 0 0 0-.768-.72 6.552 6.552 0 0 0-1.024-.512c-.363-.15-.736-.299-1.12-.448a5.291 5.291 0 0 1-1.024-.576 2.68 2.68 0 0 1-.752-.896c-.192-.363-.288-.821-.288-1.376 0-.587.107-1.072.32-1.456.213-.384.496-.688.848-.912.352-.224.73-.379 1.136-.464a5.4 5.4 0 0 1 1.216-.144c.288 0 .592.021.912.064.32.043.624.107.912.192.288.085.523.197.704.336.181.128.272.283.272.464a.915.915 0 0 1-.064.304 1.04 1.04 0 0 1-.192.304.434.434 0 0 1-.32.128c-.117 0-.261-.048-.432-.144-.17-.107-.4-.208-.688-.304-.278-.107-.645-.16-1.104-.16-.384 0-.747.053-1.088.16-.33.107-.598.283-.8.528-.192.245-.288.57-.288.976 0 .384.096.699.288.944.192.245.443.448.752.608.31.16.65.31 1.024.448.373.128.746.283 1.12.464.373.17.715.384 1.024.64.32.256.576.592.768 1.008.192.405.288.917.288 1.536 0 .768-.155 1.403-.464 1.904-.299.49-.71.859-1.232 1.104-.523.235-1.125.352-1.808.352Zm8.64 0a2.992 2.992 0 0 1-1.569-.432 3.499 3.499 0 0 1-1.152-1.152 2.854 2.854 0 0 1-.432-1.52v-1.632c0-.544.139-1.045.416-1.504.288-.47.672-.848 1.152-1.136a3.021 3.021 0 0 1 1.584-.432c.566 0 1.088.144 1.568.432.48.277.864.645 1.152 1.104.299.459.448.97.448 1.536v1.632c0 .533-.15 1.04-.448 1.52-.288.47-.672.853-1.152 1.152a2.992 2.992 0 0 1-1.568.432Zm0-1.2c.34 0 .645-.09.911-.272a2.12 2.12 0 0 0 .672-.704c.17-.299.256-.608.256-.928v-1.632c0-.31-.085-.608-.256-.896a1.975 1.975 0 0 0-.656-.704 1.66 1.66 0 0 0-.928-.272c-.341 0-.65.09-.928.272a1.976 1.976 0 0 0-.656.704c-.16.288-.24.587-.24.896v1.632c0 .32.08.63.24.928.16.288.379.523.656.704.277.181.587.272.928.272ZM70.032 35a.818.818 0 0 1-.464-.128.397.397 0 0 1-.176-.336v-8.704c0-.555.128-1.056.384-1.504a2.956 2.956 0 0 1 1.024-1.088c.438-.267.912-.4 1.424-.4h.56c.17 0 .304.059.4.176a.637.637 0 0 1 .144.416c0 .15-.048.283-.144.4a.488.488 0 0 1-.4.176h-.336c-.33 0-.63.08-.896.24-.256.15-.459.357-.608.624-.15.256-.224.539-.224.848v1.696h2.192c.128 0 .23.053.304.16.075.107.112.23.112.368a.6.6 0 0 1-.112.352.352.352 0 0 1-.304.16h-2.192v6.08c0 .139-.07.25-.208.336a.897.897 0 0 1-.48.128Zm6.556.128c-.597 0-1.11-.17-1.536-.512-.416-.352-.624-.89-.624-1.616 0-.587.16-1.04.48-1.36.32-.33.758-.555 1.312-.672.566-.128 1.216-.192 1.952-.192h.768v-.336c0-.32-.058-.63-.176-.928a1.65 1.65 0 0 0-.56-.752c-.245-.203-.586-.304-1.024-.304-.373 0-.672.037-.896.112a2.314 2.314 0 0 0-.512.24.691.691 0 0 1-.336.112.403.403 0 0 1-.368-.224.96.96 0 0 1-.128-.448c0-.17.118-.325.352-.464.235-.139.528-.25.88-.336a4.405 4.405 0 0 1 1.04-.128c.747 0 1.344.15 1.792.448.448.299.768.683.96 1.152.203.47.304.97.304 1.504v4.096c0 .128-.064.24-.192.336a.71.71 0 0 1-.464.144.66.66 0 0 1-.432-.144.425.425 0 0 1-.176-.336v-.64a4.72 4.72 0 0 1-1.008.864c-.394.256-.864.384-1.408.384Zm.416-1.072c.31 0 .608-.085.896-.256.299-.17.544-.384.736-.64.203-.256.304-.501.304-.736v-.832h-.56c-.448 0-.874.027-1.28.08-.394.053-.714.17-.96.352-.245.17-.368.448-.368.832 0 .416.118.72.352.912.235.192.528.288.88.288Zm6.276 1.04a.797.797 0 0 1-.608-.256.821.821 0 0 1-.24-.576c0-.235.08-.432.24-.592a.797.797 0 0 1 .608-.256c.214 0 .4.085.56.256a.796.796 0 0 1 0 1.168.745.745 0 0 1-.56.256Z"/><circle cx="191" cy="136" r="4" fill="#fff"/><circle cx="191" cy="136" r="2" fill="#71B3C6"/></svg>