<svg width="195" height="140" viewBox="0 0 195 140" fill="none" xmlns="http://www.w3.org/2000/svg">
<path d="M143 16L138 12L143 8" stroke="#E9F4F6" stroke-width="2"/>
<path d="M138.435 12H191V135" stroke="#E9F4F6" stroke-width="2"/>
<path d="M3.92 15.128C3.23733 15.128 2.64 15.0267 2.128 14.824C1.616 14.6107 1.22133 14.3653 0.944 14.088C0.666667 13.8 0.528 13.544 0.528 13.32C0.528 13.2133 0.554667 13.1067 0.608 13C0.672 12.8827 0.746667 12.7867 0.832 12.712C0.928 12.6267 1.024 12.584 1.12 12.584C1.248 12.584 1.37067 12.648 1.488 12.776C1.616 12.904 1.77067 13.0587 1.952 13.24C2.144 13.4107 2.38933 13.56 2.688 13.688C2.98667 13.816 3.376 13.88 3.856 13.88C4.304 13.88 4.69333 13.8107 5.024 13.672C5.35467 13.5227 5.61067 13.304 5.792 13.016C5.984 12.7173 6.08 12.344 6.08 11.896C6.08 11.4373 5.984 11.064 5.792 10.776C5.6 10.488 5.344 10.248 5.024 10.056C4.71467 9.864 4.37333 9.69333 4 9.544C3.63733 9.39467 3.264 9.24533 2.88 9.096C2.50667 8.936 2.16533 8.744 1.856 8.52C1.54667 8.28533 1.296 7.98667 1.104 7.624C0.912 7.26133 0.816 6.80267 0.816 6.248C0.816 5.66133 0.922667 5.176 1.136 4.792C1.34933 4.408 1.632 4.104 1.984 3.88C2.336 3.656 2.71467 3.50133 3.12 3.416C3.536 3.32 3.94133 3.272 4.336 3.272C4.624 3.272 4.928 3.29333 5.248 3.336C5.568 3.37867 5.872 3.44267 6.16 3.528C6.448 3.61333 6.68267 3.72533 6.864 3.864C7.04533 3.992 7.136 4.14667 7.136 4.328C7.136 4.41333 7.11467 4.51467 7.072 4.632C7.02933 4.73867 6.96533 4.84 6.88 4.936C6.79467 5.02133 6.688 5.064 6.56 5.064C6.44267 5.064 6.29867 5.016 6.128 4.92C5.95733 4.81333 5.728 4.712 5.44 4.616C5.16267 4.50933 4.79467 4.456 4.336 4.456C3.952 4.456 3.58933 4.50933 3.248 4.616C2.91733 4.72267 2.65067 4.89867 2.448 5.144C2.256 5.38933 2.16 5.71467 2.16 6.12C2.16 6.504 2.256 6.81867 2.448 7.064C2.64 7.30933 2.89067 7.512 3.2 7.672C3.50933 7.832 3.85067 7.98133 4.224 8.12C4.59733 8.248 4.97067 8.40267 5.344 8.584C5.71733 8.75467 6.05867 8.968 6.368 9.224C6.688 9.48 6.944 9.816 7.136 10.232C7.328 10.6373 7.424 11.1493 7.424 11.768C7.424 12.536 7.26933 13.1707 6.96 13.672C6.66133 14.1627 6.25067 14.5307 5.728 14.776C5.20533 15.0107 4.60267 15.128 3.92 15.128ZM10.3513 18.664C10.1699 18.664 10.0153 18.6107 9.88725 18.504C9.76992 18.408 9.71125 18.3013 9.71125 18.184V7.88C9.71125 7.74133 9.76992 7.62933 9.88725 7.544C10.0153 7.45867 10.1699 7.416 10.3513 7.416C10.5326 7.416 10.6819 7.45867 10.7993 7.544C10.9166 7.62933 10.9753 7.74133 10.9753 7.88V8.536C11.1566 8.22667 11.4286 7.94933 11.7913 7.704C12.1539 7.448 12.5966 7.32 13.1193 7.32C13.6526 7.32 14.1379 7.464 14.5753 7.752C15.0126 8.02933 15.3593 8.39733 15.6153 8.856C15.8713 9.31467 15.9993 9.82667 15.9993 10.392V12.024C15.9993 12.5573 15.8659 13.064 15.5993 13.544C15.3433 14.0133 15.0019 14.3973 14.5753 14.696C14.1486 14.984 13.6793 15.128 13.1673 15.128C12.6873 15.128 12.2553 15.0053 11.8713 14.76C11.4873 14.504 11.2099 14.2107 11.0393 13.88V18.184C11.0393 18.3013 10.9699 18.408 10.8313 18.504C10.7033 18.6107 10.5433 18.664 10.3513 18.664ZM12.8473 13.928C13.1673 13.928 13.4659 13.8373 13.7433 13.656C14.0206 13.4747 14.2446 13.2347 14.4153 12.936C14.5859 12.6373 14.6713 12.3333 14.6713 12.024V10.392C14.6713 10.0827 14.5859 9.784 14.4153 9.496C14.2446 9.208 14.0206 8.97333 13.7433 8.792C13.4659 8.61067 13.1566 8.52 12.8153 8.52C12.5273 8.52 12.2446 8.6 11.9673 8.76C11.7006 8.90933 11.4766 9.12267 11.2953 9.4C11.1246 9.66667 11.0393 9.99733 11.0393 10.392V12.456C11.0393 12.5947 11.1139 12.7813 11.2633 13.016C11.4233 13.2507 11.6366 13.464 11.9033 13.656C12.1806 13.8373 12.4953 13.928 12.8473 13.928ZM19.9855 15.128C19.3882 15.128 18.8762 14.9573 18.4495 14.616C18.0335 14.264 17.8255 13.7253 17.8255 13C17.8255 12.4133 17.9855 11.96 18.3055 11.64C18.6255 11.3093 19.0628 11.0853 19.6175 10.968C20.1828 10.84 20.8335 10.776 21.5695 10.776H22.3375V10.44C22.3375 10.12 22.2788 9.81067 22.1615 9.512C22.0442 9.20267 21.8575 8.952 21.6015 8.76C21.3562 8.55733 21.0148 8.456 20.5775 8.456C20.2042 8.456 19.9055 8.49333 19.6815 8.568C19.4682 8.64267 19.2975 8.72267 19.1695 8.808C19.0415 8.88267 18.9295 8.92 18.8335 8.92C18.6735 8.92 18.5508 8.84533 18.4655 8.696C18.3802 8.536 18.3375 8.38667 18.3375 8.248C18.3375 8.07733 18.4548 7.92267 18.6895 7.784C18.9242 7.64533 19.2175 7.53333 19.5695 7.448C19.9215 7.36267 20.2682 7.32 20.6095 7.32C21.3562 7.32 21.9535 7.46933 22.4015 7.768C22.8495 8.06667 23.1695 8.45067 23.3615 8.92C23.5642 9.38933 23.6655 9.89067 23.6655 10.424V14.52C23.6655 14.648 23.6015 14.76 23.4735 14.856C23.3562 14.952 23.2015 15 23.0095 15C22.8388 15 22.6948 14.952 22.5775 14.856C22.4602 14.76 22.4015 14.648 22.4015 14.52V13.88C22.1242 14.2 21.7882 14.488 21.3935 14.744C20.9988 15 20.5295 15.128 19.9855 15.128ZM20.4015 14.056C20.7108 14.056 21.0095 13.9707 21.2975 13.8C21.5962 13.6293 21.8415 13.416 22.0335 13.16C22.2362 12.904 22.3375 12.6587 22.3375 12.424V11.592H21.7775C21.3295 11.592 20.9028 11.6187 20.4975 11.672C20.1028 11.7253 19.7828 11.8427 19.5375 12.024C19.2922 12.1947 19.1695 12.472 19.1695 12.856C19.1695 13.272 19.2868 13.576 19.5215 13.768C19.7562 13.96 20.0495 14.056 20.4015 14.056ZM29.1418 15.128C28.4058 15.128 27.7977 14.9893 27.3177 14.712C26.8484 14.4347 26.4964 14.0667 26.2617 13.608C26.0377 13.1387 25.9257 12.6107 25.9257 12.024V10.424C25.9257 9.848 26.0377 9.32533 26.2617 8.856C26.4964 8.38667 26.8484 8.01333 27.3177 7.736C27.7977 7.45867 28.4004 7.32 29.1258 7.32C29.5951 7.32 30.0058 7.37867 30.3577 7.496C30.7098 7.61333 30.9818 7.75733 31.1737 7.928C31.3657 8.09867 31.4618 8.264 31.4618 8.424C31.4618 8.50933 31.4351 8.60533 31.3818 8.712C31.3391 8.808 31.2751 8.89333 31.1898 8.968C31.1151 9.04267 31.0244 9.08 30.9177 9.08C30.8111 9.08 30.6938 9.032 30.5658 8.936C30.4484 8.84 30.2831 8.74933 30.0698 8.664C29.8671 8.568 29.5791 8.52 29.2057 8.52C28.5551 8.52 28.0644 8.69067 27.7337 9.032C27.4137 9.37333 27.2537 9.83733 27.2537 10.424V12.024C27.2537 12.6107 27.4137 13.0747 27.7337 13.416C28.0644 13.7573 28.5604 13.928 29.2218 13.928C29.6058 13.928 29.9044 13.88 30.1178 13.784C30.3311 13.6773 30.4964 13.5813 30.6137 13.496C30.7417 13.4 30.8644 13.352 30.9818 13.352C31.0991 13.352 31.2004 13.3893 31.2857 13.464C31.3711 13.528 31.4351 13.608 31.4778 13.704C31.5311 13.8 31.5578 13.896 31.5578 13.992C31.5578 14.152 31.4564 14.3227 31.2538 14.504C31.0511 14.6747 30.7684 14.824 30.4058 14.952C30.0431 15.0693 29.6218 15.128 29.1418 15.128ZM34.2613 5.336C34.0373 5.336 33.8399 5.26133 33.6693 5.112C33.5093 4.952 33.4293 4.77067 33.4293 4.568C33.4293 4.36533 33.5093 4.18933 33.6693 4.04C33.8399 3.89067 34.0373 3.816 34.2613 3.816C34.4959 3.816 34.6879 3.89067 34.8373 4.04C34.9973 4.18933 35.0773 4.36533 35.0773 4.568C35.0773 4.77067 34.9973 4.952 34.8373 5.112C34.6879 5.26133 34.4959 5.336 34.2613 5.336ZM34.2613 15C34.0693 15 33.9093 14.952 33.7813 14.856C33.6639 14.7493 33.6053 14.6373 33.6053 14.52V7.88C33.6053 7.74133 33.6639 7.62933 33.7813 7.544C33.9093 7.45867 34.0693 7.416 34.2613 7.416C34.4426 7.416 34.5973 7.45867 34.7253 7.544C34.8639 7.62933 34.9333 7.74133 34.9333 7.88V14.52C34.9333 14.6373 34.8639 14.7493 34.7253 14.856C34.5973 14.952 34.4426 15 34.2613 15ZM39.1924 15.128C38.595 15.128 38.083 14.9573 37.6564 14.616C37.2404 14.264 37.0324 13.7253 37.0324 13C37.0324 12.4133 37.1924 11.96 37.5124 11.64C37.8324 11.3093 38.2697 11.0853 38.8244 10.968C39.3897 10.84 40.0404 10.776 40.7764 10.776H41.5444V10.44C41.5444 10.12 41.4857 9.81067 41.3684 9.512C41.251 9.20267 41.0644 8.952 40.8084 8.76C40.563 8.55733 40.2217 8.456 39.7844 8.456C39.411 8.456 39.1124 8.49333 38.8884 8.568C38.675 8.64267 38.5044 8.72267 38.3764 8.808C38.2484 8.88267 38.1364 8.92 38.0404 8.92C37.8804 8.92 37.7577 8.84533 37.6724 8.696C37.587 8.536 37.5444 8.38667 37.5444 8.248C37.5444 8.07733 37.6617 7.92267 37.8964 7.784C38.131 7.64533 38.4244 7.53333 38.7764 7.448C39.1284 7.36267 39.475 7.32 39.8164 7.32C40.563 7.32 41.1604 7.46933 41.6084 7.768C42.0564 8.06667 42.3764 8.45067 42.5684 8.92C42.771 9.38933 42.8724 9.89067 42.8724 10.424V14.52C42.8724 14.648 42.8084 14.76 42.6804 14.856C42.563 14.952 42.4084 15 42.2164 15C42.0457 15 41.9017 14.952 41.7844 14.856C41.667 14.76 41.6084 14.648 41.6084 14.52V13.88C41.331 14.2 40.995 14.488 40.6004 14.744C40.2057 15 39.7364 15.128 39.1924 15.128ZM39.6084 14.056C39.9177 14.056 40.2164 13.9707 40.5044 13.8C40.803 13.6293 41.0484 13.416 41.2404 13.16C41.443 12.904 41.5444 12.6587 41.5444 12.424V11.592H40.9844C40.5364 11.592 40.1097 11.6187 39.7044 11.672C39.3097 11.7253 38.9897 11.8427 38.7444 12.024C38.499 12.1947 38.3764 12.472 38.3764 12.856C38.3764 13.272 38.4937 13.576 38.7284 13.768C38.963 13.96 39.2564 14.056 39.6084 14.056ZM46.2046 15C46.0126 15 45.8526 14.952 45.7246 14.856C45.6073 14.7493 45.5486 14.6373 45.5486 14.52V3.304C45.5486 3.16533 45.6073 3.05333 45.7246 2.968C45.8526 2.88267 46.0126 2.84 46.2046 2.84C46.386 2.84 46.5406 2.88267 46.6686 2.968C46.8073 3.05333 46.8766 3.16533 46.8766 3.304V14.52C46.8766 14.6373 46.8073 14.7493 46.6686 14.856C46.5406 14.952 46.386 15 46.2046 15ZM54.4118 15C54.2518 15 54.0971 14.9627 53.9478 14.888C53.8091 14.8133 53.7398 14.696 53.7398 14.536V3.784C53.7398 3.624 53.8038 3.50667 53.9318 3.432C54.0598 3.34667 54.1984 3.304 54.3478 3.304H59.9958C60.1558 3.304 60.2731 3.368 60.3478 3.496C60.4224 3.624 60.4598 3.75733 60.4598 3.896C60.4598 4.056 60.4171 4.2 60.3318 4.328C60.2571 4.456 60.1451 4.52 59.9958 4.52H55.0838V8.584H57.5958C57.7451 8.584 57.8571 8.64267 57.9318 8.76C58.0171 8.87733 58.0598 9.01067 58.0598 9.16C58.0598 9.288 58.0224 9.41067 57.9478 9.528C57.8731 9.64533 57.7558 9.704 57.5958 9.704H55.0838V14.536C55.0838 14.696 55.0144 14.8133 54.8758 14.888C54.7371 14.9627 54.5824 15 54.4118 15ZM61.6505 15.128C61.0532 15.128 60.5412 14.9573 60.1145 14.616C59.6985 14.264 59.4905 13.7253 59.4905 13C59.4905 12.4133 59.6505 11.96 59.9705 11.64C60.2905 11.3093 60.7278 11.0853 61.2825 10.968C61.8478 10.84 62.4985 10.776 63.2345 10.776H64.0025V10.44C64.0025 10.12 63.9438 9.81067 63.8265 9.512C63.7092 9.20267 63.5225 8.952 63.2665 8.76C63.0212 8.55733 62.6798 8.456 62.2425 8.456C61.8692 8.456 61.5705 8.49333 61.3465 8.568C61.1332 8.64267 60.9625 8.72267 60.8345 8.808C60.7065 8.88267 60.5945 8.92 60.4985 8.92C60.3385 8.92 60.2158 8.84533 60.1305 8.696C60.0452 8.536 60.0025 8.38667 60.0025 8.248C60.0025 8.07733 60.1198 7.92267 60.3545 7.784C60.5892 7.64533 60.8825 7.53333 61.2345 7.448C61.5865 7.36267 61.9332 7.32 62.2745 7.32C63.0212 7.32 63.6185 7.46933 64.0665 7.768C64.5145 8.06667 64.8345 8.45067 65.0265 8.92C65.2292 9.38933 65.3305 9.89067 65.3305 10.424V14.52C65.3305 14.648 65.2665 14.76 65.1385 14.856C65.0212 14.952 64.8665 15 64.6745 15C64.5038 15 64.3598 14.952 64.2425 14.856C64.1252 14.76 64.0665 14.648 64.0665 14.52V13.88C63.7892 14.2 63.4532 14.488 63.0585 14.744C62.6638 15 62.1945 15.128 61.6505 15.128ZM62.0665 14.056C62.3758 14.056 62.6745 13.9707 62.9625 13.8C63.2612 13.6293 63.5065 13.416 63.6985 13.16C63.9012 12.904 64.0025 12.6587 64.0025 12.424V11.592H63.4425C62.9945 11.592 62.5678 11.6187 62.1625 11.672C61.7678 11.7253 61.4478 11.8427 61.2025 12.024C60.9572 12.1947 60.8345 12.472 60.8345 12.856C60.8345 13.272 60.9518 13.576 61.1865 13.768C61.4212 13.96 61.7145 14.056 62.0665 14.056ZM70.313 15.144C70.1743 15.144 70.0463 15.1173 69.929 15.064C69.8223 15.0213 69.7477 14.952 69.705 14.856L67.081 8.216C67.0703 8.19467 67.0543 8.15733 67.033 8.104C67.0223 8.05067 67.017 8.00267 67.017 7.96C67.017 7.85333 67.0597 7.75733 67.145 7.672C67.241 7.576 67.353 7.50667 67.481 7.464C67.6197 7.41067 67.7477 7.384 67.865 7.384C67.9503 7.384 68.0357 7.40533 68.121 7.448C68.2063 7.49067 68.265 7.55467 68.297 7.64L70.313 13.08L72.329 7.704C72.361 7.608 72.409 7.53333 72.473 7.48C72.5477 7.416 72.6437 7.384 72.761 7.384C72.8677 7.384 72.985 7.41067 73.113 7.464C73.241 7.50667 73.3583 7.576 73.465 7.672C73.5717 7.75733 73.625 7.85333 73.625 7.96C73.625 8.01333 73.6143 8.06133 73.593 8.104C73.5823 8.14667 73.5717 8.184 73.561 8.216L70.937 14.856C70.8943 14.9413 70.8143 15.0107 70.697 15.064C70.5797 15.1173 70.4517 15.144 70.313 15.144ZM76.0977 15C75.9164 15 75.7617 14.952 75.6337 14.856C75.5164 14.7493 75.4577 14.6373 75.4577 14.52V7.88C75.4577 7.74133 75.5164 7.62933 75.6337 7.544C75.7617 7.45867 75.9164 7.416 76.0977 7.416C76.2791 7.416 76.4284 7.45867 76.5457 7.544C76.6631 7.62933 76.7217 7.74133 76.7217 7.88V8.632C76.8391 8.408 76.9991 8.2 77.2017 8.008C77.4044 7.80533 77.6391 7.64 77.9057 7.512C78.1831 7.384 78.4871 7.32 78.8177 7.32H79.3617C79.5004 7.32 79.6177 7.37867 79.7137 7.496C79.8204 7.61333 79.8737 7.75733 79.8737 7.928C79.8737 8.088 79.8204 8.22667 79.7137 8.344C79.6177 8.46133 79.5004 8.52 79.3617 8.52H78.8177C78.4764 8.52 78.1511 8.616 77.8417 8.808C77.5324 9 77.2764 9.272 77.0737 9.624C76.8817 9.96533 76.7857 10.3813 76.7857 10.872V14.52C76.7857 14.6373 76.7164 14.7493 76.5777 14.856C76.4497 14.952 76.2897 15 76.0977 15ZM82.3025 5.336C82.0785 5.336 81.8812 5.26133 81.7105 5.112C81.5505 4.952 81.4705 4.77067 81.4705 4.568C81.4705 4.36533 81.5505 4.18933 81.7105 4.04C81.8812 3.89067 82.0785 3.816 82.3025 3.816C82.5372 3.816 82.7292 3.89067 82.8785 4.04C83.0385 4.18933 83.1185 4.36533 83.1185 4.568C83.1185 4.77067 83.0385 4.952 82.8785 5.112C82.7292 5.26133 82.5372 5.336 82.3025 5.336ZM82.3025 15C82.1105 15 81.9505 14.952 81.8225 14.856C81.7052 14.7493 81.6465 14.6373 81.6465 14.52V7.88C81.6465 7.74133 81.7052 7.62933 81.8225 7.544C81.9505 7.45867 82.1105 7.416 82.3025 7.416C82.4838 7.416 82.6385 7.45867 82.7665 7.544C82.9052 7.62933 82.9745 7.74133 82.9745 7.88V14.52C82.9745 14.6373 82.9052 14.7493 82.7665 14.856C82.6385 14.952 82.4838 15 82.3025 15ZM88.5136 15.128C87.7776 15.128 87.1696 14.9893 86.6896 14.712C86.2203 14.4347 85.8683 14.0667 85.6336 13.608C85.4096 13.1387 85.2976 12.6107 85.2976 12.024V10.424C85.2976 9.848 85.4096 9.32533 85.6336 8.856C85.8683 8.38667 86.2203 8.01333 86.6896 7.736C87.1696 7.45867 87.7723 7.32 88.4976 7.32C88.967 7.32 89.3776 7.37867 89.7296 7.496C90.0816 7.61333 90.3536 7.75733 90.5456 7.928C90.7376 8.09867 90.8336 8.264 90.8336 8.424C90.8336 8.50933 90.807 8.60533 90.7536 8.712C90.711 8.808 90.647 8.89333 90.5616 8.968C90.487 9.04267 90.3963 9.08 90.2896 9.08C90.183 9.08 90.0656 9.032 89.9376 8.936C89.8203 8.84 89.655 8.74933 89.4416 8.664C89.239 8.568 88.951 8.52 88.5776 8.52C87.927 8.52 87.4363 8.69067 87.1056 9.032C86.7856 9.37333 86.6256 9.83733 86.6256 10.424V12.024C86.6256 12.6107 86.7856 13.0747 87.1056 13.416C87.4363 13.7573 87.9323 13.928 88.5936 13.928C88.9776 13.928 89.2763 13.88 89.4896 13.784C89.703 13.6773 89.8683 13.5813 89.9856 13.496C90.1136 13.4 90.2363 13.352 90.3536 13.352C90.471 13.352 90.5723 13.3893 90.6576 13.464C90.743 13.528 90.807 13.608 90.8496 13.704C90.903 13.8 90.9296 13.896 90.9296 13.992C90.9296 14.152 90.8283 14.3227 90.6256 14.504C90.423 14.6747 90.1403 14.824 89.7776 14.952C89.415 15.0693 88.9936 15.128 88.5136 15.128ZM97.7003 15C97.5509 15 97.4123 14.9627 97.2843 14.888C97.1563 14.8027 97.0923 14.68 97.0923 14.52V3.768C97.0923 3.608 97.1616 3.49067 97.3003 3.416C97.4496 3.34133 97.6043 3.304 97.7643 3.304C97.9349 3.304 98.0896 3.34133 98.2283 3.416C98.3669 3.49067 98.4363 3.608 98.4363 3.768V13.784H102.82C102.97 13.784 103.076 13.848 103.14 13.976C103.215 14.0933 103.252 14.232 103.252 14.392C103.252 14.5413 103.215 14.68 103.14 14.808C103.076 14.936 102.97 15 102.82 15H97.7003ZM106.769 15.128C106.171 15.128 105.659 14.9573 105.233 14.616C104.817 14.264 104.609 13.7253 104.609 13C104.609 12.4133 104.769 11.96 105.089 11.64C105.409 11.3093 105.846 11.0853 106.401 10.968C106.966 10.84 107.617 10.776 108.353 10.776H109.121V10.44C109.121 10.12 109.062 9.81067 108.945 9.512C108.827 9.20267 108.641 8.952 108.385 8.76C108.139 8.55733 107.798 8.456 107.361 8.456C106.987 8.456 106.689 8.49333 106.465 8.568C106.251 8.64267 106.081 8.72267 105.953 8.808C105.825 8.88267 105.713 8.92 105.617 8.92C105.457 8.92 105.334 8.84533 105.249 8.696C105.163 8.536 105.121 8.38667 105.121 8.248C105.121 8.07733 105.238 7.92267 105.473 7.784C105.707 7.64533 106.001 7.53333 106.353 7.448C106.705 7.36267 107.051 7.32 107.393 7.32C108.139 7.32 108.737 7.46933 109.185 7.768C109.633 8.06667 109.953 8.45067 110.145 8.92C110.347 9.38933 110.449 9.89067 110.449 10.424V14.52C110.449 14.648 110.385 14.76 110.257 14.856C110.139 14.952 109.985 15 109.793 15C109.622 15 109.478 14.952 109.361 14.856C109.243 14.76 109.185 14.648 109.185 14.52V13.88C108.907 14.2 108.571 14.488 108.177 14.744C107.782 15 107.313 15.128 106.769 15.128ZM107.185 14.056C107.494 14.056 107.793 13.9707 108.081 13.8C108.379 13.6293 108.625 13.416 108.817 13.16C109.019 12.904 109.121 12.6587 109.121 12.424V11.592H108.561C108.113 11.592 107.686 11.6187 107.281 11.672C106.886 11.7253 106.566 11.8427 106.321 12.024C106.075 12.1947 105.953 12.472 105.953 12.856C105.953 13.272 106.07 13.576 106.305 13.768C106.539 13.96 106.833 14.056 107.185 14.056ZM115.157 15.128C114.645 15.128 114.192 15.064 113.797 14.936C113.402 14.7973 113.093 14.6373 112.869 14.456C112.645 14.2747 112.533 14.0933 112.533 13.912C112.533 13.8267 112.554 13.7413 112.597 13.656C112.64 13.56 112.693 13.48 112.757 13.416C112.832 13.3413 112.912 13.304 112.997 13.304C113.125 13.304 113.264 13.368 113.413 13.496C113.562 13.6133 113.765 13.736 114.021 13.864C114.277 13.992 114.645 14.056 115.125 14.056C115.69 14.056 116.085 13.9547 116.309 13.752C116.533 13.5387 116.645 13.304 116.645 13.048C116.645 12.7173 116.549 12.4667 116.357 12.296C116.165 12.1147 115.92 11.976 115.621 11.88C115.322 11.7733 115.008 11.672 114.677 11.576C114.346 11.48 114.032 11.3627 113.733 11.224C113.434 11.0747 113.189 10.872 112.997 10.616C112.816 10.3493 112.725 9.99733 112.725 9.56C112.725 9.208 112.81 8.86133 112.981 8.52C113.152 8.17867 113.429 7.896 113.813 7.672C114.197 7.43733 114.709 7.32 115.349 7.32C115.722 7.32 116.08 7.36267 116.421 7.448C116.773 7.52267 117.056 7.62933 117.269 7.768C117.493 7.896 117.605 8.03467 117.605 8.184C117.605 8.248 117.584 8.33333 117.541 8.44C117.498 8.54667 117.44 8.64267 117.365 8.728C117.29 8.81333 117.194 8.856 117.077 8.856C116.992 8.856 116.869 8.81867 116.709 8.744C116.56 8.65867 116.373 8.57867 116.149 8.504C115.936 8.42933 115.674 8.392 115.365 8.392C115.013 8.392 114.73 8.456 114.517 8.584C114.304 8.70133 114.149 8.84533 114.053 9.016C113.957 9.176 113.909 9.34133 113.909 9.512C113.909 9.77867 114 9.98667 114.181 10.136C114.373 10.2853 114.618 10.408 114.917 10.504C115.226 10.5893 115.546 10.68 115.877 10.776C116.208 10.8613 116.522 10.9893 116.821 11.16C117.12 11.32 117.365 11.544 117.557 11.832C117.749 12.12 117.845 12.504 117.845 12.984C117.845 13.6347 117.61 14.1573 117.141 14.552C116.672 14.936 116.01 15.128 115.157 15.128ZM122.637 15C121.773 15 121.112 14.808 120.653 14.424C120.205 14.04 119.981 13.4267 119.981 12.584V4.344C119.981 4.20533 120.051 4.09333 120.189 4.008C120.328 3.92267 120.477 3.88 120.637 3.88C120.808 3.88 120.963 3.92267 121.101 4.008C121.24 4.09333 121.309 4.20533 121.309 4.344V7.416H123.325C123.453 7.416 123.549 7.46933 123.613 7.576C123.688 7.68267 123.725 7.80533 123.725 7.944C123.725 8.08267 123.688 8.20533 123.613 8.312C123.549 8.408 123.453 8.456 123.325 8.456H121.309V12.584C121.309 13.0427 121.405 13.368 121.597 13.56C121.8 13.7413 122.147 13.832 122.637 13.832H123.133C123.325 13.832 123.469 13.8907 123.565 14.008C123.661 14.1253 123.709 14.2587 123.709 14.408C123.709 14.5573 123.661 14.696 123.565 14.824C123.469 14.9413 123.325 15 123.133 15H122.637ZM1.744 35C1.59467 35 1.456 34.9627 1.328 34.888C1.2 34.8027 1.136 34.68 1.136 34.52V23.768C1.136 23.608 1.20533 23.4907 1.344 23.416C1.49333 23.3413 1.648 23.304 1.808 23.304C1.97867 23.304 2.13333 23.3413 2.272 23.416C2.41067 23.4907 2.48 23.608 2.48 23.768V33.784H6.864C7.01333 33.784 7.12 33.848 7.184 33.976C7.25867 34.0933 7.296 34.232 7.296 34.392C7.296 34.5413 7.25867 34.68 7.184 34.808C7.12 34.936 7.01333 35 6.864 35H1.744ZM11.7468 35.128C11.1814 35.128 10.6588 34.984 10.1788 34.696C9.69875 34.3973 9.31475 34.0133 9.02675 33.544C8.73875 33.0747 8.59475 32.568 8.59475 32.024V30.392C8.59475 29.848 8.73342 29.3467 9.01075 28.888C9.29875 28.4187 9.68275 28.04 10.1628 27.752C10.6428 27.464 11.1708 27.32 11.7468 27.32C12.3121 27.32 12.8348 27.464 13.3148 27.752C13.7948 28.0293 14.1788 28.3973 14.4668 28.856C14.7654 29.3147 14.9148 29.8267 14.9148 30.392V32.024C14.9148 32.5573 14.7654 33.064 14.4668 33.544C14.1788 34.0133 13.7948 34.3973 13.3148 34.696C12.8348 34.984 12.3121 35.128 11.7468 35.128ZM11.7468 33.928C12.0881 33.928 12.3921 33.8373 12.6588 33.656C12.9361 33.4747 13.1601 33.24 13.3308 32.952C13.5014 32.6533 13.5868 32.344 13.5868 32.024V30.392C13.5868 30.0827 13.5014 29.784 13.3308 29.496C13.1708 29.208 12.9521 28.9733 12.6748 28.792C12.3974 28.6107 12.0881 28.52 11.7468 28.52C11.4054 28.52 11.0961 28.6107 10.8188 28.792C10.5414 28.9733 10.3228 29.208 10.1628 29.496C10.0028 29.784 9.92275 30.0827 9.92275 30.392V32.024C9.92275 32.344 10.0028 32.6533 10.1628 32.952C10.3228 33.24 10.5414 33.4747 10.8188 33.656C11.0961 33.8373 11.4054 33.928 11.7468 33.928ZM17.8838 35C17.6918 35 17.5318 34.952 17.4038 34.856C17.2864 34.7493 17.2278 34.6373 17.2278 34.52V27.88C17.2278 27.7413 17.2864 27.6293 17.4038 27.544C17.5318 27.4587 17.6918 27.416 17.8838 27.416C18.0544 27.416 18.1984 27.4587 18.3158 27.544C18.4331 27.6293 18.4918 27.7413 18.4918 27.88V28.536C18.6624 28.2267 18.9291 27.9493 19.2918 27.704C19.6544 27.448 20.1024 27.32 20.6358 27.32C21.1478 27.32 21.6171 27.464 22.0438 27.752C22.4704 28.0293 22.8118 28.3973 23.0678 28.856C23.3238 29.3147 23.4518 29.8267 23.4518 30.392V34.52C23.4518 34.68 23.3824 34.8027 23.2438 34.888C23.1051 34.9627 22.9504 35 22.7798 35C22.6198 35 22.4704 34.9627 22.3318 34.888C22.1931 34.8027 22.1238 34.68 22.1238 34.52V30.392C22.1238 30.0827 22.0384 29.784 21.8678 29.496C21.7078 29.208 21.4891 28.9733 21.2118 28.792C20.9344 28.6107 20.6304 28.52 20.2998 28.52C20.0118 28.52 19.7344 28.6 19.4678 28.76C19.2011 28.9093 18.9824 29.1227 18.8118 29.4C18.6411 29.6667 18.5558 29.9973 18.5558 30.392V34.52C18.5558 34.6373 18.4864 34.7493 18.3478 34.856C18.2198 34.952 18.0651 35 17.8838 35ZM28.747 38.664C28.1177 38.664 27.5523 38.5733 27.051 38.392C26.5497 38.2213 26.1497 37.9707 25.851 37.64C25.563 37.32 25.419 36.9413 25.419 36.504C25.419 36.056 25.547 35.688 25.803 35.4C26.0697 35.1227 26.3737 34.9093 26.715 34.76C26.4803 34.6747 26.283 34.552 26.123 34.392C25.9737 34.2213 25.899 33.9867 25.899 33.688C25.899 33.3893 25.9737 33.1547 26.123 32.984C26.2723 32.8027 26.4643 32.6427 26.699 32.504C26.411 32.2693 26.187 31.9813 26.027 31.64C25.867 31.288 25.787 30.904 25.787 30.488V29.96C25.787 29.4373 25.9043 28.9787 26.139 28.584C26.3737 28.1893 26.7043 27.88 27.131 27.656C27.5683 27.432 28.075 27.32 28.651 27.32C29.0243 27.32 29.3657 27.3787 29.675 27.496C29.995 27.6027 30.2723 27.752 30.507 27.944C30.6777 27.592 30.8537 27.3307 31.035 27.16C31.227 26.9893 31.4137 26.904 31.595 26.904C31.787 26.904 31.931 26.9573 32.027 27.064C32.123 27.1707 32.171 27.2827 32.171 27.4C32.171 27.4853 32.1443 27.56 32.091 27.624C32.0377 27.688 31.9737 27.736 31.899 27.768C31.7817 27.8 31.643 27.864 31.483 27.96C31.3337 28.056 31.1897 28.216 31.051 28.44C31.211 28.6427 31.3283 28.8773 31.403 29.144C31.4883 29.4 31.531 29.672 31.531 29.96V30.488C31.531 30.9893 31.4083 31.4427 31.163 31.848C30.9177 32.2533 30.5763 32.5733 30.139 32.808C29.7017 33.032 29.2003 33.144 28.635 33.144C28.1977 33.144 27.8083 33.064 27.467 32.904C27.3603 32.968 27.2643 33.0427 27.179 33.128C27.0937 33.2027 27.051 33.3093 27.051 33.448C27.051 33.672 27.1683 33.832 27.403 33.928C27.6483 34.024 27.9577 34.0933 28.331 34.136C28.7043 34.1787 29.099 34.2267 29.515 34.28C29.931 34.3333 30.3257 34.4293 30.699 34.568C31.0723 34.696 31.3763 34.8987 31.611 35.176C31.8563 35.4533 31.979 35.8373 31.979 36.328C31.979 36.8507 31.835 37.2827 31.547 37.624C31.259 37.976 30.8697 38.2373 30.379 38.408C29.899 38.5787 29.355 38.664 28.747 38.664ZM28.715 37.736C29.323 37.736 29.803 37.608 30.155 37.352C30.507 37.1067 30.683 36.776 30.683 36.36C30.683 36.0613 30.5923 35.8267 30.411 35.656C30.2297 35.496 29.995 35.3733 29.707 35.288C29.419 35.2133 29.115 35.16 28.795 35.128C28.4857 35.1067 28.203 35.08 27.947 35.048C27.6057 35.1547 27.307 35.3147 27.051 35.528C26.8057 35.7413 26.683 36.0187 26.683 36.36C26.683 36.776 26.8697 37.1067 27.243 37.352C27.6163 37.608 28.107 37.736 28.715 37.736ZM28.667 32.232C29.1577 32.232 29.5417 32.0667 29.819 31.736C30.0963 31.4053 30.235 30.9893 30.235 30.488V29.96C30.235 29.4693 30.0963 29.0587 29.819 28.728C29.5417 28.3973 29.1523 28.232 28.651 28.232C28.1497 28.232 27.7603 28.3973 27.483 28.728C27.2163 29.0587 27.083 29.4693 27.083 29.96V30.472C27.083 30.9733 27.2217 31.3947 27.499 31.736C27.7763 32.0667 28.1657 32.232 28.667 32.232ZM37.2915 35.128C36.5982 35.128 35.9848 35 35.4515 34.744C34.9182 34.4773 34.4968 34.1147 34.1875 33.656C33.8782 33.1867 33.7235 32.6427 33.7235 32.024V30.344C33.7235 29.8 33.8675 29.2987 34.1555 28.84C34.4542 28.3813 34.8435 28.0133 35.3235 27.736C35.8035 27.4587 36.3315 27.32 36.9075 27.32C37.4622 27.32 37.9688 27.448 38.4275 27.704C38.8968 27.96 39.2702 28.3067 39.5475 28.744C39.8355 29.1813 39.9795 29.688 39.9795 30.264C39.9795 30.6907 39.9102 31 39.7715 31.192C39.6328 31.3733 39.4568 31.4853 39.2435 31.528C39.0302 31.5707 38.8062 31.592 38.5715 31.592H35.0515V32.072C35.0515 32.6693 35.2648 33.144 35.6915 33.496C36.1182 33.8373 36.6675 34.008 37.3395 34.008C37.7342 34.008 38.0488 33.9547 38.2835 33.848C38.5182 33.7413 38.7102 33.64 38.8595 33.544C39.0088 33.4373 39.1422 33.384 39.2595 33.384C39.3768 33.384 39.4728 33.4213 39.5475 33.496C39.6328 33.56 39.6968 33.64 39.7395 33.736C39.7822 33.832 39.8035 33.9173 39.8035 33.992C39.8035 34.1307 39.7022 34.2907 39.4995 34.472C39.2968 34.6427 39.0035 34.7973 38.6195 34.936C38.2462 35.064 37.8035 35.128 37.2915 35.128ZM35.0515 30.696H38.0115C38.2995 30.696 38.4862 30.664 38.5715 30.6C38.6675 30.5253 38.7155 30.3867 38.7155 30.184C38.7155 29.864 38.6355 29.5707 38.4755 29.304C38.3262 29.0267 38.1128 28.8027 37.8355 28.632C37.5582 28.4613 37.2435 28.376 36.8915 28.376C36.5608 28.376 36.2568 28.456 35.9795 28.616C35.7022 28.7653 35.4782 28.9733 35.3075 29.24C35.1368 29.5067 35.0515 29.8 35.0515 30.12V30.696ZM42.809 35C42.6277 35 42.473 34.952 42.345 34.856C42.2277 34.7493 42.169 34.6373 42.169 34.52V27.88C42.169 27.7413 42.2277 27.6293 42.345 27.544C42.473 27.4587 42.6277 27.416 42.809 27.416C42.9903 27.416 43.1397 27.4587 43.257 27.544C43.3743 27.6293 43.433 27.7413 43.433 27.88V28.632C43.5503 28.408 43.7103 28.2 43.913 28.008C44.1157 27.8053 44.3503 27.64 44.617 27.512C44.8943 27.384 45.1983 27.32 45.529 27.32H46.073C46.2117 27.32 46.329 27.3787 46.425 27.496C46.5317 27.6133 46.585 27.7573 46.585 27.928C46.585 28.088 46.5317 28.2267 46.425 28.344C46.329 28.4613 46.2117 28.52 46.073 28.52H45.529C45.1877 28.52 44.8623 28.616 44.553 28.808C44.2437 29 43.9877 29.272 43.785 29.624C43.593 29.9653 43.497 30.3813 43.497 30.872V34.52C43.497 34.6373 43.4277 34.7493 43.289 34.856C43.161 34.952 43.001 35 42.809 35ZM55.2569 35.128C54.5742 35.128 53.9769 35.0267 53.4649 34.824C52.9529 34.6107 52.5582 34.3653 52.2809 34.088C52.0035 33.8 51.8649 33.544 51.8649 33.32C51.8649 33.2133 51.8915 33.1067 51.9449 33C52.0089 32.8827 52.0835 32.7867 52.1689 32.712C52.2649 32.6267 52.3609 32.584 52.4569 32.584C52.5849 32.584 52.7075 32.648 52.8249 32.776C52.9529 32.904 53.1075 33.0587 53.2889 33.24C53.4809 33.4107 53.7262 33.56 54.0249 33.688C54.3235 33.816 54.7129 33.88 55.1929 33.88C55.6409 33.88 56.0302 33.8107 56.3609 33.672C56.6915 33.5227 56.9475 33.304 57.1289 33.016C57.3209 32.7173 57.4169 32.344 57.4169 31.896C57.4169 31.4373 57.3209 31.064 57.1289 30.776C56.9369 30.488 56.6809 30.248 56.3609 30.056C56.0515 29.864 55.7102 29.6933 55.3369 29.544C54.9742 29.3947 54.6009 29.2453 54.2169 29.096C53.8435 28.936 53.5022 28.744 53.1929 28.52C52.8835 28.2853 52.6329 27.9867 52.4409 27.624C52.2489 27.2613 52.1529 26.8027 52.1529 26.248C52.1529 25.6613 52.2595 25.176 52.4729 24.792C52.6862 24.408 52.9689 24.104 53.3209 23.88C53.6729 23.656 54.0515 23.5013 54.4569 23.416C54.8729 23.32 55.2782 23.272 55.6729 23.272C55.9609 23.272 56.2649 23.2933 56.5849 23.336C56.9049 23.3787 57.2089 23.4427 57.4969 23.528C57.7849 23.6133 58.0195 23.7253 58.2009 23.864C58.3822 23.992 58.4729 24.1467 58.4729 24.328C58.4729 24.4133 58.4515 24.5147 58.4089 24.632C58.3662 24.7387 58.3022 24.84 58.2169 24.936C58.1315 25.0213 58.0249 25.064 57.8969 25.064C57.7795 25.064 57.6355 25.016 57.4649 24.92C57.2942 24.8133 57.0649 24.712 56.7769 24.616C56.4995 24.5093 56.1315 24.456 55.6729 24.456C55.2889 24.456 54.9262 24.5093 54.5849 24.616C54.2542 24.7227 53.9875 24.8987 53.7849 25.144C53.5929 25.3893 53.4969 25.7147 53.4969 26.12C53.4969 26.504 53.5929 26.8187 53.7849 27.064C53.9769 27.3093 54.2275 27.512 54.5369 27.672C54.8462 27.832 55.1875 27.9813 55.5609 28.12C55.9342 28.248 56.3075 28.4027 56.6809 28.584C57.0542 28.7547 57.3955 28.968 57.7049 29.224C58.0249 29.48 58.2809 29.816 58.4729 30.232C58.6649 30.6373 58.7609 31.1493 58.7609 31.768C58.7609 32.536 58.6062 33.1707 58.2969 33.672C57.9982 34.1627 57.5875 34.5307 57.0649 34.776C56.5422 35.0107 55.9395 35.128 55.2569 35.128ZM63.8961 35.128C63.3308 35.128 62.8081 34.984 62.3281 34.696C61.8481 34.3973 61.4641 34.0133 61.1761 33.544C60.8881 33.0747 60.7441 32.568 60.7441 32.024V30.392C60.7441 29.848 60.8828 29.3467 61.1601 28.888C61.4481 28.4187 61.8321 28.04 62.3121 27.752C62.7921 27.464 63.3201 27.32 63.8961 27.32C64.4615 27.32 64.9841 27.464 65.4641 27.752C65.9441 28.0293 66.3281 28.3973 66.6161 28.856C66.9148 29.3147 67.0641 29.8267 67.0641 30.392V32.024C67.0641 32.5573 66.9148 33.064 66.6161 33.544C66.3281 34.0133 65.9441 34.3973 65.4641 34.696C64.9841 34.984 64.4615 35.128 63.8961 35.128ZM63.8961 33.928C64.2375 33.928 64.5415 33.8373 64.8081 33.656C65.0855 33.4747 65.3095 33.24 65.4801 32.952C65.6508 32.6533 65.7361 32.344 65.7361 32.024V30.392C65.7361 30.0827 65.6508 29.784 65.4801 29.496C65.3201 29.208 65.1015 28.9733 64.8241 28.792C64.5468 28.6107 64.2375 28.52 63.8961 28.52C63.5548 28.52 63.2455 28.6107 62.9681 28.792C62.6908 28.9733 62.4721 29.208 62.3121 29.496C62.1521 29.784 62.0721 30.0827 62.0721 30.392V32.024C62.0721 32.344 62.1521 32.6533 62.3121 32.952C62.4721 33.24 62.6908 33.4747 62.9681 33.656C63.2455 33.8373 63.5548 33.928 63.8961 33.928ZM70.0331 35C69.8518 35 69.6971 34.9573 69.5691 34.872C69.4518 34.7867 69.3931 34.6747 69.3931 34.536V25.832C69.3931 25.2773 69.5211 24.776 69.7771 24.328C70.0331 23.8693 70.3745 23.5067 70.8011 23.24C71.2385 22.9733 71.7131 22.84 72.2251 22.84H72.7851C72.9558 22.84 73.0891 22.8987 73.1851 23.016C73.2811 23.1333 73.3291 23.272 73.3291 23.432C73.3291 23.5813 73.2811 23.7147 73.1851 23.832C73.0891 23.9493 72.9558 24.008 72.7851 24.008H72.4491C72.1185 24.008 71.8198 24.088 71.5531 24.248C71.2971 24.3973 71.0945 24.6053 70.9451 24.872C70.7958 25.128 70.7211 25.4107 70.7211 25.72V27.416H72.9131C73.0411 27.416 73.1425 27.4693 73.2171 27.576C73.2918 27.6827 73.3291 27.8053 73.3291 27.944C73.3291 28.072 73.2918 28.1893 73.2171 28.296C73.1425 28.4027 73.0411 28.456 72.9131 28.456H70.7211V34.536C70.7211 34.6747 70.6518 34.7867 70.5131 34.872C70.3745 34.9573 70.2145 35 70.0331 35ZM76.5892 35.128C75.9919 35.128 75.4799 34.9573 75.0532 34.616C74.6372 34.264 74.4292 33.7253 74.4292 33C74.4292 32.4133 74.5892 31.96 74.9092 31.64C75.2292 31.3093 75.6666 31.0853 76.2212 30.968C76.7866 30.84 77.4372 30.776 78.1732 30.776H78.9412V30.44C78.9412 30.12 78.8826 29.8107 78.7652 29.512C78.6479 29.2027 78.4612 28.952 78.2052 28.76C77.9599 28.5573 77.6186 28.456 77.1812 28.456C76.8079 28.456 76.5092 28.4933 76.2852 28.568C76.0719 28.6427 75.9012 28.7227 75.7732 28.808C75.6452 28.8827 75.5332 28.92 75.4372 28.92C75.2772 28.92 75.1546 28.8453 75.0692 28.696C74.9839 28.536 74.9412 28.3867 74.9412 28.248C74.9412 28.0773 75.0586 27.9227 75.2932 27.784C75.5279 27.6453 75.8212 27.5333 76.1732 27.448C76.5252 27.3627 76.8719 27.32 77.2132 27.32C77.9599 27.32 78.5572 27.4693 79.0052 27.768C79.4532 28.0667 79.7732 28.4507 79.9652 28.92C80.1679 29.3893 80.2692 29.8907 80.2692 30.424V34.52C80.2692 34.648 80.2052 34.76 80.0772 34.856C79.9599 34.952 79.8052 35 79.6132 35C79.4426 35 79.2986 34.952 79.1812 34.856C79.0639 34.76 79.0052 34.648 79.0052 34.52V33.88C78.7279 34.2 78.3919 34.488 77.9972 34.744C77.6026 35 77.1332 35.128 76.5892 35.128ZM77.0052 34.056C77.3146 34.056 77.6132 33.9707 77.9012 33.8C78.1999 33.6293 78.4452 33.416 78.6372 33.16C78.8399 32.904 78.9412 32.6587 78.9412 32.424V31.592H78.3812C77.9332 31.592 77.5066 31.6187 77.1012 31.672C76.7066 31.7253 76.3866 31.8427 76.1412 32.024C75.8959 32.1947 75.7732 32.472 75.7732 32.856C75.7732 33.272 75.8906 33.576 76.1252 33.768C76.3599 33.96 76.6532 34.056 77.0052 34.056ZM83.2815 35.096C83.0362 35.096 82.8335 35.0107 82.6735 34.84C82.5135 34.6693 82.4335 34.4773 82.4335 34.264C82.4335 34.0293 82.5135 33.832 82.6735 33.672C82.8335 33.5013 83.0362 33.416 83.2815 33.416C83.4948 33.416 83.6815 33.5013 83.8415 33.672C84.0122 33.832 84.0975 34.0293 84.0975 34.264C84.0975 34.4773 84.0122 34.6693 83.8415 34.84C83.6815 35.0107 83.4948 35.096 83.2815 35.096Z" fill="#4E6E77"/>
<circle cx="191" cy="136" r="4" fill="white"/>
<circle cx="191" cy="136" r="2" fill="#71B3C6"/>
</svg>
