<svg xmlns="http://www.w3.org/2000/svg" width="27" height="30" fill="none"><path fill="#CAD3DB" d="M22.336 29.193a.58.58 0 0 0 .58.575h2.844a.58.58 0 0 0 .58-.575V26.9h-4.004v2.292ZM25.964 8.289a13.237 13.237 0 0 0-1.109-2.98c-.197-.386-.836-.386-1.033 0a13.286 13.286 0 0 0-1.473 5.682h3.98a13.225 13.225 0 0 0-.365-2.702ZM22.336 12.142h4.005v13.609h-4.005V12.142ZM14.872 22.404c-1.102 0-1.999.89-1.999 1.982s.897 1.981 2 1.981a1.992 1.992 0 0 0 1.998-1.981 1.992 1.992 0 0 0-1.999-1.982Z"/><path fill="#CAD3DB" d="M0 3.057v25.611c0 .608.497 1.1 1.11 1.1h17.11c.612 0 1.11-.492 1.11-1.1V3.057c0-.747.303-1.533.725-2.058H2.075A2.067 2.067 0 0 0 0 3.057Zm2.468 14.156h14.396c.348 0 .63.28.63.625a.628.628 0 0 1-.63.626H2.468a.628.628 0 0 1-.63-.626c0-.345.281-.625.63-.625Zm-.63-3.74c0-.346.281-.626.63-.626h14.396c.348 0 .63.28.63.626a.628.628 0 0 1-.63.625H2.468a.628.628 0 0 1-.63-.625Zm8.213 13.722H2.468a.628.628 0 0 1-.631-.625c0-.346.282-.626.63-.626h7.584c.348 0 .63.28.63.626a.628.628 0 0 1-.63.625Zm0-4.365H2.468a.628.628 0 0 1-.631-.626c0-.345.282-.625.63-.625h7.584c.348 0 .63.28.63.625a.628.628 0 0 1-.63.626Zm4.82 4.788c-1.799 0-3.261-1.45-3.261-3.233 0-1.782 1.462-3.232 3.26-3.232 1.798 0 3.26 1.45 3.26 3.232 0 1.783-1.462 3.233-3.26 3.233ZM6.057 4.117h6.586c.349 0 .631.28.631.625a.628.628 0 0 1-.63.626H6.056a.628.628 0 0 1-.631-.626c0-.345.282-.625.631-.625Zm10.807 4.365c.348 0 .63.28.63.626a.628.628 0 0 1-.63.625H2.468a.628.628 0 0 1-.63-.625c0-.346.281-.626.63-.626h14.396ZM24.75 3.058v.863a1.621 1.621 0 0 0-.413-.051c-.667 0-1.26.35-1.55.915a14.385 14.385 0 0 0-1.613 6.622v.392h-.586V3.058c0-1.088.859-1.99 1.996-2.06h.087a2.07 2.07 0 0 1 2.078 2.06Z"/></svg>