<svg xmlns="http://www.w3.org/2000/svg" width="21" height="16" fill="none"><path fill="#FCFCFC" fill-rule="evenodd" d="M0 0h3.483l1.375 3.65 3.209 8.514h10.266v.561c.459.374.733.842.733 1.497 0 .936-.825 1.778-1.741 1.778-1.008 0-1.742-.842-1.742-1.778 0-.28 0-.561.184-.842h-5.409c.092.28.184.561.184.842 0 .936-.825 1.778-1.742 1.778-1.008 0-1.742-.842-1.742-1.778 0-.28.092-.561.184-.842L3.117 2.526l-.458-1.31H0V0Zm5.683 3.462h14.208c.55 0 1.192.468 1.1 1.123l-1.741 6.737H8.616l-2.933-7.86Zm8.341 2.34V9.45c0 .749-1.1.749-1.1 0V5.801c0-.748 1.1-.748 1.1 0Zm-2.383 0V9.45c0 .749-1.191.749-1.191 0V5.801c0-.748 1.191-.748 1.191 0Zm4.859 0V9.45c0 .749-1.192.749-1.192 0V5.801c0-.748 1.192-.748 1.192 0Zm-7.7 7.672a.73.73 0 0 1 .733.748c0 .375-.367.75-.733.75-.367 0-.734-.375-.734-.75a.73.73 0 0 1 .734-.748Zm8.524 0a.73.73 0 0 1 .734.748c0 .375-.367.75-.734.75-.458 0-.733-.375-.733-.75 0-.467.275-.748.733-.748Z" clip-rule="evenodd"/></svg>