<svg xmlns="http://www.w3.org/2000/svg" width="30" height="25" fill="none"><path fill="#CAD3DB" d="M28.179.286H5.304a1 1 0 0 0-.703.289.983.983 0 0 0-.291.697v3.615H.994a.999.999 0 0 0-.703.29.982.982 0 0 0-.291.696v17.42c0 .261.105.512.291.697a1 1 0 0 0 .703.289h22.544a.999.999 0 0 0 .703-.29.982.982 0 0 0 .291-.696v-3.616h3.647a.999.999 0 0 0 .703-.289.982.982 0 0 0 .291-.697V1.272a.982.982 0 0 0-.29-.697 1 1 0 0 0-.704-.289Zm-7.923 20.279a.993.993 0 0 1-.863.493H5.105a1 1 0 0 1-.664-.244.984.984 0 0 1-.165-1.301l2.95-4.174a.997.997 0 0 1 1.393-.23l1.591 1.117 3.647-4.272a.999.999 0 0 1 1.591.098l4.774 7.527a.978.978 0 0 1 .034.986Zm-13.03-9.696c0-.732.294-1.434.817-1.952a2.798 2.798 0 0 1 3.938 0c.522.518.816 1.22.816 1.952s-.294 1.434-.816 1.952a2.798 2.798 0 0 1-3.938 0 2.75 2.75 0 0 1-.816-1.952Zm19.958 6.836h-2.652V5.873a.981.981 0 0 0-.291-.697.998.998 0 0 0-.704-.289H6.3V2.258h20.885v15.447Z"/></svg>