<svg xmlns="http://www.w3.org/2000/svg" width="95" height="43" fill="none"><path fill="#fff" d="m14.712 17.402.455-.275c.067-.334-.066-.5-.389-.5-.466 0-.7.356-.7 1.065 0 .279.038.602.115.97.826.546 1.237 1.25 1.237 2.106 0 .856-.3 1.52-.896 1.994-.596.473-1.407.708-2.425.708-.423 0-.863-.044-1.319-.128-.477.3-.714.528-.714.679 0 .15.348.227 1.04.227h1.663c2.462 0 3.695.878 3.695 2.633 0 .947-.37 1.696-1.114 2.25-.745.554-1.904.83-3.477.83-2.681 0-4.022-.577-4.022-1.726 0-.624.419-1.053 1.256-1.292l.977.437a3.24 3.24 0 0 0-.13.888c0 .925.697 1.388 2.085 1.388.848 0 1.5-.158 1.955-.47.456-.312.686-.701.686-1.164 0-.462-.137-.77-.415-.928-.278-.158-.83-.236-1.652-.236h-1.577c-.878 0-1.507-.146-1.889-.436-.381-.29-.57-.65-.57-1.072 0-.426.137-.782.407-1.065.27-.286.756-.639 1.448-1.057-1.259-.356-1.888-1.171-1.888-2.452 0-.808.292-1.458.877-1.953.585-.496 1.467-.742 2.637-.742.703 0 1.307.136 1.807.404a3.545 3.545 0 0 1-.096-.79c0-.602.162-1.038.488-1.306a1.676 1.676 0 0 1 1.093-.404c.403 0 .726.106.97.316.244.209.367.499.367.862 0 .367-.097.639-.293.815a1.027 1.027 0 0 1-.707.268c-.278 0-.504-.073-.685-.216-.193-.15-.29-.357-.3-.628Zm-3.451 3.021v.87c0 .72.063 1.212.188 1.469.126.257.315.385.57.385.256 0 .441-.125.552-.378.115-.253.17-.77.17-1.557v-.789c0-.84-.055-1.391-.162-1.655-.108-.265-.289-.397-.545-.397-.255 0-.448.136-.577.411-.134.276-.196.823-.196 1.641ZM23.746 18.694c-.403 0-.755.257-1.059.774-.303.518-.455 1.131-.455 1.84v4.324h1.155v.29h-5.08v-.29h.896V18.53h-.896v-.29h3.925v1.549c.14-.547.41-.97.814-1.267.4-.297.86-.444 1.367-.444.51 0 .925.143 1.244.43.318.286.481.69.481 1.211 0 .521-.118.922-.359 1.204-.24.28-.604.419-1.1.419-.496 0-.859-.162-1.092-.485-.233-.323-.263-.77-.089-1.34h.585c.278-.547.163-.822-.337-.822ZM29.046 25.015c-.7-.716-1.048-1.71-1.048-2.984s.393-2.25 1.181-2.93c.785-.679 1.789-1.017 3.003-1.017 2.463 0 3.648 1.227 3.551 3.679h-4.591v.631c0 1.054.137 1.85.407 2.39.27.54.744.808 1.418.808 1.26 0 2.085-.668 2.474-2.001l.292.048c-.207.774-.577 1.376-1.114 1.806-.537.43-1.344.646-2.418.646-1.404-.004-2.455-.363-3.155-1.076Zm2.11-3.575h1.678v-.79c0-.87-.052-1.464-.156-1.784-.103-.315-.31-.477-.618-.477-.31 0-.537.169-.685.507-.148.337-.218.921-.218 1.75v.794ZM39.077 25.015c-.7-.716-1.052-1.71-1.052-2.984s.393-2.25 1.182-2.93c.785-.679 1.788-1.017 3.003-1.017 2.462 0 3.647 1.227 3.547 3.679h-4.591v.631c0 1.054.137 1.85.407 2.39.27.54.744.808 1.414.808 1.26 0 2.085-.668 2.474-2.001l.292.048c-.207.774-.577 1.376-1.114 1.806-.537.43-1.344.646-2.418.646-1.396-.004-2.444-.363-3.144-1.076Zm2.107-3.575h1.677v-.79c0-.87-.051-1.464-.155-1.784-.104-.315-.311-.477-.619-.477-.31 0-.536.169-.684.507-.149.337-.219.921-.219 1.75v.794ZM48.005 18.243h3.925v1.483c.174-.496.44-.892.796-1.193.36-.301.9-.452 1.63-.452 1.68 0 2.525.9 2.525 2.695v4.856h.91v.29h-4.606v-.29h.667v-5.245c0-.647-.045-1.061-.13-1.252-.085-.188-.244-.283-.47-.283-.348 0-.656.228-.918.68-.267.45-.4 1.001-.4 1.644v4.456h.7v.29h-4.63v-.29h.897V18.53h-.896v-.286ZM60.762 25.015c-.7-.716-1.052-1.71-1.052-2.984s.392-2.25 1.181-2.93c.785-.679 1.789-1.017 3.003-1.017 2.463 0 3.648 1.227 3.551 3.679h-4.591v.631c0 1.054.137 1.85.407 2.39.27.54.744.808 1.418.808 1.26 0 2.085-.668 2.474-2.001l.292.048c-.207.774-.577 1.376-1.114 1.806-.537.43-1.344.646-2.418.646-1.4-.004-2.452-.363-3.151-1.076Zm2.11-3.575h1.678v-.79c0-.87-.052-1.464-.156-1.784-.104-.315-.31-.477-.618-.477-.311 0-.537.169-.685.507-.148.337-.219.921-.219 1.75v.794ZM75.099 18.694c-.4 0-.756.257-1.06.774-.303.518-.455 1.131-.455 1.84v4.324h1.156v.29h-5.08v-.29h.895V18.53h-.896v-.29h3.925v1.549c.141-.547.411-.97.815-1.267.4-.297.859-.444 1.366-.444.511 0 .926.143 1.244.43.319.286.482.69.482 1.211 0 .521-.119.922-.36 1.204-.236.28-.603.419-1.1.419-.492 0-.858-.162-1.092-.485-.233-.323-.262-.77-.088-1.34h.585c.274-.547.159-.822-.337-.822ZM79.02 18.533v-.29h4.721v.29h-.878l1.774 5.36 1.889-5.36h-1.093v-.29h2.296v.29h-.815l-3.043 8.7c-.36 1.01-.76 1.718-1.204 2.122-.444.404-.989.606-1.63.606-.64 0-1.143-.147-1.514-.437-.37-.29-.551-.661-.551-1.113 0-.451.118-.796.359-1.031.237-.239.552-.356.944-.356.9 0 1.352.37 1.352 1.112 0 .162-.034.356-.097.58h-.57c-.089.246-.096.452-.033.613.066.162.21.242.44.242.445 0 .841-.216 1.19-.653.347-.437.677-1.101.992-1.993l.359-1.003h-1.433L79.69 18.53h-.67v.004ZM47.339 8.797a.216.216 0 0 1-.13-.04.229.229 0 0 1-.063-.32c.822-1.197.955-2.11 1.081-2.995.048-.32.093-.65.174-.988.193-.815.437-1.49.748-2.048a33.998 33.998 0 0 1-1.122-.188c-.603-.106-1.23-.216-1.848-.271-1.07-.092-2.573-.022-3.632.848-.27.224-.607.583-.666 1.042a.237.237 0 0 1-.26.199.229.229 0 0 1-.2-.257c.082-.606.496-1.061.834-1.337 1.18-.969 2.806-1.053 3.969-.954.637.055 1.274.169 1.889.275.429.077.866.154 1.307.21.259-.375.559-.687.896-.937.537-.4 1.377-.712 2.114-.392.278.12.574.378.57.741-.003.286-.2.55-.555.745-.593.323-1.315.44-2.288.382a11.667 11.667 0 0 1-.504-.044c-.33.547-.589 1.237-.792 2.093-.075.315-.119.62-.167.947-.137.936-.278 1.905-1.16 3.19a.241.241 0 0 1-.195.099Zm2.606-6.762c.078.007.16.01.237.018.878.055 1.522-.048 2.037-.327.093-.05.315-.187.315-.345 0-.128-.145-.25-.293-.312-.559-.238-1.218.019-1.651.338a3.575 3.575 0 0 0-.645.628Z"/><path fill="#fff" d="M50.037 8.874a.636.636 0 0 1-.374-.114c-.178-.124-.282-.345-.293-.624-.014-.418.137-.793.286-1.156.103-.253.203-.492.24-.738 0-.007 0-.011.004-.018a.469.469 0 0 0-.13.051c-.77.455-1.596 1.344-2.203 2.379a.236.236 0 0 1-.318.084.231.231 0 0 1-.086-.315c.648-1.102 1.533-2.052 2.37-2.544.319-.188.63-.158.77.077.086.136.06.29.052.356-.048.3-.159.576-.27.844-.137.33-.263.646-.252.966.004.128.04.227.096.264.078.055.241.03.437-.073.197-.103.39-.224.582-.342l.092-.059c.185-.113.363-.23.545-.356-.07-.477.081-1.042.4-1.398a1.062 1.062 0 0 1 1.103-.338.518.518 0 0 1 .3.194c.096.144.096.33 0 .53-.185.374-.533.638-.837.873l-.107.084c-.104.081-.211.162-.319.239a.63.63 0 0 0 .237.286c.096.055.226.081.419.085a2.764 2.764 0 0 0 1.722-.584.22.22 0 0 1 .177-.048.231.231 0 0 1 .156.1s.666.748 4.336.748h5.254a.231.231 0 1 1 0 .463h-5.254c-3.044 0-4.158-.507-4.54-.782a3.305 3.305 0 0 1-1.855.565c-.189 0-.433-.022-.648-.147a1.046 1.046 0 0 1-.381-.414c-.148.099-.297.198-.448.29l-.093.058c-.2.125-.404.25-.611.36-.23.114-.411.154-.56.154Zm2.773-2.636a.617.617 0 0 0-.481.224c-.17.191-.278.485-.296.768l.114-.089.112-.084c.277-.213.566-.433.703-.712a.238.238 0 0 0 .026-.085.59.59 0 0 0-.178-.022ZM37.077 8.874h-3.999a.231.231 0 1 1 0-.462h4c4.272 0 5.331-.856 5.342-.863a.254.254 0 0 1 .182-.055.234.234 0 0 1 .163.095c.677.977 1.3.709 1.322.694.648-.198.955-.925 1.103-1.505.134-.514.215-1.05.293-1.571.078-.503.155-1.02.281-1.527.315-1.278.907-2.232 1.718-2.765a.234.234 0 0 1 .322.066.23.23 0 0 1-.066.32c-.9.587-1.326 1.677-1.522 2.489-.119.484-.196.995-.27 1.486-.082.533-.163 1.08-.3 1.616-.256.995-.737 1.626-1.389 1.82-.004.004-.87.412-1.74-.679-.493.276-1.933.841-5.44.841ZM23.277 37.919l-.319 1.01-.548-.17.863-2.72 1 .312c.322.103.544.253.659.459.115.206.133.44.048.705-.082.26-.233.44-.452.54-.218.102-.485.102-.796.003l-.455-.14Zm1.144-.58c.044-.136.04-.254-.015-.35-.052-.095-.163-.168-.333-.223l-.393-.121-.266.837.392.12c.322.104.526.016.615-.263ZM28.664 37.574l-.397 1.626c-.051.217-.044.393.026.525.07.132.197.22.378.264.181.044.33.022.456-.062.122-.084.21-.235.262-.455l.397-1.627.555.133-.396 1.626a1.385 1.385 0 0 1-.304.617.944.944 0 0 1-.496.297 1.325 1.325 0 0 1-.611-.007c-.337-.081-.578-.243-.73-.492-.151-.246-.18-.562-.088-.947l.396-1.627.552.129ZM34.385 41.652l-.474-1.208-.248-.04-.19 1.094-.566-.096.482-2.812 1.08.184c.33.055.567.176.712.367a.826.826 0 0 1 .152.672.812.812 0 0 1-.27.503.9.9 0 0 1-.567.198l.514 1.24-.625-.102Zm-.66-1.637.467.077c.322.055.511-.059.56-.345a.444.444 0 0 0-.064-.338c-.066-.088-.181-.147-.348-.176l-.466-.077-.148.859ZM39.002 39.85l-.077.734 1.01.107-.044.433-1.01-.107-.082.764 1.133.117-.048.456-1.707-.177.3-2.834 1.707.176-.048.452-1.134-.121ZM49.274 42.684l-.574.004-1.3-1.928.016 1.939-.574.003-.023-2.848.574-.004 1.3 1.945-.015-1.953.574-.003.022 2.845ZM54.303 41.836l-1.148.088-.159.587-.603.048.833-2.893.655-.051 1.274 2.727-.604.048-.248-.554Zm-.189-.419L53.6 40.25l-.33 1.233.844-.066ZM59.772 38.888l.067.448-.785.113.348 2.376-.57.08-.348-2.375-.782.114-.066-.448 2.136-.308ZM63.212 38.257l.355 1.633c.048.22.13.371.252.46.119.087.274.113.456.073.181-.037.307-.122.381-.254.074-.128.085-.304.04-.52l-.355-1.635.56-.117.355 1.634c.055.257.055.484-.004.682a.942.942 0 0 1-.314.481c-.152.125-.338.21-.556.254-.337.073-.63.029-.874-.129s-.41-.43-.492-.815l-.356-1.633.552-.114ZM70.148 39.471l-.956-.884-.244.07.311 1.068-.552.158-.796-2.739 1.052-.301c.322-.092.589-.084.8.022.214.106.355.286.43.54a.827.827 0 0 1-.023.569c-.074.172-.215.312-.422.422l1.007.9-.607.175Zm-1.307-1.189.455-.128c.315-.092.433-.272.352-.551a.425.425 0 0 0-.204-.275c-.1-.052-.23-.056-.389-.008l-.455.129.24.833ZM73.514 35.867l.252.694.959-.342.148.411-.96.342.264.723 1.073-.382.156.43-1.615.572-.97-2.683 1.615-.573.155.426-1.077.382ZM52.815 32.05h-9.546v.92h9.546v-.92ZM28.187 8.14c-1.2-.052-2.551-.147-3.91-.411-.248-.617-.378-1.278-.504-1.975-.04-.224-.081-.448-.126-.669-.185-.899-.5-2.037-1.307-2.845-.066-.066-.237-.238-.488-.238h-.008c-.27 0-.496.187-.626.51-.289.738-.226 1.538-.152 2.078.119.877.337 1.545.686 2.096.103.165.222.316.348.452a10.792 10.792 0 0 1-1.73-.812.328.328 0 0 0-.159-.125c-.278-1.593-.578-3.226-1.103-4.794C18.93.875 18.67.302 18.093.071c-.222-.088-.44-.085-.615.01-.281.159-.33.47-.348.592-.148.984.056 2.191.489 3.311-.918-.925-1.888-1.846-3.08-2.489-.36-.194-.838-.407-1.349-.352a.346.346 0 0 0-.31.337c-.016.647.362 1.245 1.155 1.84 1.233.921 2.899 1.424 3.584 1.6.289.349.611.68.966.988-1.692-.309-3.484-.008-4.973.884a.34.34 0 0 0-.166.313.349.349 0 0 0 .196.293c.611.29 1.274.382 1.93.382.429 0 .855-.04 1.255-.092 1.262-.158 2.28-.407 3.188-.767.53.308 1.096.584 1.707.815-.744.279-1.522.61-2.177 1.123-.76.595-1.24 1.358-1.352 2.155-.056.39.13.566.244.635a.498.498 0 0 0 .267.074.784.784 0 0 0 .37-.11c1.467-.779 2.677-1.935 3.848-3.051l.359-.342c.215.056.426.103.64.151.008.004.015.004.026.004 1.47.304 2.926.407 4.214.462h.015c.185 0 .34-.147.348-.33a.356.356 0 0 0-.337-.367ZM14.453 2.758c-.418-.312-.685-.61-.803-.9.196.052.385.144.559.24.837.45 1.57 1.064 2.258 1.717-.792-.304-1.5-.672-2.014-1.057Zm7.413.004c0-.004 0-.004.004-.008.663.68.933 1.674 1.092 2.47.045.218.085.438.126.658.082.444.163.9.285 1.344a2.3 2.3 0 0 1-1.033-.91c-.292-.463-.481-1.043-.585-1.822-.1-.745-.066-1.277.111-1.732ZM17.82.768a.683.683 0 0 1 .011-.062c.311.125.485.532.611.91.437 1.315.719 2.695.963 4.053-.008-.007-.015-.01-.022-.018C18.286 4.38 17.6 2.248 17.819.768Zm-1.081 6.23c-.652.08-1.374.136-2.044.007 1.255-.54 2.7-.679 4.028-.385-.588.161-1.244.283-1.984.378Zm2.184 3.906c.134-.547.504-1.076 1.056-1.505.551-.43 1.2-.72 2-1.02.073-.026.144-.056.214-.078-1.01.955-2.062 1.924-3.27 2.603ZM83.452 6.781c-1.489-.892-3.277-1.193-4.973-.884.355-.309.677-.639.966-.988.685-.176 2.348-.679 3.585-1.6.792-.591 1.17-1.193 1.155-1.84a.349.349 0 0 0-.31-.337c-.52-.052-.993.161-1.349.352-1.192.643-2.162 1.56-3.08 2.49.433-1.12.636-2.325.488-3.309-.018-.117-.063-.433-.348-.59-.174-.096-.392-.1-.615-.012-.577.232-.837.804-1.01 1.337-.523 1.564-.823 3.2-1.104 4.794a.32.32 0 0 0-.16.129c-.595.348-1.188.613-1.728.81.125-.139.24-.29.344-.45.348-.551.566-1.22.685-2.097.074-.54.137-1.34-.152-2.078-.13-.326-.37-.525-.633-.51-.252.004-.422.176-.489.239-.81.811-1.126 1.945-1.31 2.845-.045.224-.086.448-.127.672-.126.697-.255 1.354-.503 1.971-1.36.264-2.71.36-3.91.411a.346.346 0 0 0 .015.69h.014c1.289-.055 2.744-.158 4.214-.462.007 0 .015-.004.022-.004.215-.044.426-.095.64-.15l.356.337c1.17 1.116 2.381 2.273 3.848 3.05a.79.79 0 0 0 .37.107.498.498 0 0 0 .267-.073c.114-.07.3-.242.244-.632-.111-.792-.592-1.56-1.352-2.154-.655-.51-1.433-.841-2.177-1.124a11.535 11.535 0 0 0 1.704-.811c.907.36 1.929.602 3.195.764.4.05.826.091 1.255.091.652 0 1.319-.091 1.926-.381a.342.342 0 0 0 .196-.294.318.318 0 0 0-.16-.309Zm-.593-4.684c.175-.092.363-.187.556-.238-.119.29-.389.587-.807.899-.515.385-1.222.753-2.011 1.057.692-.657 1.43-1.266 2.263-1.718Zm-4.236-.48c.126-.383.297-.786.611-.911a.683.683 0 0 1 .011.062c.219 1.48-.466 3.613-1.566 4.886l-.022.015c.248-1.358.53-2.738.966-4.053Zm-4.647 4.265c.04-.22.082-.44.126-.657.163-.793.433-1.788 1.096-2.47 0 .003 0 .003.004.007.178.451.21.987.11 1.736-.103.775-.288 1.355-.584 1.82a2.315 2.315 0 0 1-1.033.908c.118-.448.2-.903.281-1.344Zm4.17 5.022c-1.211-.68-2.263-1.645-3.274-2.61.07.026.145.051.219.08.803.302 1.451.592 2 1.021.551.433.921.962 1.055 1.51Zm2.18-3.906a14.483 14.483 0 0 1-1.984-.374 6.653 6.653 0 0 1 4.029.385c-.667.125-1.389.07-2.044-.01ZM1.581 23.757c.873 0 1.581-.702 1.581-1.568 0-.866-.708-1.567-1.58-1.567-.874 0-1.582.701-1.582 1.567s.708 1.568 1.581 1.568ZM92.984 23.757c.873 0 1.58-.702 1.58-1.568 0-.866-.707-1.567-1.58-1.567-.874 0-1.582.701-1.582 1.567s.708 1.568 1.582 1.568Z"/></svg>