<svg xmlns="http://www.w3.org/2000/svg" width="33" height="30" fill="none"><path fill="#B6DDFF" d="M32.998 14.65a1.989 1.989 0 0 1-.584 1.495 1.976 1.976 0 0 1-1.495.573h-2.26V26.524a3.142 3.142 0 0 1-.913 2.283 3.124 3.124 0 0 1-2.275.92h-4.65c-.933 0-1.422-.493-1.422-1.442v-5.418c0-1.453-.723-2.492-1.98-2.928-1.765-.616-3.722.635-3.792 2.508-.069 1.873-.052 3.826-.023 5.738 0 .944-.514 1.589-1.547 1.556-1.525-.05-3.053 0-4.577 0a3.125 3.125 0 0 1-2.223-.913 3.141 3.141 0 0 1-.922-2.225v-9.885H2.177c-1.403 0-2.198-.81-2.175-2.214-.011-.607.027-1.215.115-1.816A2.979 2.979 0 0 1 1.3 10.864C5.582 7.53 9.863 4.191 14.142.851a3.69 3.69 0 0 1 4.712 0c4.26 3.327 8.52 6.651 12.785 9.974a3.34 3.34 0 0 1 1.36 2.783v1.042Z"/></svg>