<svg xmlns="http://www.w3.org/2000/svg" width="30" height="32" fill="none"><path fill="#CAD3DB" d="M16.219 14.63a.485.485 0 0 0 .49.487h2.947a.485.485 0 0 0 .491-.487v-3.407a.491.491 0 0 0 .452-.302.483.483 0 0 0-.104-.53l-1.964-1.947a.493.493 0 0 0-.348-.142h-4.91c-.13 0-.256.05-.349.142L10.96 10.39c-.14.14-.18.349-.103.53.075.182.253.3.452.302v3.408c0 .129.051.252.143.344a.493.493 0 0 0 .348.142h2.946a.485.485 0 0 0 .491-.487v-.973h.982v.974Zm-1.473-1.947a.489.489 0 0 0-.491.487v.974H12.29v-2.921h.49v.487h.983v-.487h.49v.487h.983v-.487h.49v.487h.983v-.487h.49v.487h.983v-.487h.982v2.92H17.2v-.973a.485.485 0 0 0-.491-.487h-1.964Z"/><path fill="#CAD3DB" d="M0 24.562c.001.452.15.891.42 1.248.272.358.652.613 1.08.726v3.14c0 .553.33 1.131 4.25 1.597a83.37 83.37 0 0 0 9.25.45 83.373 83.373 0 0 0 9.25-.45c3.92-.466 4.25-1.023 4.25-1.596v-3.141a1.996 1.996 0 0 0 1.08-.726c.27-.357.419-.796.42-1.248 0-.584-.575-4.093-2-4.093s-2 3.51-2 4.093c.001.452.15.891.42 1.248.272.358.652.613 1.08.726v2.174a14.98 14.98 0 0 0-3.055-.604c-2.698-.3-5.41-.459-8.125-.475.53-1.422 1.165-3.228 1.5-4.456a11.503 11.503 0 0 0 6.685-4.758 11.976 11.976 0 0 0 1.928-8.096 11.85 11.85 0 0 0-3.796-7.37A11.351 11.351 0 0 0 15.02 0a11.35 11.35 0 0 0-7.616 2.95 11.853 11.853 0 0 0-3.797 7.371 11.976 11.976 0 0 0 1.928 8.096 11.504 11.504 0 0 0 6.685 4.758c.315 1.228.95 3.034 1.5 4.456a77.918 77.918 0 0 0-8.125.465c-1.05.095-2.087.3-3.095.614v-2.174a1.996 1.996 0 0 0 1.08-.726c.27-.357.419-.796.42-1.248 0-.584-.575-4.093-2-4.093s-2 3.51-2 4.093Zm8-12.788c0-1.9.737-3.72 2.05-5.064A6.921 6.921 0 0 1 15 4.613c1.856 0 3.637.754 4.95 2.097A7.246 7.246 0 0 1 22 11.774c0 1.899-.738 3.72-2.05 5.063A6.921 6.921 0 0 1 15 18.935a6.921 6.921 0 0 1-4.95-2.098A7.246 7.246 0 0 1 8 11.774Zm6.065 16.88c.26.68.45 1.145.47 1.207a.5.5 0 0 0 .465.323.5.5 0 0 0 .465-.323c0-.062.21-.512.47-1.207 6 .04 10.055.562 11.28 1.023C25.925 30.152 21.54 30.7 15 30.7s-10.925-.548-12.215-1.023c1.215-.45 5.275-.972 11.28-1.023Z"/></svg>