<svg xmlns="http://www.w3.org/2000/svg" width="18" height="17" fill="none"><path fill="#fff" d="m15.58 12.033-3.895-1.03c-.01-.004-.021-.006-.033-.008-.007-.001-.018-.011-.018-.03V9.549l.386-.35c.458-.417.738-.968.79-1.554l.02-.231.02-.257c.403-.148.732-.536.85-1.037.097-.408.034-.813-.174-1.112a.98.98 0 0 0-.571-.4c.009-.59.012-1.427.012-1.796C12.967 1.262 11.574 0 9.86 0h-.071c-.833 0-1.652.257-2.307.722a.784.784 0 0 1-.473.155c-1.06 0-1.93.784-1.938 1.746l-.001.444c0 .253.001.945.007 1.441a.967.967 0 0 0-.602.405c-.208.299-.273.704-.177 1.112.119.503.46.897.868 1.044.013.198.027.384.042.555l.004.02c.049.587.329 1.138.786 1.553l.367.338v1.43c0 .017-.013.029-.022.03-.01.002-.021.004-.03.008l-3.894 1.03C1.017 12.307 0 13.48 0 14.83v1.503C0 16.7.32 17 .713 17h16.574c.393 0 .713-.3.713-.666V14.83c0-1.35-1.017-2.524-2.42-2.798Z"/></svg>