<svg xmlns="http://www.w3.org/2000/svg" width="22" height="16" fill="none"><path fill="#fff" d="M1.61 0c-.208 0-.406.044-.587.125l9.432 9.173c.34.33.768.33 1.107 0L20.977.125A1.437 1.437 0 0 0 20.392 0H1.61ZM.017 1.577a2.16 2.16 0 0 0-.017.27v12.307c0 .259.043.508.126.73L6.674 8.04.017 1.577Zm21.966 0-6.64 6.452 6.531 6.856a2.1 2.1 0 0 0 .126-.73V1.845c0-.09-.006-.182-.017-.27ZM14.111 9.23l-1.51 1.471c-.915.89-2.27.889-3.185 0L7.915 9.24l-6.456 6.75c.05.005.1.01.15.01h18.782c.053 0 .107-.004.159-.01l-6.44-6.759Z"/></svg>