<svg xmlns="http://www.w3.org/2000/svg" width="14" height="18" fill="none"><path fill="#fff" d="M11.407 0C9.982 0 8.815 1.227 8.815 2.727c0 .44.106.86.283 1.228L4.513 7.176a2.534 2.534 0 0 0-1.92-.903C1.167 6.273 0 7.5 0 9c0 1.5 1.167 2.727 2.593 2.727.76 0 1.444-.35 1.92-.903l4.585 3.213a2.811 2.811 0 0 0-.283 1.236c0 1.5 1.167 2.727 2.592 2.727C12.833 18 14 16.773 14 15.273c0-1.5-1.167-2.728-2.593-2.728-.623 0-1.196.241-1.644.631L5.048 9.878a2.84 2.84 0 0 0 0-1.756l4.699-3.307c.45.4 1.029.64 1.66.64C12.834 5.455 14 4.227 14 2.727 14 1.227 12.833 0 11.408 0Z"/></svg>