<svg xmlns="http://www.w3.org/2000/svg" width="32" height="30" fill="none"><path fill="#CAD3DB" d="M8.525 20.726h3.463v3.14H8.524v-3.14ZM1.875 20.726h3.462v3.14H1.875v-3.14Z"/><path fill="#CAD3DB" d="M6.834 20.435h7.072v9.348H6.833v-9.348ZM8 0h15.764v7.741H8V0Z"/><path fill="#CAD3DB" d="M26.52 13.034a4.261 4.261 0 0 1-2.158 2.203 4.317 4.317 0 0 1-3.092.183 4.276 4.276 0 0 1-2.408-1.931 4.283 4.283 0 0 1-3.682 2.132 4.285 4.285 0 0 1-3.71-2.081 4.259 4.259 0 0 1-2.414 1.897 4.3 4.3 0 0 1-3.073-.21 4.243 4.243 0 0 1-2.128-2.207 3.412 3.412 0 0 1-2.165 1.043v15.72h8.766v-9.927a.584.584 0 0 1 .575-.59h8.238c.332 0 .604.261.616.59v9.926h8.766V14.06a3.239 3.239 0 0 1-2.13-1.025ZM8.762 24.451a.582.582 0 0 1-.173.413.592.592 0 0 1-.416.171H3.532a.587.587 0 0 1-.59-.584v-4.309c0-.322.265-.584.59-.584h4.64c.157 0 .307.062.417.171.11.11.173.258.173.413v4.309Zm18.563-4.309v4.309a.582.582 0 0 1-.173.413.592.592 0 0 1-.417.171h-4.64a.587.587 0 0 1-.59-.584v-4.309c0-.322.264-.584.59-.584h4.64c.156 0 .306.062.417.171.11.11.172.258.172.413Z"/><path fill="#CAD3DB" d="M28.736 3.921a.888.888 0 0 0-.76-.43H24.97v4.674a.61.61 0 0 1-.616.585H7.466a.61.61 0 0 1-.615-.585V3.492H4.429a.883.883 0 0 0-.724.373L.157 8.905A.865.865 0 0 0 0 9.407v1.366c0 .725.371 1.401.986 1.794.616.392 1.39.447 2.056.146a2.133 2.133 0 0 0 1.234-1.637l.024-.342a.587.587 0 0 1 .587-.546h.02c.318.01.57.27.57.585 0 .14-.01.282-.027.422l-.014.205a3.062 3.062 0 0 0 1.557 2.64 3.116 3.116 0 0 0 3.086-.01 3.06 3.06 0 0 0 1.541-2.65c0-.322.264-.584.59-.584.325 0 .589.262.589.585-.004.816.32 1.6.9 2.177.58.578 1.37.903 2.192.903.823 0 1.611-.325 2.192-.904.58-.578.904-1.362.9-2.177 0-.323.263-.585.589-.585h.06c.326 0 .59.262.59.585a3.06 3.06 0 0 0 1.534 2.658c.954.55 2.131.556 3.09.014a3.061 3.061 0 0 0 1.56-2.643l-.003-.02a3.297 3.297 0 0 1-.058-.616.586.586 0 0 1 .56-.58.588.588 0 0 1 .616.523l.049.5a2.136 2.136 0 0 0 1.297 1.534 2.167 2.167 0 0 0 2.008-.21c.593-.396.948-1.058.947-1.767V9.347c0-.157-.04-.31-.12-.446l-2.966-4.98Z"/></svg>