<svg xmlns="http://www.w3.org/2000/svg" width="15" height="17" fill="none"><path fill="#fff" fill-rule="evenodd" d="M0 10.29h3.996v.866l.001.019.003.056.003.019.002.018.002.019.003.018.003.018.004.018.004.019.001.008.003.01.002.008.002.01.003.008.002.01.002.007.005.018.006.017.006.018.006.018.013.033.007.017.007.017.008.017.016.033.009.016.008.016.019.031.009.016.01.015.02.03.011.015.022.03.023.028.012.014.007.008.005.005.007.008.005.006.007.008.014.013.012.013.014.013.041.038.015.011.014.012.016.012a1.048 1.048 0 0 0 .211.127c.38.171.828.11 1.146-.158l3.149-2.65a1.045 1.045 0 0 0 0-1.6L5.767 5.035a1.075 1.075 0 0 0-.24-.153l-.016-.007-.016-.007-.007-.003-.015-.006-.015-.006-.017-.006-.007-.002-.016-.006-.015-.005-.033-.01-.007-.002-.016-.005-.016-.003-.016-.004-.007-.002-.017-.003-.016-.004-.017-.003-.017-.002-.006-.002-.018-.002L5.2 4.79l-.017-.002h-.007l-.016-.002-.017-.002h-.017l-.018-.001h-.097l-.018.001-.017.002h-.006l-.017.002-.017.002-.017.002-.018.003h-.006l-.019.004-.015.003-.017.003-.006.001-.033.008-.017.005-.018.005h-.005l-.018.006-.015.005-.018.006-.005.002-.016.006-.017.006-.016.007-.017.007-.006.002-.016.007a.412.412 0 0 0-.024.012l-.028.014-.018.009a.918.918 0 0 0-.05.029l-.016.01c-.197.126-.345.31-.423.524l-.003.007-.006.018-.004.01c-.01.032-.019.064-.026.097l-.007.03a1.022 1.022 0 0 0-.019.189v.856H.002V.538L.003.523.004.517A.554.554 0 0 1 .127.215L.133.206l.028-.03.02-.02.01-.009L.21.13.22.123a.577.577 0 0 1 .31-.12L.533.001.55 0 .564 0h11.958c.657 0 1.287.257 1.752.713.465.457.726 1.076.726 1.721v12.132c0 .645-.261 1.264-.726 1.721a2.504 2.504 0 0 1-1.752.713H.549l-.015-.002H.529a.578.578 0 0 1-.31-.12l-.007-.007-.021-.018-.01-.009-.023-.022-.007-.008-.018-.02-.006-.009a.554.554 0 0 1-.123-.302v-.006l-.002-.015V10.29H0Zm5.69-9.157 3.815.857a2.212 2.212 0 0 1 1.744 2.148v8.723c0 1.028-.724 1.92-1.744 2.148l-3.816.857h6.831c.351 0 .688-.137.937-.38.248-.245.388-.576.388-.921V2.434c0-.345-.14-.676-.388-.92a1.339 1.339 0 0 0-.937-.381H5.69Z" clip-rule="evenodd"/></svg>