<svg xmlns="http://www.w3.org/2000/svg" aria-hidden="true" style="position:absolute;width:0;height:0;overflow:hidden"><defs><symbol id="icon-pinterest" viewBox="0 0 32 32"><path d="M16 2.138c-7.656 0-13.863 6.206-13.863 13.863 0 5.875 3.656 10.887 8.813 12.906-.119-1.094-.231-2.781.05-3.975.25-1.081 1.625-6.887 1.625-6.887s-.412-.831-.412-2.056c0-1.925 1.119-3.369 2.506-3.369 1.181 0 1.756.887 1.756 1.95 0 1.188-.756 2.969-1.15 4.613-.331 1.381.688 2.506 2.05 2.506 2.462 0 4.356-2.6 4.356-6.35 0-3.319-2.387-5.638-5.787-5.638-3.944 0-6.256 2.956-6.256 6.019 0 1.194.456 2.469 1.031 3.163a.408.408 0 0 1 .094.4c-.106.438-.338 1.381-.387 1.575-.063.256-.2.306-.463.188-1.731-.806-2.813-3.337-2.813-5.369 0-4.375 3.175-8.387 9.156-8.387 4.806 0 8.544 3.425 8.544 8.006 0 4.775-3.012 8.625-7.194 8.625-1.406 0-2.725-.731-3.175-1.594 0 0-.694 2.644-.863 3.294-.313 1.206-1.156 2.712-1.725 3.631 1.3.4 2.675.619 4.106.619 7.656 0 13.863-6.206 13.863-13.863 0-7.662-6.206-13.869-13.863-13.869z"/></symbol><symbol id="icon-twitter" viewBox="0 0 24 24"><path d="M20.833 5.262a6.685 6.685 0 0 1-.616.696.997.997 0 0 0-.278.908c.037.182.06.404.061.634 0 5.256-2.429 8.971-5.81 10.898-2.647 1.509-5.938 1.955-9.222 1.12a12.682 12.682 0 0 0 3.593-1.69 1 1 0 0 0-.156-1.741c-2.774-1.233-4.13-2.931-4.769-4.593-.417-1.084-.546-2.198-.52-3.227.021-.811.138-1.56.278-2.182.394.343.803.706 1.235 1.038a11.59 11.59 0 0 0 7.395 2.407c.543-.015.976-.457.976-1V7.519a3.459 3.459 0 0 1 1.196-2.674c.725-.631 1.636-.908 2.526-.846s1.753.463 2.384 1.188a1 1 0 0 0 1.033.304c.231-.067.463-.143.695-.228zm1.591-3.079a9.884 9.884 0 0 1-2.287 1.205 5.469 5.469 0 0 0-3.276-1.385 5.465 5.465 0 0 0-3.977 1.332A5.464 5.464 0 0 0 11 7.507a9.589 9.589 0 0 1-5.15-1.97 9.87 9.87 0 0 1-2.034-2.116 1 1 0 0 0-1.729.172s-.132.299-.285.76a13.57 13.57 0 0 0-.357 1.29 13.224 13.224 0 0 0-.326 2.571c-.031 1.227.12 2.612.652 3.996.683 1.775 1.966 3.478 4.147 4.823A10.505 10.505 0 0 1 1.045 18a1 1 0 0 0-.53 1.873c4.905 2.725 10.426 2.678 14.666.261C19.221 17.833 22 13.434 22 7.5a5.565 5.565 0 0 0-.023-.489 8.626 8.626 0 0 0 1.996-3.781 1 1 0 0 0-1.55-1.047z"/></symbol><symbol id="icon-local_grocery_store" viewBox="0 0 24 24"><path d="M17.016 18q.797 0 1.383.609t.586 1.406-.586 1.383-1.383.586-1.406-.586-.609-1.383.609-1.406T17.016 18zM.984 2.016h3.281l.938 1.969h14.813q.422 0 .703.305t.281.727q0 .047-.141.469l-3.563 6.469q-.563 1.031-1.734 1.031H8.109l-.891 1.641-.047.141q0 .234.234.234h11.578v2.016h-12q-.797 0-1.383-.609t-.586-1.406q0-.469.234-.938l1.359-2.484-3.609-7.594H.982V2.018zm6 15.984q.797 0 1.406.609t.609 1.406-.609 1.383-1.406.586-1.383-.586-.586-1.383.586-1.406T6.984 18z"/></symbol><symbol id="icon-locked" viewBox="0 0 32 32"><path d="M29 32H3a1 1 0 0 1-1-1V15a1 1 0 0 1 1-1h3v-4C6 4.477 10.477 0 16 0s10 4.477 10 10v4h3a1 1 0 0 1 1 1v16a1 1 0 0 1-1 1zM22 9.5C22 6.462 19.313 4 16 4s-6 2.462-6 5.5V14h12V9.5z"/></symbol><symbol id="icon-moon" viewBox="0 0 32 32"><path d="M21.866 21.447c-3.117 3.12-8.193 3.12-11.313 0s-3.12-8.195 0-11.314a7.952 7.952 0 0 1 2.989-1.863.998.998 0 0 1 1.039.237.995.995 0 0 1 .237 1.039c-.784 2.211-.25 4.604 1.391 6.245 1.638 1.639 4.031 2.172 6.245 1.391a.996.996 0 0 1 1.039.237.995.995 0 0 1 .236 1.039 7.907 7.907 0 0 1-1.863 2.989zm-9.899-9.9a6.007 6.007 0 0 0 0 8.486c2.5 2.501 6.758 2.276 8.937-.51-2.247.141-4.461-.671-6.109-2.318s-2.458-3.861-2.318-6.108c-.18.141-.35.29-.51.451z"/></symbol><symbol id="icon-moon1" viewBox="0 0 32 32"><path d="M15.99 7.002c.004 4.97 4.029 8.999 8.999 8.999 2.668 0 5.041-1.184 6.788-3.922.295.053.231 2.707.211 3.922C31.845 24.836 24.825 32 15.989 32S-.01 24.837-.01 16.001 7.153.12 15.989.002c1.055-.014 2.166.019 3.965.107-1.119 1.142-3.966 3.914-3.965 6.892zm-3.999 3c0-2.162.701-4.15 1.867-5.785-5.605 1.01-9.866 5.888-9.866 11.784C3.992 22.627 9.365 28 15.991 28c5.896 0 10.774-4.261 11.784-9.866a9.923 9.923 0 0 1-5.785 1.867c-5.523 0-9.999-4.476-9.999-9.999z"/></symbol><symbol id="icon-droplet" viewBox="0 0 32 32"><path d="M27.02 14.786C24.965 9.054 20.61 3.906 16 0 11.39 3.907 7.035 9.054 4.98 14.786c-1.271 3.545-1.396 7.393.393 10.794C7.431 29.491 11.58 32 15.999 32s8.569-2.509 10.626-6.42c1.79-3.401 1.664-7.249.393-10.794zm-3.934 8.931C21.717 26.319 18.936 28 16 28a8.043 8.043 0 0 1-4.753-1.583c.414.054.832.083 1.254.083 3.67 0 7.146-2.1 8.856-5.351 1.402-2.665 1.281-5.433.746-7.636.455.88.841 1.756 1.151 2.623.706 1.971 1.251 4.886-.168 7.581z"/></symbol><symbol id="icon-search" viewBox="0 0 32 32"><path d="m31.008 27.231-7.58-6.447c-.784-.705-1.622-1.029-2.299-.998a11.954 11.954 0 0 0 2.87-7.787c0-6.627-5.373-12-12-12s-12 5.373-12 12 5.373 12 12 12c2.972 0 5.691-1.081 7.787-2.87-.031.677.293 1.515.998 2.299l6.447 7.58c1.104 1.226 2.907 1.33 4.007.23s.997-2.903-.23-4.007zM12 20a8 8 0 1 1 0-16 8 8 0 0 1 0 16z"/></symbol><symbol id="icon-sun" viewBox="0 0 32 32"><path d="M16 26a2 2 0 0 1 2 2v2a2 2 0 1 1-4 0v-2a2 2 0 0 1 2-2zm0-20a2 2 0 0 1-2-2V2a2 2 0 1 1 4 0v2a2 2 0 0 1-2 2zm14 8a2 2 0 1 1 0 4h-2a2 2 0 1 1 0-4h2zM6 16a2 2 0 0 1-2 2H2a2 2 0 1 1 0-4h2a2 2 0 0 1 2 2zm19.899 7.071 1.414 1.414a2 2 0 1 1-2.828 2.828l-1.414-1.414a2 2 0 1 1 2.828-2.828zM6.101 8.929 4.687 7.515a2 2 0 1 1 2.828-2.828l1.414 1.414a2 2 0 1 1-2.828 2.828zm19.798 0a2 2 0 1 1-2.828-2.828l1.414-1.414a2 2 0 1 1 2.828 2.828l-1.414 1.414zM6.101 23.071a2 2 0 1 1 2.828 2.828l-1.414 1.414a2 2 0 1 1-2.828-2.828l1.414-1.414zM16 8a8 8 0 1 0 0 16 8 8 0 0 0 0-16zm0 13a5 5 0 1 1 .001-10.001A5 5 0 0 1 16 21z"/></symbol><symbol id="icon-star-full" viewBox="0 0 32 32"><path d="m32 12.408-11.056-1.607L16 .783l-4.944 10.018L0 12.408l8 7.798-1.889 11.011L16 26.018l9.889 5.199L24 20.206l8-7.798z"/></symbol><symbol id="icon-facebook1" viewBox="0 0 32 32"><path d="M19 6h5V0h-5c-3.86 0-7 3.14-7 7v3H8v6h4v16h6V16h5l1-6h-6V7c0-.542.458-1 1-1z"/></symbol><symbol id="icon-instagram" viewBox="0 0 32 32"><path d="M16 2.881c4.275 0 4.781.019 6.462.094 1.563.069 2.406.331 2.969.55a4.952 4.952 0 0 1 1.837 1.194 5.015 5.015 0 0 1 1.2 1.838c.219.563.481 1.412.55 2.969.075 1.688.094 2.194.094 6.463s-.019 4.781-.094 6.463c-.069 1.563-.331 2.406-.55 2.969a4.94 4.94 0 0 1-1.194 1.837 5.02 5.02 0 0 1-1.837 1.2c-.563.219-1.413.481-2.969.55-1.688.075-2.194.094-6.463.094s-4.781-.019-6.463-.094c-1.563-.069-2.406-.331-2.969-.55a4.952 4.952 0 0 1-1.838-1.194 5.02 5.02 0 0 1-1.2-1.837c-.219-.563-.481-1.413-.55-2.969-.075-1.688-.094-2.194-.094-6.463s.019-4.781.094-6.463c.069-1.563.331-2.406.55-2.969a4.964 4.964 0 0 1 1.194-1.838 5.015 5.015 0 0 1 1.838-1.2c.563-.219 1.412-.481 2.969-.55 1.681-.075 2.188-.094 6.463-.094zM16 0c-4.344 0-4.887.019-6.594.094-1.7.075-2.869.35-3.881.744-1.056.412-1.95.956-2.837 1.85a7.833 7.833 0 0 0-1.85 2.831C.444 6.538.169 7.7.094 9.4.019 11.113 0 11.656 0 16s.019 4.887.094 6.594c.075 1.7.35 2.869.744 3.881.413 1.056.956 1.95 1.85 2.837a7.82 7.82 0 0 0 2.831 1.844c1.019.394 2.181.669 3.881.744 1.706.075 2.25.094 6.594.094s4.888-.019 6.594-.094c1.7-.075 2.869-.35 3.881-.744 1.05-.406 1.944-.956 2.831-1.844s1.438-1.781 1.844-2.831c.394-1.019.669-2.181.744-3.881.075-1.706.094-2.25.094-6.594s-.019-4.887-.094-6.594c-.075-1.7-.35-2.869-.744-3.881a7.506 7.506 0 0 0-1.831-2.844A7.82 7.82 0 0 0 26.482.843C25.463.449 24.301.174 22.601.099c-1.712-.081-2.256-.1-6.6-.1z"/><path d="M16 7.781c-4.537 0-8.219 3.681-8.219 8.219s3.681 8.219 8.219 8.219 8.219-3.681 8.219-8.219A8.221 8.221 0 0 0 16 7.781zm0 13.55a5.331 5.331 0 1 1 0-10.663 5.331 5.331 0 0 1 0 10.663zM26.462 7.456a1.919 1.919 0 1 1-3.838 0 1.919 1.919 0 0 1 3.838 0z"/></symbol><symbol id="icon-twitter1" viewBox="0 0 32 32"><path d="M32 7.075a12.941 12.941 0 0 1-3.769 1.031 6.601 6.601 0 0 0 2.887-3.631 13.21 13.21 0 0 1-4.169 1.594A6.565 6.565 0 0 0 22.155 4a6.563 6.563 0 0 0-6.563 6.563c0 .512.056 1.012.169 1.494A18.635 18.635 0 0 1 2.23 5.195a6.56 6.56 0 0 0-.887 3.3 6.557 6.557 0 0 0 2.919 5.463 6.565 6.565 0 0 1-2.975-.819v.081a6.565 6.565 0 0 0 5.269 6.437 6.574 6.574 0 0 1-2.968.112 6.588 6.588 0 0 0 6.131 4.563 13.17 13.17 0 0 1-9.725 2.719 18.568 18.568 0 0 0 10.069 2.95c12.075 0 18.681-10.006 18.681-18.681 0-.287-.006-.569-.019-.85A13.216 13.216 0 0 0 32 7.076z"/></symbol><symbol id="icon-youtube" viewBox="0 0 32 32"><path d="M31.681 9.6s-.313-2.206-1.275-3.175C29.187 5.15 27.825 5.144 27.2 5.069c-4.475-.325-11.194-.325-11.194-.325h-.012s-6.719 0-11.194.325c-.625.075-1.987.081-3.206 1.356C.631 7.394.325 9.6.325 9.6s-.319 2.588-.319 5.181v2.425c0 2.587.319 5.181.319 5.181s.313 2.206 1.269 3.175c1.219 1.275 2.819 1.231 3.531 1.369 2.563.244 10.881.319 10.881.319s6.725-.012 11.2-.331c.625-.075 1.988-.081 3.206-1.356.962-.969 1.275-3.175 1.275-3.175s.319-2.587.319-5.181v-2.425c-.006-2.588-.325-5.181-.325-5.181zM12.694 20.15v-8.994l8.644 4.513-8.644 4.481z"/></symbol><symbol id="icon-facebook" viewBox="0 0 24 24"><path d="M17 3v2h-2c-.552 0-1.053.225-1.414.586S13 6.448 13 7v3a1 1 0 0 0 1 1h2.719l-.5 2H14a1 1 0 0 0-1 1v7h-2v-7a1 1 0 0 0-1-1H8v-2h2a1 1 0 0 0 1-1V7c0-1.105.447-2.103 1.172-2.828S13.895 3 15 3zm1-2h-3c-1.657 0-3.158.673-4.243 1.757S9 5.343 9 7v2H7a1 1 0 0 0-1 1v4a1 1 0 0 0 1 1h2v7a1 1 0 0 0 1 1h4a1 1 0 0 0 1-1v-7h2c.466 0 .858-.319.97-.757l1-4A1 1 0 0 0 18 9h-3V7h3a1 1 0 0 0 1-1V2a1 1 0 0 0-1-1z"/></symbol><symbol id="icon-bookmark-o" viewBox="0 0 20 28"><path d="M18 4H2v19.406l8-7.672 1.391 1.328L18 23.406V4zm.188-2c.234 0 .469.047.688.141a1.73 1.73 0 0 1 1.125 1.609v20.141a1.73 1.73 0 0 1-1.125 1.609 1.727 1.727 0 0 1-.688.125 1.9 1.9 0 0 1-1.297-.5L10 18.5l-6.891 6.625a1.914 1.914 0 0 1-1.297.516c-.234 0-.469-.047-.688-.141a1.73 1.73 0 0 1-1.125-1.609V3.75a1.73 1.73 0 0 1 1.125-1.609c.219-.094.453-.141.688-.141h16.375z"/></symbol><symbol id="icon-fire" viewBox="0 0 32 32"><path d="M22 9c-.062 2.675-2.07 4.934-2.07 4.934C19.93 8.958 16 5 16 5s-.053 2.962-2.043 5.948C11.967 3.981 5.995 0 5.995 0 8.981 10.948 5 14.93 5 22.892 5 27.563 8.954 32 15 32c8.957 0 10.689-3.288 11.615-6.993C27.891 19.906 25.98 13.976 22 9zm2.676 15.521C24.033 27.09 23.307 30 15 30c-5.008 0-8-3.614-8-7.108 0-2.676.488-4.873 1.004-7.199.656-2.949 1.328-5.968 1.037-9.961 3.084 4.269 4.182 9.925 4.182 9.925s2.871-4.031 3.643-5.903C17.457 10.957 18 15 18 19c0 0 2.656-2.188 4.648-5.478 2.098 3.762 2.854 7.695 2.028 10.999zm-2.244-7.726.186 1.035c.416 2.318.183 5.058-.592 6.982a.499.499 0 0 1-.651.277.499.499 0 0 1-.277-.65c.584-1.449.83-3.489.674-5.353-1.004 1.122-2.269 2.291-4.972 3.575l-.506.239-.182-.528c-.362-1.05-.727-2.111-.885-3.59a43.726 43.726 0 0 1-1.865 2.743l-.508.692-.352-.784c-.861-1.925-1.517-3.428-2.037-4.75-.481 1.545-.84 3.332-.84 6.941a.5.5 0 0 1-1 0c0-4.709.625-6.523 1.285-8.444l.52-1.51.479 1.35c.515 1.451 1.193 3.05 2.152 5.212.632-.893 1.056-1.565 1.568-2.376l1.518-2.378v1.709c0 1.924.346 3.181.727 4.323 2.659-1.338 3.655-2.502 4.708-3.73l.85-.985z"/></symbol><symbol id="icon-clouds" viewBox="0 0 32 32"><path d="M26.002 20a5.003 5.003 0 0 1-4.001 8H5a4.996 4.996 0 0 1-4.999-5 5.006 5.006 0 0 1 3.012-4.588 7 7 0 0 1 9.14-7.075 4.502 4.502 0 0 1 6.492-2.794 5 5 0 0 1 9.235 3.556A4.007 4.007 0 0 1 31.001 16c0 2.209-1.8 4-4.01 4h-.988zm-.999-1h2.003a3 3 0 0 0 0-6h-.541a4 4 0 1 0-7.374-2.853 3.502 3.502 0 0 0-6.003 1.569 7.02 7.02 0 0 1 2.525 2.101 5.5 5.5 0 0 1 8.385 4.598c.359.156.695.353 1.004.585zM1 23c0 2.209 1.798 4 4.003 4h16.994A4.004 4.004 0 0 0 26 23a4.008 4.008 0 0 0-3.042-3.884 4.5 4.5 0 0 0-7.606-3.831 6 6 0 0 0-11.251 3.817A4.006 4.006 0 0 0 1 23z"/></symbol><symbol id="icon-cloud-sun" viewBox="0 0 32 32"><path d="M7.101 15.102a6 6 0 0 1 11.251-3.817 4.5 4.5 0 0 1 7.606 3.831A4.007 4.007 0 0 1 29 19c0 2.205-1.792 4-4.003 4H8.003A4.005 4.005 0 0 1 4 19a4.007 4.007 0 0 1 3.101-3.898zm17.852-4.883a5.5 5.5 0 0 0-10.434-3.054 7 7 0 0 0-8.507 7.247A5.007 5.007 0 0 0 3 19c0 2.761 2.232 5 4.999 5H25a5.003 5.003 0 0 0 4.999-5 4.995 4.995 0 0 0-3.001-4.585 5.487 5.487 0 0 0-2.046-4.195zm-.954-.62A5.478 5.478 0 0 0 21.5 9a5.474 5.474 0 0 0-2.886.817 7.027 7.027 0 0 0-3.124-2.362A4.5 4.5 0 0 1 24 9.499l-.001.099zM19.5 0c-.276 0-.5.216-.5.495v2.009c0 .274.232.495.5.495.276 0 .5-.216.5-.495V.495A.502.502 0 0 0 19.5 0zm6.733 2.789a.494.494 0 0 0-.704-.003l-1.421 1.421a.504.504 0 0 0 .003.704.494.494 0 0 0 .704.003l1.421-1.421a.504.504 0 0 0-.003-.704zm2.789 6.733c0-.276-.216-.5-.495-.5h-2.009a.502.502 0 0 0-.495.5c0 .276.216.5.495.5h2.009a.502.502 0 0 0 .495-.5zM12.767 2.789a.494.494 0 0 0-.003.704l1.421 1.421a.504.504 0 0 0 .704-.003.494.494 0 0 0 .003-.704l-1.421-1.421a.504.504 0 0 0-.704.003z"/></symbol><symbol id="icon-wind" viewBox="0 0 32 32"><path d="M30 14a3.999 3.999 0 1 0-8 0h1c0-1.657 1.347-3 3-3 1.657 0 3 1.347 3 3 0 1.657-1.343 3-3.008 3H3v1h23.002A4.002 4.002 0 0 0 30 14zm-9-1c0-1.657-1.347-3-3-3-1.657 0-3 1.342-3 2.991V13h1c0-1.105.888-2 2-2 1.105 0 2 .888 2 2 0 1.105-.897 2-2.006 2H6v1h12.001A3.002 3.002 0 0 0 21 13zm4 8c0 1.105-.888 2-2 2-1.105 0-2-.895-2-1.994V21h1c0 .552.444 1 1 1 .552 0 1-.444 1-1 0-.552-.449-1-1.007-1H9v-1h14.006c1.101 0 1.994.888 1.994 2z"/></symbol><symbol id="icon-bookmark" viewBox="0 0 32 32"><path d="M12.997 4h6.006A2.993 2.993 0 0 1 22 6.991V28l-6-6-6 6V6.991A2.996 2.996 0 0 1 12.997 4zM13 5a2 2 0 0 0-2 1.994V25.6l5-5 5 5V6.994A1.992 1.992 0 0 0 19 5h-6.001z"/></symbol><symbol id="icon-arrow-thin-up" viewBox="0 0 20 20"><path d="M9 3.828 2.929 9.899 1.515 8.485 10 0l8.485 8.485-1.414 1.414L11 3.828V20H9V3.828z"/></symbol><symbol id="icon-arrow-thin-down" viewBox="0 0 20 20"><path d="m9 16.172-6.071-6.071-1.414 1.414L10 20l8.485-8.485-1.414-1.414L11 16.172V0H9z"/></symbol><symbol id="icon-bookmark-outline" viewBox="0 0 20 20"><path d="M2 2c0-1.1.9-2 2-2h12a2 2 0 0 1 2 2v18l-8-4-8 4V2zm2 0v15l6-3 6 3V2H4z"/></symbol><symbol id="icon-hot1" viewBox="0 0 20 20"><path d="M10 0s8 7.58 8 12a8 8 0 0 1-16 0c0-1.5.91-3.35 2.12-5.15A3.007 3.007 0 0 0 7 9.01a3 3 0 0 0 3-3v-.011V6 0zM8 0a3 3 0 1 0 0 6V0z"/></symbol><symbol id="icon-notifications-outline" viewBox="0 0 20 20"><path d="M6 8v7h8V8a4 4 0 0 0-8 0zm2.03-5.67a2 2 0 1 1 3.948.012l.002-.012C14.341 3.173 16 5.39 16 7.994V14l3 2v1H1v-1l3-2V7.997a6.002 6.002 0 0 1 3.988-5.654l.042-.013zM12 18a2 2 0 1 1-4 0h4z"/></symbol><symbol id="icon-chevron-down" viewBox="0 0 20 20"><path d="M4.516 7.548c.436-.446 1.043-.481 1.576 0L10 11.295l3.908-3.747c.533-.481 1.141-.446 1.574 0 .436.445.408 1.197 0 1.615-.406.418-4.695 4.502-4.695 4.502a1.095 1.095 0 0 1-1.576 0S4.924 9.581 4.516 9.163s-.436-1.17 0-1.615z"/></symbol><symbol id="icon-chevron-thin-down" viewBox="0 0 20 20"><path d="M17.418 6.109c.272-.268.709-.268.979 0s.271.701 0 .969l-7.908 7.83a.697.697 0 0 1-.979 0l-7.908-7.83c-.27-.268-.27-.701 0-.969s.709-.268.979 0L10 13.25l7.418-7.141z"/></symbol><symbol id="icon-mail" viewBox="0 0 20 20"><path d="m1.574 5.286 7.5 4.029c.252.135.578.199.906.199.328 0 .654-.064.906-.199l7.5-4.029c.489-.263.951-1.286.054-1.286H1.521c-.897 0-.435 1.023.053 1.286zm17.039 2.203-7.727 4.027c-.34.178-.578.199-.906.199s-.566-.021-.906-.199-7.133-3.739-7.688-4.028C.996 7.284 1 7.523 1 7.707V15c0 .42.566 1 1 1h16c.434 0 1-.58 1-1V7.708c0-.184.004-.423-.387-.219z"/></symbol></defs></svg>