<svg aria-hidden="true" style="position: absolute; width: 0; height: 0; overflow: hidden;" version="1.1" xmlns="http://www.w3.org/2000/svg" xmlns:xlink="http://www.w3.org/1999/xlink">
<defs>
<symbol id="icon-twitter" viewBox="0 0 24 24">
<path d="M20.833 5.262c-0.186 0.242-0.391 0.475-0.616 0.696-0.233 0.232-0.347 0.567-0.278 0.908 0.037 0.182 0.060 0.404 0.061 0.634 0 5.256-2.429 8.971-5.81 10.898-2.647 1.509-5.938 1.955-9.222 1.12 1.245-0.361 2.46-0.921 3.593-1.69 0.147-0.099 0.273-0.243 0.352-0.421 0.224-0.505-0.003-1.096-0.508-1.32-2.774-1.233-4.13-2.931-4.769-4.593-0.417-1.084-0.546-2.198-0.52-3.227 0.021-0.811 0.138-1.56 0.278-2.182 0.394 0.343 0.803 0.706 1.235 1.038 2.051 1.577 4.624 2.479 7.395 2.407 0.543-0.015 0.976-0.457 0.976-1v-1.011c-0.002-0.179 0.009-0.357 0.034-0.533 0.113-0.806 0.504-1.569 1.162-2.141 0.725-0.631 1.636-0.908 2.526-0.846s1.753 0.463 2.384 1.188c0.252 0.286 0.649 0.416 1.033 0.304 0.231-0.067 0.463-0.143 0.695-0.228zM22.424 2.183c-0.74 0.522-1.523 0.926-2.287 1.205-0.931-0.836-2.091-1.302-3.276-1.385-1.398-0.097-2.836 0.339-3.977 1.332-1.036 0.901-1.652 2.108-1.83 3.372-0.037 0.265-0.055 0.532-0.054 0.8-1.922-0.142-3.693-0.85-5.15-1.97-0.775-0.596-1.462-1.309-2.034-2.116-0.32-0.45-0.944-0.557-1.394-0.237-0.154 0.109-0.267 0.253-0.335 0.409 0 0-0.132 0.299-0.285 0.76-0.112 0.337-0.241 0.775-0.357 1.29-0.163 0.722-0.302 1.602-0.326 2.571-0.031 1.227 0.12 2.612 0.652 3.996 0.683 1.775 1.966 3.478 4.147 4.823-1.569 0.726-3.245 1.039-4.873 0.967-0.552-0.024-1.019 0.403-1.043 0.955-0.017 0.389 0.19 0.736 0.513 0.918 4.905 2.725 10.426 2.678 14.666 0.261 4.040-2.301 6.819-6.7 6.819-12.634-0.001-0.167-0.008-0.33-0.023-0.489 1.006-1.115 1.676-2.429 1.996-3.781 0.127-0.537-0.206-1.076-0.743-1.203-0.29-0.069-0.58-0.003-0.807 0.156z"></path>
</symbol>
<symbol id="icon-facebook" viewBox="0 0 24 24">
<path d="M17 3v2h-2c-0.552 0-1.053 0.225-1.414 0.586s-0.586 0.862-0.586 1.414v3c0 0.552 0.448 1 1 1h2.719l-0.5 2h-2.219c-0.552 0-1 0.448-1 1v7h-2v-7c0-0.552-0.448-1-1-1h-2v-2h2c0.552 0 1-0.448 1-1v-3c0-1.105 0.447-2.103 1.172-2.828s1.723-1.172 2.828-1.172zM18 1h-3c-1.657 0-3.158 0.673-4.243 1.757s-1.757 2.586-1.757 4.243v2h-2c-0.552 0-1 0.448-1 1v4c0 0.552 0.448 1 1 1h2v7c0 0.552 0.448 1 1 1h4c0.552 0 1-0.448 1-1v-7h2c0.466 0 0.858-0.319 0.97-0.757l1-4c0.134-0.536-0.192-1.079-0.728-1.213-0.083-0.021-0.167-0.031-0.242-0.030h-3v-2h3c0.552 0 1-0.448 1-1v-4c0-0.552-0.448-1-1-1z"></path>
</symbol>
<symbol id="icon-local_grocery_store" viewBox="0 0 24 24">
<path d="M17.016 18q0.797 0 1.383 0.609t0.586 1.406-0.586 1.383-1.383 0.586-1.406-0.586-0.609-1.383 0.609-1.406 1.406-0.609zM0.984 2.016h3.281l0.938 1.969h14.813q0.422 0 0.703 0.305t0.281 0.727q0 0.047-0.141 0.469l-3.563 6.469q-0.563 1.031-1.734 1.031h-7.453l-0.891 1.641-0.047 0.141q0 0.234 0.234 0.234h11.578v2.016h-12q-0.797 0-1.383-0.609t-0.586-1.406q0-0.469 0.234-0.938l1.359-2.484-3.609-7.594h-2.016v-1.969zM6.984 18q0.797 0 1.406 0.609t0.609 1.406-0.609 1.383-1.406 0.586-1.383-0.586-0.586-1.383 0.586-1.406 1.383-0.609z"></path>
</symbol>
<symbol id="icon-locked" viewBox="0 0 32 32">
<path d="M29 32h-26c-0.552 0-1-0.447-1-1v-16c0-0.553 0.448-1 1-1h3v-4c0-5.523 4.477-10 10-10s10 4.477 10 10v4h3c0.553 0 1 0.447 1 1v16c0 0.553-0.447 1-1 1zM22 9.5c0-3.038-2.687-5.5-6-5.5s-6 2.462-6 5.5v4.5h12v-4.5z"></path>
</symbol>
<symbol id="icon-moon" viewBox="0 0 32 32">
<path d="M21.866 21.447c-3.117 3.12-8.193 3.12-11.313 0s-3.12-8.195 0-11.314c0.826-0.824 1.832-1.453 2.989-1.863 0.365-0.128 0.768-0.035 1.039 0.237 0.274 0.273 0.366 0.677 0.237 1.039-0.784 2.211-0.25 4.604 1.391 6.245 1.638 1.639 4.031 2.172 6.245 1.391 0.362-0.129 0.767-0.036 1.039 0.237 0.273 0.271 0.365 0.676 0.236 1.039-0.408 1.157-1.038 2.164-1.863 2.989zM11.967 11.547c-2.34 2.34-2.34 6.147 0 8.486 2.5 2.501 6.758 2.276 8.937-0.51-2.247 0.141-4.461-0.671-6.109-2.318s-2.458-3.861-2.318-6.108c-0.18 0.141-0.35 0.29-0.51 0.451z"></path>
</symbol>
<symbol id="icon-moon1" viewBox="0 0 32 32">
<path d="M15.99 7.002c0.004 4.97 4.029 8.999 8.999 8.999 2.668 0 5.041-1.184 6.788-3.922 0.295 0.053 0.231 2.707 0.211 3.922-0.143 8.835-7.163 15.999-15.999 15.999s-15.999-7.163-15.999-15.999 7.163-15.881 15.999-15.999c1.055-0.014 2.166 0.019 3.965 0.107-1.119 1.142-3.966 3.914-3.965 6.892zM11.991 10.002c0-2.162 0.701-4.15 1.867-5.785-5.605 1.010-9.866 5.888-9.866 11.784 0 6.626 5.373 11.999 11.999 11.999 5.896 0 10.774-4.261 11.784-9.866-1.635 1.166-3.623 1.867-5.785 1.867-5.523 0-9.999-4.476-9.999-9.999z"></path>
</symbol>
<symbol id="icon-droplet" viewBox="0 0 32 32">
<path d="M27.020 14.786c-2.055-5.732-6.41-10.88-11.020-14.786-4.61 3.907-8.965 9.054-11.020 14.786-1.271 3.545-1.396 7.393 0.393 10.794 2.058 3.911 6.207 6.42 10.626 6.42s8.569-2.509 10.626-6.42c1.79-3.401 1.664-7.249 0.393-10.794zM23.086 23.717c-1.369 2.602-4.15 4.283-7.086 4.283-1.723 0-3.391-0.579-4.753-1.583 0.414 0.054 0.832 0.083 1.254 0.083 3.67 0 7.146-2.1 8.856-5.351 1.402-2.665 1.281-5.433 0.746-7.636 0.455 0.88 0.841 1.756 1.151 2.623 0.706 1.971 1.251 4.886-0.168 7.581z"></path>
</symbol>
<symbol id="icon-search" viewBox="0 0 32 32">
<path d="M31.008 27.231l-7.58-6.447c-0.784-0.705-1.622-1.029-2.299-0.998 1.789-2.096 2.87-4.815 2.87-7.787 0-6.627-5.373-12-12-12s-12 5.373-12 12 5.373 12 12 12c2.972 0 5.691-1.081 7.787-2.87-0.031 0.677 0.293 1.515 0.998 2.299l6.447 7.58c1.104 1.226 2.907 1.33 4.007 0.23s0.997-2.903-0.23-4.007zM12 20c-4.418 0-8-3.582-8-8s3.582-8 8-8 8 3.582 8 8-3.582 8-8 8z"></path>
</symbol>
<symbol id="icon-sun" viewBox="0 0 32 32">
<path d="M16 26c1.105 0 2 0.895 2 2v2c0 1.105-0.895 2-2 2s-2-0.895-2-2v-2c0-1.105 0.895-2 2-2zM16 6c-1.105 0-2-0.895-2-2v-2c0-1.105 0.895-2 2-2s2 0.895 2 2v2c0 1.105-0.895 2-2 2zM30 14c1.105 0 2 0.895 2 2s-0.895 2-2 2h-2c-1.105 0-2-0.895-2-2s0.895-2 2-2h2zM6 16c0 1.105-0.895 2-2 2h-2c-1.105 0-2-0.895-2-2s0.895-2 2-2h2c1.105 0 2 0.895 2 2zM25.899 23.071l1.414 1.414c0.781 0.781 0.781 2.047 0 2.828s-2.047 0.781-2.828 0l-1.414-1.414c-0.781-0.781-0.781-2.047 0-2.828s2.047-0.781 2.828 0zM6.101 8.929l-1.414-1.414c-0.781-0.781-0.781-2.047 0-2.828s2.047-0.781 2.828 0l1.414 1.414c0.781 0.781 0.781 2.047 0 2.828s-2.047 0.781-2.828 0zM25.899 8.929c-0.781 0.781-2.047 0.781-2.828 0s-0.781-2.047 0-2.828l1.414-1.414c0.781-0.781 2.047-0.781 2.828 0s0.781 2.047 0 2.828l-1.414 1.414zM6.101 23.071c0.781-0.781 2.047-0.781 2.828 0s0.781 2.047 0 2.828l-1.414 1.414c-0.781 0.781-2.047 0.781-2.828 0s-0.781-2.047 0-2.828l1.414-1.414z"></path>
<path d="M16 8c-4.418 0-8 3.582-8 8s3.582 8 8 8c4.418 0 8-3.582 8-8s-3.582-8-8-8zM16 21c-2.761 0-5-2.239-5-5s2.239-5 5-5 5 2.239 5 5-2.239 5-5 5z"></path>
</symbol>
<symbol id="icon-star-full" viewBox="0 0 32 32">
<path d="M32 12.408l-11.056-1.607-4.944-10.018-4.944 10.018-11.056 1.607 8 7.798-1.889 11.011 9.889-5.199 9.889 5.199-1.889-11.011 8-7.798z"></path>
</symbol>
<symbol id="icon-facebook1" viewBox="0 0 32 32">
<path d="M19 6h5v-6h-5c-3.86 0-7 3.14-7 7v3h-4v6h4v16h6v-16h5l1-6h-6v-3c0-0.542 0.458-1 1-1z"></path>
</symbol>
<symbol id="icon-instagram" viewBox="0 0 32 32">
<path d="M16 2.881c4.275 0 4.781 0.019 6.462 0.094 1.563 0.069 2.406 0.331 2.969 0.55 0.744 0.288 1.281 0.638 1.837 1.194 0.563 0.563 0.906 1.094 1.2 1.838 0.219 0.563 0.481 1.412 0.55 2.969 0.075 1.688 0.094 2.194 0.094 6.463s-0.019 4.781-0.094 6.463c-0.069 1.563-0.331 2.406-0.55 2.969-0.288 0.744-0.637 1.281-1.194 1.837-0.563 0.563-1.094 0.906-1.837 1.2-0.563 0.219-1.413 0.481-2.969 0.55-1.688 0.075-2.194 0.094-6.463 0.094s-4.781-0.019-6.463-0.094c-1.563-0.069-2.406-0.331-2.969-0.55-0.744-0.288-1.281-0.637-1.838-1.194-0.563-0.563-0.906-1.094-1.2-1.837-0.219-0.563-0.481-1.413-0.55-2.969-0.075-1.688-0.094-2.194-0.094-6.463s0.019-4.781 0.094-6.463c0.069-1.563 0.331-2.406 0.55-2.969 0.288-0.744 0.638-1.281 1.194-1.838 0.563-0.563 1.094-0.906 1.838-1.2 0.563-0.219 1.412-0.481 2.969-0.55 1.681-0.075 2.188-0.094 6.463-0.094zM16 0c-4.344 0-4.887 0.019-6.594 0.094-1.7 0.075-2.869 0.35-3.881 0.744-1.056 0.412-1.95 0.956-2.837 1.85-0.894 0.888-1.438 1.781-1.85 2.831-0.394 1.019-0.669 2.181-0.744 3.881-0.075 1.713-0.094 2.256-0.094 6.6s0.019 4.887 0.094 6.594c0.075 1.7 0.35 2.869 0.744 3.881 0.413 1.056 0.956 1.95 1.85 2.837 0.887 0.887 1.781 1.438 2.831 1.844 1.019 0.394 2.181 0.669 3.881 0.744 1.706 0.075 2.25 0.094 6.594 0.094s4.888-0.019 6.594-0.094c1.7-0.075 2.869-0.35 3.881-0.744 1.050-0.406 1.944-0.956 2.831-1.844s1.438-1.781 1.844-2.831c0.394-1.019 0.669-2.181 0.744-3.881 0.075-1.706 0.094-2.25 0.094-6.594s-0.019-4.887-0.094-6.594c-0.075-1.7-0.35-2.869-0.744-3.881-0.394-1.063-0.938-1.956-1.831-2.844-0.887-0.887-1.781-1.438-2.831-1.844-1.019-0.394-2.181-0.669-3.881-0.744-1.712-0.081-2.256-0.1-6.6-0.1v0z"></path>
<path d="M16 7.781c-4.537 0-8.219 3.681-8.219 8.219s3.681 8.219 8.219 8.219 8.219-3.681 8.219-8.219c0-4.537-3.681-8.219-8.219-8.219zM16 21.331c-2.944 0-5.331-2.387-5.331-5.331s2.387-5.331 5.331-5.331c2.944 0 5.331 2.387 5.331 5.331s-2.387 5.331-5.331 5.331z"></path>
<path d="M26.462 7.456c0 1.060-0.859 1.919-1.919 1.919s-1.919-0.859-1.919-1.919c0-1.060 0.859-1.919 1.919-1.919s1.919 0.859 1.919 1.919z"></path>
</symbol>
<symbol id="icon-twitter1" viewBox="0 0 32 32">
<path d="M32 7.075c-1.175 0.525-2.444 0.875-3.769 1.031 1.356-0.813 2.394-2.1 2.887-3.631-1.269 0.75-2.675 1.3-4.169 1.594-1.2-1.275-2.906-2.069-4.794-2.069-3.625 0-6.563 2.938-6.563 6.563 0 0.512 0.056 1.012 0.169 1.494-5.456-0.275-10.294-2.888-13.531-6.862-0.563 0.969-0.887 2.1-0.887 3.3 0 2.275 1.156 4.287 2.919 5.463-1.075-0.031-2.087-0.331-2.975-0.819 0 0.025 0 0.056 0 0.081 0 3.181 2.263 5.838 5.269 6.437-0.55 0.15-1.131 0.231-1.731 0.231-0.425 0-0.831-0.044-1.237-0.119 0.838 2.606 3.263 4.506 6.131 4.563-2.25 1.762-5.075 2.813-8.156 2.813-0.531 0-1.050-0.031-1.569-0.094 2.913 1.869 6.362 2.95 10.069 2.95 12.075 0 18.681-10.006 18.681-18.681 0-0.287-0.006-0.569-0.019-0.85 1.281-0.919 2.394-2.075 3.275-3.394z"></path>
</symbol>
<symbol id="icon-youtube" viewBox="0 0 32 32">
<path d="M31.681 9.6c0 0-0.313-2.206-1.275-3.175-1.219-1.275-2.581-1.281-3.206-1.356-4.475-0.325-11.194-0.325-11.194-0.325h-0.012c0 0-6.719 0-11.194 0.325-0.625 0.075-1.987 0.081-3.206 1.356-0.963 0.969-1.269 3.175-1.269 3.175s-0.319 2.588-0.319 5.181v2.425c0 2.587 0.319 5.181 0.319 5.181s0.313 2.206 1.269 3.175c1.219 1.275 2.819 1.231 3.531 1.369 2.563 0.244 10.881 0.319 10.881 0.319s6.725-0.012 11.2-0.331c0.625-0.075 1.988-0.081 3.206-1.356 0.962-0.969 1.275-3.175 1.275-3.175s0.319-2.587 0.319-5.181v-2.425c-0.006-2.588-0.325-5.181-0.325-5.181zM12.694 20.15v-8.994l8.644 4.513-8.644 4.481z"></path>
</symbol>
<symbol id="icon-pinterest" viewBox="0 0 32 32">
<path d="M16 2.138c-7.656 0-13.863 6.206-13.863 13.863 0 5.875 3.656 10.887 8.813 12.906-0.119-1.094-0.231-2.781 0.050-3.975 0.25-1.081 1.625-6.887 1.625-6.887s-0.412-0.831-0.412-2.056c0-1.925 1.119-3.369 2.506-3.369 1.181 0 1.756 0.887 1.756 1.95 0 1.188-0.756 2.969-1.15 4.613-0.331 1.381 0.688 2.506 2.050 2.506 2.462 0 4.356-2.6 4.356-6.35 0-3.319-2.387-5.638-5.787-5.638-3.944 0-6.256 2.956-6.256 6.019 0 1.194 0.456 2.469 1.031 3.163 0.113 0.137 0.131 0.256 0.094 0.4-0.106 0.438-0.338 1.381-0.387 1.575-0.063 0.256-0.2 0.306-0.463 0.188-1.731-0.806-2.813-3.337-2.813-5.369 0-4.375 3.175-8.387 9.156-8.387 4.806 0 8.544 3.425 8.544 8.006 0 4.775-3.012 8.625-7.194 8.625-1.406 0-2.725-0.731-3.175-1.594 0 0-0.694 2.644-0.863 3.294-0.313 1.206-1.156 2.712-1.725 3.631 1.3 0.4 2.675 0.619 4.106 0.619 7.656 0 13.863-6.206 13.863-13.863 0-7.662-6.206-13.869-13.863-13.869z"></path>
</symbol>
<symbol id="icon-bookmark-o" viewBox="0 0 20 28">
<path d="M18 4h-16v19.406l8-7.672 1.391 1.328 6.609 6.344v-19.406zM18.188 2c0.234 0 0.469 0.047 0.688 0.141 0.688 0.266 1.125 0.906 1.125 1.609v20.141c0 0.703-0.438 1.344-1.125 1.609-0.219 0.094-0.453 0.125-0.688 0.125-0.484 0-0.938-0.172-1.297-0.5l-6.891-6.625-6.891 6.625c-0.359 0.328-0.812 0.516-1.297 0.516-0.234 0-0.469-0.047-0.688-0.141-0.688-0.266-1.125-0.906-1.125-1.609v-20.141c0-0.703 0.438-1.344 1.125-1.609 0.219-0.094 0.453-0.141 0.688-0.141h16.375z"></path>
</symbol>
<symbol id="icon-fire" viewBox="0 0 32 32">
<path d="M22 9c-0.062 2.675-2.070 4.934-2.070 4.934 0-4.976-3.93-8.934-3.93-8.934s-0.053 2.962-2.043 5.948c-1.99-6.967-7.962-10.948-7.962-10.948 2.986 10.948-0.995 14.93-0.995 22.892 0 4.671 3.954 9.108 10 9.108 8.957 0 10.689-3.288 11.615-6.993 1.276-5.101-0.635-11.031-4.615-16.007zM24.676 24.521c-0.643 2.569-1.369 5.479-9.676 5.479-5.008 0-8-3.614-8-7.108 0-2.676 0.488-4.873 1.004-7.199 0.656-2.949 1.328-5.968 1.037-9.961 3.084 4.269 4.182 9.925 4.182 9.925s2.871-4.031 3.643-5.903c0.591 1.203 1.134 5.246 1.134 9.246 0 0 2.656-2.188 4.648-5.478 2.098 3.762 2.854 7.695 2.028 10.999zM22.432 16.795l0.186 1.035c0.416 2.318 0.183 5.058-0.592 6.982-0.078 0.195-0.266 0.313-0.463 0.313-0.063 0-0.127-0.012-0.188-0.036-0.256-0.103-0.381-0.394-0.277-0.65 0.584-1.449 0.83-3.489 0.674-5.353-1.004 1.122-2.269 2.291-4.972 3.575l-0.506 0.239-0.182-0.528c-0.362-1.050-0.727-2.111-0.885-3.59-0.541 0.853-1.035 1.613-1.865 2.743l-0.508 0.692-0.352-0.784c-0.861-1.925-1.517-3.428-2.037-4.75-0.481 1.545-0.84 3.332-0.84 6.941 0 0.276-0.225 0.5-0.5 0.5-0.277 0-0.5-0.224-0.5-0.5 0-4.709 0.625-6.523 1.285-8.444l0.52-1.51 0.479 1.35c0.515 1.451 1.193 3.050 2.152 5.212 0.632-0.893 1.056-1.565 1.568-2.376l1.518-2.378v1.709c0 1.924 0.346 3.181 0.727 4.323 2.659-1.338 3.655-2.502 4.708-3.73l0.85-0.985z"></path>
</symbol>
<symbol id="icon-clouds" viewBox="0 0 32 32">
<path d="M26.002 20v0 0c0.627 0.836 0.998 1.874 0.998 3 0 2.756-2.238 5-4.999 5h-17.001c-2.767 0-4.999-2.239-4.999-5 0-2.051 1.24-3.818 3.012-4.588-0.008-0.136-0.012-0.273-0.012-0.412 0-3.866 3.134-7 7-7 0.751 0 1.474 0.118 2.152 0.337 0.513-1.922 2.265-3.337 4.348-3.337 0.776 0 1.507 0.197 2.144 0.543 0.858-1.518 2.487-2.543 4.356-2.543 2.761 0 5 2.239 5 5 0 0.377-0.042 0.745-0.121 1.099 1.787 0.404 3.121 2.001 3.121 3.901 0 2.209-1.8 4-4.010 4h-0.988zM25.003 19h2.003c1.651 0 2.994-1.343 2.994-3 0-1.653-1.341-3-2.994-3h-0.541c0.34-0.588 0.535-1.271 0.535-2 0-2.209-1.791-4-4-4-1.916 0-3.518 1.348-3.909 3.147-0.64-0.705-1.564-1.147-2.591-1.147-1.664 0-3.056 1.161-3.412 2.716 1 0.492 1.865 1.216 2.525 2.101 0.839-0.518 1.828-0.817 2.886-0.817 3.009 0 5.454 2.416 5.499 5.415 0.359 0.156 0.695 0.353 1.004 0.585v0 0zM1 23c0 2.209 1.798 4 4.003 4h16.994c2.211 0 4.003-1.795 4.003-4 0-1.877-1.299-3.453-3.042-3.884 0.028-0.202 0.042-0.407 0.042-0.616 0-2.485-2.015-4.5-4.5-4.5-1.226 0-2.337 0.49-3.148 1.285-0.991-1.949-3.015-3.285-5.352-3.285-3.314 0-6 2.686-6 6 0 0.377 0.035 0.745 0.101 1.102-1.776 0.41-3.101 2.002-3.101 3.898v0z"></path>
</symbol>
<symbol id="icon-cloud-sun" viewBox="0 0 32 32">
<path d="M7.101 15.102v0c-0.066-0.357-0.101-0.726-0.101-1.102 0-3.314 2.686-6 6-6 2.336 0 4.361 1.335 5.352 3.285 0.812-0.795 1.923-1.285 3.148-1.285 2.485 0 4.5 2.015 4.5 4.5 0 0.209-0.014 0.415-0.042 0.616v0c1.743 0.431 3.042 2.006 3.042 3.884 0 2.205-1.792 4-4.003 4h-16.994c-2.205 0-4.003-1.791-4.003-4 0-1.895 1.325-3.488 3.101-3.898zM24.953 10.219c0.031-0.235 0.047-0.475 0.047-0.719 0-3.038-2.462-5.5-5.5-5.5-2.203 0-4.103 1.295-4.981 3.165v0c-0.489-0.108-0.997-0.165-1.519-0.165-3.866 0-7 3.134-7 7 0 0.138 0.004 0.275 0.012 0.412-1.772 0.77-3.012 2.538-3.012 4.588 0 2.761 2.232 5 4.999 5h17.001c2.761 0 4.999-2.244 4.999-5 0-2.052-1.232-3.815-3.001-4.585-0.026-1.695-0.818-3.204-2.046-4.195v0 0zM23.999 9.599v0 0c-0.75-0.383-1.599-0.599-2.499-0.599-1.059 0-2.047 0.299-2.886 0.817-0.789-1.057-1.87-1.884-3.124-2.362 0.745-1.458 2.261-2.456 4.010-2.456 2.485 0 4.5 2.015 4.5 4.5 0 0.033-0 0.066-0.001 0.099zM19.5 0c-0.276 0-0.5 0.216-0.5 0.495v2.009c0 0.274 0.232 0.495 0.5 0.495 0.276 0 0.5-0.216 0.5-0.495v-2.009c0-0.274-0.232-0.495-0.5-0.495v0zM26.233 2.789c-0.195-0.195-0.506-0.201-0.704-0.003l-1.421 1.421c-0.193 0.193-0.186 0.514 0.003 0.704 0.195 0.195 0.506 0.201 0.704 0.003l1.421-1.421c0.193-0.193 0.186-0.514-0.003-0.704v0zM29.022 9.522c0-0.276-0.216-0.5-0.495-0.5h-2.009c-0.274 0-0.495 0.232-0.495 0.5 0 0.276 0.216 0.5 0.495 0.5h2.009c0.274 0 0.495-0.232 0.495-0.5v0zM12.767 2.789c-0.195 0.195-0.201 0.506-0.003 0.704l1.421 1.421c0.193 0.193 0.514 0.186 0.704-0.003 0.195-0.195 0.201-0.506 0.003-0.704l-1.421-1.421c-0.193-0.193-0.514-0.186-0.704 0.003v0z"></path>
</symbol>
<symbol id="icon-wind" viewBox="0 0 32 32">
<path d="M30 14c0-2.209-1.795-4-4-4-2.209 0-4 1.789-4 4h1c0-1.657 1.347-3 3-3 1.657 0 3 1.347 3 3 0 1.657-1.343 3-3.008 3h-22.992v1h23.002c2.208 0 3.998-1.795 3.998-4v0zM21 13c0-1.657-1.347-3-3-3-1.657 0-3 1.342-3 2.991v0.009h1c0-1.105 0.888-2 2-2 1.105 0 2 0.888 2 2 0 1.105-0.897 2-2.006 2h-11.994v1h12.001c1.657 0 2.999-1.347 2.999-3v0zM25 21c0 1.105-0.888 2-2 2v0c-1.105 0-2-0.895-2-1.994v-0.006h1c0 0.552 0.444 1 1 1v0c0.552 0 1-0.444 1-1v0c0-0.552-0.449-1-1.007-1h-13.993v-1h14.006c1.101 0 1.994 0.888 1.994 2v0 0z"></path>
</symbol>
<symbol id="icon-bookmark" viewBox="0 0 32 32">
<path d="M12.997 4h6.006c1.656 0 2.997 1.339 2.997 2.991v21.009l-6-6-6 6v-21.009c0-1.649 1.342-2.991 2.997-2.991zM13 5c-1.104 0-2 0.898-2 1.994v18.606l5-5 5 5v-18.606c0-1.101-0.887-1.994-2-1.994h-6.001z"></path>
</symbol>
<symbol id="icon-arrow-thin-up" viewBox="0 0 20 20">
<path d="M9 3.828l-6.071 6.071-1.414-1.414 8.485-8.485 8.485 8.485-1.414 1.414-6.071-6.071v16.172h-2v-16.172z"></path>
</symbol>
<symbol id="icon-arrow-thin-down" viewBox="0 0 20 20">
<path d="M9 16.172l-6.071-6.071-1.414 1.414 8.485 8.485 8.485-8.485-1.414-1.414-6.071 6.071v-16.172h-2z"></path>
</symbol>
<symbol id="icon-bookmark-outline" viewBox="0 0 20 20">
<path d="M2 2c0-1.1 0.9-2 2-2h12c1.105 0 2 0.895 2 2v0 18l-8-4-8 4v-18zM4 2v15l6-3 6 3v-15h-12z"></path>
</symbol>
<symbol id="icon-hot1" viewBox="0 0 20 20">
<path d="M10 0s8 7.58 8 12c0 4.418-3.582 8-8 8s-8-3.582-8-8v0c0-1.5 0.91-3.35 2.12-5.15 0.376 1.258 1.522 2.16 2.88 2.16 1.657 0 3-1.343 3-3 0-0.004 0-0.007-0-0.011v0.001-6zM8 0c-1.657 0-3 1.343-3 3s1.343 3 3 3v0-6z"></path>
</symbol>
<symbol id="icon-notifications-outline" viewBox="0 0 20 20">
<path d="M6 8v7h8v-7c0-2.209-1.791-4-4-4s-4 1.791-4 4v0zM8.030 2.33c-0.016-0.095-0.025-0.204-0.025-0.315 0-1.105 0.895-2 2-2s2 0.895 2 2c0 0.111-0.009 0.22-0.027 0.327l0.002-0.012c2.361 0.843 4.020 3.060 4.020 5.664 0 0.002 0 0.004 0 0.006v-0 6l3 2v1h-18v-1l3-2v-6c0-0.001 0-0.002 0-0.003 0-2.608 1.664-4.827 3.988-5.654l0.042-0.013zM12 18c0 1.105-0.895 2-2 2s-2-0.895-2-2v0h4z"></path>
</symbol>
<symbol id="icon-chevron-down" viewBox="0 0 20 20">
<path d="M4.516 7.548c0.436-0.446 1.043-0.481 1.576 0l3.908 3.747 3.908-3.747c0.533-0.481 1.141-0.446 1.574 0 0.436 0.445 0.408 1.197 0 1.615-0.406 0.418-4.695 4.502-4.695 4.502-0.217 0.223-0.502 0.335-0.787 0.335s-0.57-0.112-0.789-0.335c0 0-4.287-4.084-4.695-4.502s-0.436-1.17 0-1.615z"></path>
</symbol>
<symbol id="icon-chevron-thin-down" viewBox="0 0 20 20">
<path d="M17.418 6.109c0.272-0.268 0.709-0.268 0.979 0s0.271 0.701 0 0.969l-7.908 7.83c-0.27 0.268-0.707 0.268-0.979 0l-7.908-7.83c-0.27-0.268-0.27-0.701 0-0.969s0.709-0.268 0.979 0l7.419 7.141 7.418-7.141z"></path>
</symbol>
<symbol id="icon-mail" viewBox="0 0 20 20">
<path d="M1.574 5.286c0.488 0.262 7.248 3.894 7.5 4.029s0.578 0.199 0.906 0.199c0.328 0 0.654-0.064 0.906-0.199s7.012-3.767 7.5-4.029c0.489-0.263 0.951-1.286 0.054-1.286h-16.919c-0.897 0-0.435 1.023 0.053 1.286zM18.613 7.489c-0.555 0.289-7.387 3.849-7.727 4.027s-0.578 0.199-0.906 0.199-0.566-0.021-0.906-0.199-7.133-3.739-7.688-4.028c-0.39-0.204-0.386 0.035-0.386 0.219s0 7.293 0 7.293c0 0.42 0.566 1 1 1h16c0.434 0 1-0.58 1-1 0 0 0-7.108 0-7.292s0.004-0.423-0.387-0.219z"></path>
</symbol>
</defs>
</svg>
