<svg xmlns="http://www.w3.org/2000/svg" width="73" height="13" fill="none"><path fill="#F3B705" d="M6.215.878a.3.3 0 0 1 .57 0l1.107 3.406a.3.3 0 0 0 .285.207h3.582a.3.3 0 0 1 .176.543L9.038 7.14a.3.3 0 0 0-.11.336l1.107 3.405a.3.3 0 0 1-.461.336L6.676 9.11a.3.3 0 0 0-.352 0l-2.898 2.105a.3.3 0 0 1-.461-.335L4.07 7.474a.3.3 0 0 0-.109-.336L1.065 5.034a.3.3 0 0 1 .176-.543h3.582a.3.3 0 0 0 .285-.207L6.215.878ZM21.215.878a.3.3 0 0 1 .57 0l1.107 3.406a.3.3 0 0 0 .285.207h3.582a.3.3 0 0 1 .176.543L24.038 7.14a.3.3 0 0 0-.11.336l1.107 3.405a.3.3 0 0 1-.461.336L21.676 9.11a.3.3 0 0 0-.352 0l-2.898 2.105a.3.3 0 0 1-.461-.335l1.106-3.406a.3.3 0 0 0-.109-.336l-2.897-2.105a.3.3 0 0 1 .176-.543h3.582a.3.3 0 0 0 .285-.207L21.215.878ZM36.215.878a.3.3 0 0 1 .57 0l1.107 3.406a.3.3 0 0 0 .285.207h3.582a.3.3 0 0 1 .176.543L39.038 7.14a.3.3 0 0 0-.11.336l1.107 3.405a.3.3 0 0 1-.461.336L36.676 9.11a.3.3 0 0 0-.352 0l-2.898 2.105a.3.3 0 0 1-.461-.335l1.106-3.406a.3.3 0 0 0-.109-.336l-2.897-2.105a.3.3 0 0 1 .176-.543h3.582a.3.3 0 0 0 .285-.207L36.215.878ZM51.215.878a.3.3 0 0 1 .57 0l1.107 3.406a.3.3 0 0 0 .285.207h3.582a.3.3 0 0 1 .176.543L54.038 7.14a.3.3 0 0 0-.11.336l1.107 3.405a.3.3 0 0 1-.461.336L51.676 9.11a.3.3 0 0 0-.352 0l-2.898 2.105a.3.3 0 0 1-.461-.335l1.106-3.406a.3.3 0 0 0-.109-.336l-2.897-2.105a.3.3 0 0 1 .176-.543h3.582a.3.3 0 0 0 .285-.207L51.215.878Z"/><path stroke="#F3B705" d="m65.584 4.439.916-2.821.916 2.82a.8.8 0 0 0 .761.553h2.966l-2.4 1.744a.8.8 0 0 0-.29.894l.916 2.82-2.399-1.743a.8.8 0 0 0-.94 0l-2.4 1.744.917-2.821a.8.8 0 0 0-.29-.894l-2.4-1.744h2.966a.8.8 0 0 0 .76-.552Z"/></svg>